<svg id="Layer_1" data-name="Layer 1" xmlns="http://www.w3.org/2000/svg" xmlns:xlink="http://www.w3.org/1999/xlink" viewBox="0 0 647.86 647.86"><defs><style>.cls-1{clip-path:url(#clip-path);}.cls-2{fill:none;}.cls-3{fill:url(#Sfumatura_senza_nome_43);}.cls-4{clip-path:url(#clip-path-2);}.cls-5{fill:url(#Sfumatura_senza_nome);}.cls-6{fill:url(#Sfumatura_senza_nome_16);}.cls-7{clip-path:url(#clip-path-3);}.cls-8{fill:url(#Sfumatura_senza_nome_43-2);}.cls-9{fill:url(#Sfumatura_senza_nome_45);}.cls-10{clip-path:url(#clip-path-4);}.cls-11{fill:url(#Sfumatura_senza_nome_43-3);}.cls-12{clip-path:url(#clip-path-5);}.cls-13{fill:url(#Sfumatura_senza_nome_4);}.cls-14{clip-path:url(#clip-path-6);}.cls-15{fill:url(#Sfumatura_senza_nome_6);}.cls-16{clip-path:url(#clip-path-7);}.cls-17{fill:url(#Sfumatura_senza_nome_43-4);}.cls-18{fill:url(#Sfumatura_senza_nome_27);}.cls-19{fill:#333;}.cls-20{clip-path:url(#clip-path-8);}.cls-21{clip-path:url(#clip-path-9);}.cls-22{clip-path:url(#clip-path-10);}.cls-23{clip-path:url(#clip-path-11);}.cls-24{clip-path:url(#clip-path-12);}.cls-25{clip-path:url(#clip-path-13);}.cls-26{clip-path:url(#clip-path-14);}.cls-27{mask:url(#mask);}.cls-28{clip-path:url(#clip-path-15);}.cls-29{mask:url(#mask-2);}.cls-30{clip-path:url(#clip-path-16);}.cls-31{mask:url(#mask-3);}.cls-32{clip-path:url(#clip-path-17);}.cls-33{clip-path:url(#clip-path-18);}.cls-34{mask:url(#mask-4);}.cls-35{clip-path:url(#clip-path-19);}.cls-36{clip-path:url(#clip-path-20);}.cls-37{clip-path:url(#clip-path-21);}.cls-38{clip-path:url(#clip-path-22);}.cls-39{clip-path:url(#clip-path-23);}.cls-40{mask:url(#mask-5);}.cls-41{clip-path:url(#clip-path-24);}.cls-42{clip-path:url(#clip-path-25);}.cls-43{clip-path:url(#clip-path-26);}.cls-44{clip-path:url(#clip-path-27);}.cls-45{clip-path:url(#clip-path-28);}.cls-46{clip-path:url(#clip-path-29);}.cls-47{clip-path:url(#clip-path-30);}.cls-48{mask:url(#mask-6);}.cls-49{clip-path:url(#clip-path-31);}.cls-50{clip-path:url(#clip-path-32);}.cls-51{clip-path:url(#clip-path-33);}.cls-52{mask:url(#mask-7);}.cls-53{clip-path:url(#clip-path-34);}.cls-54{mask:url(#mask-8);}.cls-55{clip-path:url(#clip-path-35);}.cls-56{mask:url(#mask-9);}.cls-57{clip-path:url(#clip-path-36);}.cls-58{clip-path:url(#clip-path-37);}.cls-59{clip-path:url(#clip-path-38);}.cls-60{clip-path:url(#clip-path-39);}.cls-61{clip-path:url(#clip-path-40);}.cls-62{clip-path:url(#clip-path-41);}.cls-63{mask:url(#mask-10);}</style><clipPath id="clip-path"><rect class="cls-2" x="78.87" y="332.07" width="43.5" height="44.18" transform="translate(-229.28 190.69) rotate(-47.78)"/></clipPath><linearGradient id="Sfumatura_senza_nome_43" x1="-1978.44" y1="1112.76" x2="-1977.3" y2="1112.76" gradientTransform="matrix(35.08, 0, 0, -35.08, 69477.49, 39388.74)" gradientUnits="userSpaceOnUse"><stop offset="0" stop-color="#fff"/><stop offset="0.27" stop-color="#fff"/><stop offset="0.33" stop-color="#f4f4f4"/><stop offset="0.45" stop-color="#d5d5d5"/><stop offset="0.59" stop-color="#a4a4a4"/><stop offset="0.77" stop-color="#606060"/><stop offset="0.98" stop-color="#0a0a0a"/><stop offset="1"/></linearGradient><clipPath id="clip-path-2"><rect class="cls-2" x="208.9" y="317.68" width="13.49" height="1.32" transform="translate(-29.99 22.53) rotate(-5.59)"/></clipPath><linearGradient id="Sfumatura_senza_nome" x1="-2015.51" y1="1349.86" x2="-2014.38" y2="1349.86" gradientTransform="matrix(0, 6.24, 6.24, 0, -8207.45, 12888.29)" gradientUnits="userSpaceOnUse"><stop offset="0" stop-color="#fff"/><stop offset="1"/></linearGradient><linearGradient id="Sfumatura_senza_nome_16" x1="-2016.45" y1="1204.03" x2="-2015.32" y2="1204.03" gradientTransform="matrix(0, 19.61, 19.61, 0, -23409.21, 39842.2)" gradientUnits="userSpaceOnUse"><stop offset="0" stop-color="#fefefe"/><stop offset="0.02" stop-color="#fefefe"/><stop offset="1"/></linearGradient><clipPath id="clip-path-3"><rect class="cls-2" x="279.41" y="345.33" width="29.27" height="24.73" transform="translate(-80.48 85.41) rotate(-14.56)"/></clipPath><linearGradient id="Sfumatura_senza_nome_43-2" x1="-1941.76" y1="1128.93" x2="-1940.63" y2="1128.93" gradientTransform="matrix(20.31, 0, 0, -20.31, 39715.29, 23286.31)" xlink:href="#Sfumatura_senza_nome_43"/><linearGradient id="Sfumatura_senza_nome_45" x1="-2004.11" y1="1115.25" x2="-2002.98" y2="1115.25" gradientTransform="matrix(0, -61.33, -61.33, 0, 68718.19, -122594.28)" gradientUnits="userSpaceOnUse"><stop offset="0" stop-color="#fff"/><stop offset="0.22" stop-color="#fff"/><stop offset="0.58" stop-color="#fff"/><stop offset="0.62" stop-color="#f9f9f9"/><stop offset="0.67" stop-color="#e7e7e7"/><stop offset="0.73" stop-color="#cacaca"/><stop offset="0.8" stop-color="#a2a2a2"/><stop offset="0.87" stop-color="#6e6e6e"/><stop offset="0.95" stop-color="#303030"/><stop offset="1"/></linearGradient><clipPath id="clip-path-4"><rect class="cls-2" x="381.95" y="332.07" width="43.49" height="44.18" transform="translate(-129.86 415.12) rotate(-47.78)"/></clipPath><linearGradient id="Sfumatura_senza_nome_43-3" x1="-1977.76" y1="1112.01" x2="-1976.62" y2="1112.01" gradientTransform="matrix(35.08, 0, 0, -35.08, 69756.72, 39362.47)" xlink:href="#Sfumatura_senza_nome_43"/><clipPath id="clip-path-5"><rect class="cls-2" x="440.21" y="332.68" width="40.46" height="39.03" transform="translate(-91.27 174.26) rotate(-19.54)"/></clipPath><linearGradient id="Sfumatura_senza_nome_4" x1="-1993.12" y1="1202.74" x2="-1991.99" y2="1202.74" gradientTransform="matrix(0, 20.15, 20.15, 0, -23780.03, 40507.67)" gradientUnits="userSpaceOnUse"><stop offset="0"/><stop offset="0.07" stop-color="#1e1e1e"/><stop offset="0.3" stop-color="#7d7d7d"/><stop offset="0.48" stop-color="#c3c3c3"/><stop offset="0.61" stop-color="#eee"/><stop offset="0.68" stop-color="#fff"/><stop offset="0.94" stop-color="#fff"/><stop offset="1" stop-color="#fff"/></linearGradient><clipPath id="clip-path-6"><rect class="cls-2" x="472.37" y="271.23" width="41.57" height="39.4" transform="translate(-72.62 202.98) rotate(-21.7)"/></clipPath><linearGradient id="Sfumatura_senza_nome_6" x1="-1991.92" y1="1198.38" x2="-1990.78" y2="1198.38" gradientTransform="matrix(0, 21.54, 21.54, 0, -25322.22, 43191.33)" gradientUnits="userSpaceOnUse"><stop offset="0" stop-color="#fff"/><stop offset="0.02" stop-color="#fff"/><stop offset="0.22" stop-color="#fff"/><stop offset="0.3" stop-color="#eee"/><stop offset="0.45" stop-color="#c3c3c3"/><stop offset="0.66" stop-color="#7d7d7d"/><stop offset="0.92" stop-color="#1e1e1e"/><stop offset="1"/></linearGradient><clipPath id="clip-path-7"><rect class="cls-2" x="566.63" y="345.33" width="29.27" height="24.73" transform="translate(-71.26 157.63) rotate(-14.56)"/></clipPath><linearGradient id="Sfumatura_senza_nome_43-4" x1="-1940.16" y1="1128.51" x2="-1939.03" y2="1128.51" gradientTransform="matrix(20.31, 0, 0, -20.31, 39969.96, 23277.87)" xlink:href="#Sfumatura_senza_nome_43"/><linearGradient id="Sfumatura_senza_nome_27" x1="-2001.76" y1="1097.07" x2="-2000.63" y2="1097.07" gradientTransform="matrix(0, -34.2, -34.2, 0, 38123.5, -68137.28)" gradientUnits="userSpaceOnUse"><stop offset="0" stop-color="#fff"/><stop offset="0.32" stop-color="#fff"/><stop offset="0.79" stop-color="#fff"/><stop offset="1"/></linearGradient><clipPath id="clip-path-8"><path class="cls-19" d="M105,299a31.79,31.79,0,0,1,8.63,14.93h13.85a45.21,45.21,0,0,0-13-24.59Z"/></clipPath><clipPath id="clip-path-9"><path class="cls-19" d="M82.2,276.32l.12,13.55h.27a32,32,0,0,1,22.57,9.31l9.59-9.59a45.5,45.5,0,0,0-32.16-13.28H82.2"/></clipPath><clipPath id="clip-path-10"><path class="cls-19" d="M50.19,289.9l9.67,9.51a31.76,31.76,0,0,1,22.73-9.54V276.31h0a45.32,45.32,0,0,0-32.4,13.59"/></clipPath><clipPath id="clip-path-11"><path class="cls-19" d="M37.16,321.75c0,.13,0,.26,0,.39L50.72,322v-.27a31.76,31.76,0,0,1,9.34-22.54l-9.59-9.59a45.3,45.3,0,0,0-13.31,32.13"/></clipPath><clipPath id="clip-path-12"><path class="cls-19" d="M37.16,321.75h0a45.32,45.32,0,0,0,13.59,32.4l9.51-9.67a31.75,31.75,0,0,1-9.54-22.73Z"/></clipPath><clipPath id="clip-path-13"><path class="cls-19" d="M50.47,353.87a45.29,45.29,0,0,0,32.12,13.31H83l-.12-13.56h-.28a31.76,31.76,0,0,1-22.53-9.34Z"/></clipPath><clipPath id="clip-path-14"><path class="cls-19" d="M82.59,353.62v13.56a45.36,45.36,0,0,0,36.05-17.78l-10.76-8.25a31.81,31.81,0,0,1-25.29,12.47"/></clipPath><mask id="mask" x="38.84" y="292.38" width="123.56" height="123.56" maskUnits="userSpaceOnUse"><g class="cls-1"><rect class="cls-3" x="56.88" y="310.43" width="87.47" height="87.47" transform="translate(-229.28 190.68) rotate(-47.78)"/></g></mask><clipPath id="clip-path-15"><path class="cls-19" d="M208.87,318.34h0Z"/></clipPath><mask id="mask-2" x="208.61" y="315.71" width="14.07" height="5.27" maskUnits="userSpaceOnUse"><g class="cls-4"><rect class="cls-5" x="208.77" y="316.37" width="13.75" height="3.95" transform="matrix(1, -0.1, 0.1, 1, -30.07, 22.59)"/></g></mask><clipPath id="clip-path-16"><path class="cls-19" d="M185.14,289.89a23.93,23.93,0,0,1,23.73,24v4.46h13.56v-4.46a37.51,37.51,0,0,0-37.29-37.55Z"/></clipPath><mask id="mask-3" x="185.14" y="276.33" width="37.29" height="42.01" maskUnits="userSpaceOnUse"><rect class="cls-6" x="185.14" y="276.33" width="37.29" height="42.01"/></mask><clipPath id="clip-path-17"><path class="cls-19" d="M154.56,288.71v27.53c2.05-10.89,11.69-26.35,30.18-26.35.34,0,.68,0,1,0V276.34h-1a42.77,42.77,0,0,0-30.19,12.38"/></clipPath><clipPath id="clip-path-18"><path class="cls-19" d="M281.38,353.62v13.56h0a45.19,45.19,0,0,0,25.32-7.72l-7.56-11.26a31.65,31.65,0,0,1-17.76,5.42"/></clipPath><mask id="mask-4" x="269.15" y="333.64" width="49.78" height="48.1" maskUnits="userSpaceOnUse"><g class="cls-7"><rect class="cls-8" x="273.39" y="338.2" width="41.31" height="38.97" transform="translate(-80.48 85.41) rotate(-14.56)"/></g></mask><clipPath id="clip-path-19"><path class="cls-19" d="M248.87,289.9l9.68,9.51a31.75,31.75,0,0,1,22.73-9.54V276.31h0a45.35,45.35,0,0,0-32.41,13.59"/></clipPath><clipPath id="clip-path-20"><path class="cls-19" d="M235.85,322.14h0l13.56-.12v-.27a31.75,31.75,0,0,1,9.33-22.54l-9.59-9.59a45.32,45.32,0,0,0-13.3,32.52"/></clipPath><clipPath id="clip-path-21"><path class="cls-19" d="M235.85,321.75h0a45.28,45.28,0,0,0,13.59,32.4l9.5-9.67a31.78,31.78,0,0,1-9.53-22.73Z"/></clipPath><clipPath id="clip-path-22"><path class="cls-19" d="M249.15,353.87a45.33,45.33,0,0,0,32.53,13.31l-.12-13.56h-.28a31.78,31.78,0,0,1-22.54-9.34Z"/></clipPath><clipPath id="clip-path-23"><path class="cls-19" d="M280.88,276.32l.12,13.55h.28a32,32,0,0,1,31.87,28.47h.66V289.79l-.1-.1h0l-.12-.13h0a46.17,46.17,0,0,0-32.29-13.25h-.4"/></clipPath><mask id="mask-5" x="313.15" y="246.48" width="13.56" height="71.86" maskUnits="userSpaceOnUse"><rect class="cls-9" x="313.15" y="246.48" width="13.56" height="71.86"/></mask><clipPath id="clip-path-24"><path class="cls-19" d="M408,299a31.69,31.69,0,0,1,8.62,14.93h13.86a45.28,45.28,0,0,0-13-24.59Z"/></clipPath><clipPath id="clip-path-25"><path class="cls-19" d="M385.27,276.32l.12,13.55h.28a32,32,0,0,1,22.57,9.31l9.58-9.59a45.48,45.48,0,0,0-32.15-13.28h-.4"/></clipPath><clipPath id="clip-path-26"><path class="cls-19" d="M353.27,289.9l9.67,9.51a31.75,31.75,0,0,1,22.73-9.54V276.31h0a45.31,45.31,0,0,0-32.4,13.59"/></clipPath><clipPath id="clip-path-27"><path class="cls-19" d="M340.24,321.75v.39L353.8,322v-.27a31.8,31.8,0,0,1,9.33-22.54l-9.58-9.59a45.3,45.3,0,0,0-13.31,32.13"/></clipPath><clipPath id="clip-path-28"><path class="cls-19" d="M340.24,321.75h0a45.28,45.28,0,0,0,13.59,32.4l9.5-9.67a31.78,31.78,0,0,1-9.53-22.73Z"/></clipPath><clipPath id="clip-path-29"><path class="cls-19" d="M353.55,353.87a45.29,45.29,0,0,0,32.12,13.31h.4L386,353.62h-.28a31.78,31.78,0,0,1-22.54-9.34Z"/></clipPath><clipPath id="clip-path-30"><path class="cls-19" d="M385.67,353.62v13.56h0a45.38,45.38,0,0,0,36.05-17.78L411,341.15a31.84,31.84,0,0,1-25.29,12.47"/></clipPath><mask id="mask-6" x="341.92" y="292.39" width="123.56" height="123.56" maskUnits="userSpaceOnUse"><g class="cls-10"><rect class="cls-11" x="359.96" y="310.43" width="87.47" height="87.47" transform="translate(-129.86 415.13) rotate(-47.78)"/></g></mask><clipPath id="clip-path-31"><path class="cls-19" d="M444.08,308.23c0,3.65.33,8.24.33,8.24l8.43,3.11,4.71-12.71c1.26-8,9.56-17,19.05-17h.29V276.31h-.54c-19.28,0-32.27,16.41-32.27,31.92"/></clipPath><clipPath id="clip-path-32"><path class="cls-19" d="M497.36,336c0,9.84-9.27,17.58-20.32,17.58l-.86,0v13.56l1.1,0c20.73,0,33.18-16.88,33.18-33.15a26.1,26.1,0,0,0-.56-6.66l-.29-1.26-7.55-2.79Z"/></clipPath><clipPath id="clip-path-33"><path class="cls-19" d="M444.29,340.8s4.7,25.95,32.31,26.37V353.61c-16.75-.27-18.89-16.39-18.89-16.39Z"/></clipPath><mask id="mask-7" x="419" y="310.91" width="82.9" height="82.58" maskUnits="userSpaceOnUse"><g class="cls-12"><rect class="cls-13" x="427.91" y="319.93" width="65.06" height="64.53" transform="translate(-91.27 174.25) rotate(-19.54)"/></g></mask><clipPath id="clip-path-34"><path class="cls-19" d="M476.6,276.31v13.56c17.79,0,19.53,15.67,19.53,15.67l13.57-3.36S505.21,276.46,476.6,276.31Z"/></clipPath><mask id="mask-8" x="448.7" y="246.66" width="88.91" height="88.53" maskUnits="userSpaceOnUse"><g class="cls-14"><rect class="cls-15" x="458.83" y="256.95" width="68.64" height="67.97" transform="translate(-72.62 202.96) rotate(-21.7)"/></g></mask><clipPath id="clip-path-35"><path class="cls-19" d="M568.6,353.62v13.56h0a45.19,45.19,0,0,0,25.32-7.72l-7.55-11.26a31.71,31.71,0,0,1-17.77,5.42"/></clipPath><mask id="mask-9" x="556.37" y="333.64" width="49.78" height="48.11" maskUnits="userSpaceOnUse"><g class="cls-16"><rect class="cls-17" x="560.61" y="338.2" width="41.31" height="38.97" transform="translate(-71.25 157.62) rotate(-14.56)"/></g></mask><clipPath id="clip-path-36"><path class="cls-19" d="M536.09,289.9l9.68,9.51a31.75,31.75,0,0,1,22.73-9.54V276.31h0a45.35,45.35,0,0,0-32.41,13.59"/></clipPath><clipPath id="clip-path-37"><path class="cls-19" d="M523.07,322.14h0l13.56-.12v-.27A31.75,31.75,0,0,1,546,299.21l-9.58-9.59a45.29,45.29,0,0,0-13.31,32.52"/></clipPath><clipPath id="clip-path-38"><path class="cls-19" d="M523.07,321.75h0a45.28,45.28,0,0,0,13.59,32.4l9.5-9.67a31.78,31.78,0,0,1-9.53-22.73Z"/></clipPath><clipPath id="clip-path-39"><path class="cls-19" d="M536.38,353.87a45.29,45.29,0,0,0,32.52,13.31l-.12-13.56h-.28A31.78,31.78,0,0,1,546,344.28Z"/></clipPath><clipPath id="clip-path-40"><path class="cls-19" d="M568.1,276.32l.12,13.55h.28a32,32,0,0,1,31.87,28.47H601V289.79l-.1-.1h0l-.12-.13h0a46.17,46.17,0,0,0-32.29-13.25h-.4"/></clipPath><clipPath id="clip-path-41"><rect class="cls-19" x="600.37" y="278.31" width="13.56" height="40.03"/></clipPath><mask id="mask-10" x="600.37" y="278.31" width="13.56" height="40.03" maskUnits="userSpaceOnUse"><rect class="cls-18" x="600.37" y="278.31" width="13.56" height="40.03"/></mask></defs><title>logo-endesa</title><path class="cls-19" d="M105,299a31.79,31.79,0,0,1,8.63,14.93h13.85a45.21,45.21,0,0,0-13-24.59Z"/><g class="cls-20"><rect class="cls-19" x="100.3" y="285.33" width="31.8" height="32.56" transform="matrix(0.86, -0.5, 0.5, 0.86, -135.92, 99.35)"/></g><path class="cls-19" d="M82.2,276.32l.12,13.55h.27a32,32,0,0,1,22.57,9.31l9.59-9.59a45.5,45.5,0,0,0-32.16-13.28H82.2"/><g class="cls-21"><rect class="cls-19" x="81.69" y="268.34" width="33.57" height="38.81" transform="translate(-205.07 268.82) rotate(-67.54)"/></g><path class="cls-19" d="M50.19,289.9l9.67,9.51a31.76,31.76,0,0,1,22.73-9.54V276.31h0a45.32,45.32,0,0,0-32.4,13.59"/><g class="cls-22"><rect class="cls-19" x="46.96" y="270.89" width="38.86" height="33.94" transform="translate(-107.46 49.02) rotate(-23.06)"/></g><path class="cls-19" d="M37.16,321.75c0,.13,0,.26,0,.39L50.72,322v-.27a31.76,31.76,0,0,1,9.34-22.54l-9.59-9.59a45.3,45.3,0,0,0-13.31,32.13"/><g class="cls-23"><rect class="cls-19" x="29.2" y="289.06" width="38.82" height="33.64" transform="translate(-252.44 233.11) rotate(-67.38)"/></g><path class="cls-19" d="M37.16,321.75h0a45.32,45.32,0,0,0,13.59,32.4l9.51-9.67a31.75,31.75,0,0,1-9.54-22.73Z"/><g class="cls-24"><rect class="cls-19" x="31.71" y="318.5" width="34" height="38.88" transform="translate(-129.32 46.6) rotate(-23.23)"/></g><path class="cls-19" d="M50.47,353.87a45.29,45.29,0,0,0,32.12,13.31H83l-.12-13.56h-.28a31.76,31.76,0,0,1-22.53-9.34Z"/><g class="cls-25"><rect class="cls-19" x="49.98" y="336.35" width="33.5" height="38.77" transform="translate(-287.78 282.8) rotate(-67.75)"/></g><path class="cls-19" d="M82.59,353.62v13.56a45.36,45.36,0,0,0,36.05-17.78l-10.76-8.25a31.81,31.81,0,0,1-25.29,12.47"/><g class="cls-26"><g class="cls-27"><rect class="cls-19" x="78.87" y="332.07" width="43.5" height="44.18" transform="translate(-229.28 190.68) rotate(-47.78)"/></g></g><rect class="cls-19" x="79.99" y="313.91" width="47.46" height="13.56"/><path class="cls-19" d="M208.87,318.34h0Z"/><g class="cls-28"><g class="cls-29"><rect class="cls-19" x="208.9" y="317.68" width="13.49" height="1.32" transform="translate(-30.07 22.59) rotate(-5.61)"/></g></g><rect class="cls-19" x="141" y="280.01" width="13.56" height="47.46"/><rect class="cls-19" x="208.87" y="318.34" width="13.56" height="47.46"/><path class="cls-19" d="M185.14,289.89a23.93,23.93,0,0,1,23.73,24v4.46h13.56v-4.46a37.51,37.51,0,0,0-37.29-37.55Z"/><g class="cls-30"><g class="cls-31"><rect class="cls-19" x="185.14" y="276.33" width="37.29" height="42.01"/></g></g><path class="cls-19" d="M154.56,288.71v27.53c2.05-10.89,11.69-26.35,30.18-26.35.34,0,.68,0,1,0V276.34h-1a42.77,42.77,0,0,0-30.19,12.38"/><g class="cls-32"><rect class="cls-19" x="154.56" y="276.33" width="31.19" height="39.91"/></g><path class="cls-19" d="M281.38,353.62v13.56h0a45.19,45.19,0,0,0,25.32-7.72l-7.56-11.26a31.65,31.65,0,0,1-17.76,5.42"/><g class="cls-33"><g class="cls-34"><rect class="cls-19" x="279.41" y="345.33" width="29.27" height="24.73" transform="translate(-80.48 85.41) rotate(-14.56)"/></g></g><path class="cls-19" d="M248.87,289.9l9.68,9.51a31.75,31.75,0,0,1,22.73-9.54V276.31h0a45.35,45.35,0,0,0-32.41,13.59"/><g class="cls-35"><rect class="cls-19" x="245.65" y="270.89" width="38.86" height="33.94" transform="translate(-91.58 126.85) rotate(-23.06)"/></g><path class="cls-19" d="M235.85,322.14h0l13.56-.12v-.27a31.75,31.75,0,0,1,9.33-22.54l-9.59-9.59a45.32,45.32,0,0,0-13.3,32.52"/><g class="cls-36"><rect class="cls-19" x="227.81" y="289.01" width="38.86" height="33.74" transform="translate(-130.2 416.46) rotate(-67.38)"/></g><path class="cls-19" d="M235.85,321.75h0a45.28,45.28,0,0,0,13.59,32.4l9.5-9.67a31.78,31.78,0,0,1-9.53-22.73Z"/><g class="cls-37"><rect class="cls-19" x="230.39" y="318.51" width="34" height="38.88" transform="translate(-113.22 124.95) rotate(-23.23)"/></g><path class="cls-19" d="M249.15,353.87a45.33,45.33,0,0,0,32.53,13.31l-.12-13.56h-.28a31.78,31.78,0,0,1-22.54-9.34Z"/><g class="cls-38"><rect class="cls-19" x="248.61" y="336.38" width="33.6" height="38.81" transform="translate(-164.37 466.73) rotate(-67.75)"/></g><path class="cls-19" d="M280.88,276.32l.12,13.55h.28a32,32,0,0,1,31.87,28.47h.66V289.79l-.1-.1h0l-.12-.13h0a46.17,46.17,0,0,0-32.29-13.25h-.4"/><g class="cls-39"><rect class="cls-19" x="270.83" y="270.85" width="53.04" height="52.96" transform="translate(-123.14 299.84) rotate(-45.34)"/></g><rect class="cls-19" x="313.15" y="318.34" width="13.56" height="47.46"/><g class="cls-40"><rect class="cls-19" x="313.15" y="246.48" width="13.56" height="71.86"/></g><path class="cls-19" d="M408,299a31.69,31.69,0,0,1,8.62,14.93h13.86a45.28,45.28,0,0,0-13-24.59Z"/><g class="cls-41"><rect class="cls-19" x="403.38" y="285.33" width="31.8" height="32.56" transform="translate(-94.8 251.77) rotate(-30.19)"/></g><path class="cls-19" d="M385.27,276.32l.12,13.55h.28a32,32,0,0,1,22.57,9.31l9.58-9.59a45.48,45.48,0,0,0-32.15-13.28h-.4"/><g class="cls-42"><rect class="cls-19" x="384.77" y="268.34" width="33.57" height="38.81" transform="translate(-17.78 548.91) rotate(-67.54)"/></g><path class="cls-19" d="M353.27,289.9l9.67,9.51a31.75,31.75,0,0,1,22.73-9.54V276.31h0a45.31,45.31,0,0,0-32.4,13.59"/><g class="cls-43"><rect class="cls-19" x="350.04" y="270.89" width="38.86" height="33.94" transform="translate(-83.24 167.75) rotate(-23.06)"/></g><path class="cls-19" d="M340.24,321.75v.39L353.8,322v-.27a31.8,31.8,0,0,1,9.33-22.54l-9.58-9.59a45.3,45.3,0,0,0-13.31,32.13"/><g class="cls-44"><rect class="cls-19" x="332.28" y="289.06" width="38.82" height="33.64" transform="translate(-65.93 512.87) rotate(-67.38)"/></g><path class="cls-19" d="M340.24,321.75h0a45.28,45.28,0,0,0,13.59,32.4l9.5-9.67a31.78,31.78,0,0,1-9.53-22.73Z"/><g class="cls-45"><rect class="cls-19" x="334.79" y="318.5" width="34" height="38.88" transform="translate(-104.76 166.12) rotate(-23.23)"/></g><path class="cls-19" d="M353.55,353.87a45.29,45.29,0,0,0,32.12,13.31h.4L386,353.62h-.28a31.78,31.78,0,0,1-22.54-9.34Z"/><g class="cls-46"><rect class="cls-19" x="353.06" y="336.35" width="33.5" height="38.77" transform="translate(-99.46 563.31) rotate(-67.75)"/></g><path class="cls-19" d="M385.67,353.62v13.56h0a45.38,45.38,0,0,0,36.05-17.78L411,341.15a31.84,31.84,0,0,1-25.29,12.47"/><g class="cls-47"><g class="cls-48"><rect class="cls-19" x="381.95" y="332.07" width="43.5" height="44.18" transform="translate(-129.86 415.13) rotate(-47.78)"/></g></g><rect class="cls-19" x="383.06" y="313.91" width="47.46" height="13.56"/><rect class="cls-19" x="470.67" y="297.72" width="13.56" height="47.46" transform="translate(10.37 657.8) rotate(-69.71)"/><path class="cls-19" d="M444.08,308.23c0,3.65.33,8.24.33,8.24l8.43,3.11,4.71-12.71c1.26-8,9.56-17,19.05-17h.29V276.31h-.54c-19.28,0-32.27,16.41-32.27,31.92"/><g class="cls-49"><rect class="cls-19" x="434.04" y="270.82" width="52.89" height="54.25" transform="translate(-84.11 363.06) rotate(-39.72)"/></g><path class="cls-19" d="M497.36,336c0,9.84-9.27,17.58-20.32,17.58l-.86,0v13.56l1.1,0c20.73,0,33.18-16.88,33.18-33.15a26.1,26.1,0,0,0-.56-6.66l-.29-1.26-7.55-2.79Z"/><g class="cls-50"><rect class="cls-19" x="473.1" y="321.01" width="40.44" height="48.48" transform="translate(-46.03 77.55) rotate(-8.59)"/></g><path class="cls-19" d="M444.29,340.8s4.7,25.95,32.31,26.37V353.61c-16.75-.27-18.89-16.39-18.89-16.39Z"/><g class="cls-51"><g class="cls-52"><rect class="cls-19" x="440.21" y="332.68" width="40.46" height="39.03" transform="translate(-91.27 174.25) rotate(-19.54)"/></g></g><path class="cls-19" d="M476.6,276.31v13.56c17.79,0,19.53,15.67,19.53,15.67l13.57-3.36S505.21,276.46,476.6,276.31Z"/><g class="cls-53"><g class="cls-54"><rect class="cls-19" x="472.37" y="271.23" width="41.57" height="39.4" transform="translate(-72.62 202.96) rotate(-21.7)"/></g></g><path class="cls-19" d="M568.6,353.62v13.56h0a45.19,45.19,0,0,0,25.32-7.72l-7.55-11.26a31.71,31.71,0,0,1-17.77,5.42"/><g class="cls-55"><g class="cls-56"><rect class="cls-19" x="566.63" y="345.33" width="29.27" height="24.73" transform="translate(-71.25 157.62) rotate(-14.56)"/></g></g><path class="cls-19" d="M536.09,289.9l9.68,9.51a31.75,31.75,0,0,1,22.73-9.54V276.31h0a45.35,45.35,0,0,0-32.41,13.59"/><g class="cls-57"><rect class="cls-19" x="532.87" y="270.89" width="38.86" height="33.94" transform="translate(-68.62 239.37) rotate(-23.06)"/></g><path class="cls-19" d="M523.07,322.14h0l13.56-.12v-.27A31.75,31.75,0,0,1,546,299.21l-9.58-9.59a45.29,45.29,0,0,0-13.31,32.52"/><g class="cls-58"><rect class="cls-19" x="515.03" y="289.01" width="38.86" height="33.74" transform="translate(46.55 681.58) rotate(-67.38)"/></g><path class="cls-19" d="M523.07,321.75h0a45.28,45.28,0,0,0,13.59,32.4l9.5-9.67a31.78,31.78,0,0,1-9.53-22.73Z"/><g class="cls-59"><rect class="cls-19" x="517.61" y="318.5" width="34" height="38.88" transform="translate(-89.95 238.22) rotate(-23.23)"/></g><path class="cls-19" d="M536.38,353.87a45.29,45.29,0,0,0,32.52,13.31l-.12-13.56h-.28A31.78,31.78,0,0,1,546,344.28Z"/><g class="cls-60"><rect class="cls-19" x="535.84" y="336.38" width="33.6" height="38.81" transform="translate(14.1 732.56) rotate(-67.75)"/></g><path class="cls-19" d="M568.1,276.32l.12,13.55h.28a32,32,0,0,1,31.87,28.47H601V289.79l-.1-.1h0l-.12-.13h0a46.17,46.17,0,0,0-32.29-13.25h-.4"/><g class="cls-61"><rect class="cls-19" x="558.05" y="270.85" width="53.04" height="52.96" transform="translate(-37.81 504.14) rotate(-45.34)"/></g><rect class="cls-19" x="600.37" y="278.31" width="13.56" height="40.03"/><g class="cls-62"><g class="cls-63"><rect class="cls-19" x="600.37" y="278.31" width="13.56" height="40.03"/></g></g><rect class="cls-19" x="600.37" y="318.34" width="13.56" height="47.46"/></svg>