<svg id="Layer_1" data-name="Layer 1" xmlns="http://www.w3.org/2000/svg" viewBox="0 0 647.86 647.86"><defs><style>.cls-1{fill:#333;}</style></defs><title>logo-meo</title><path class="cls-1" d="M109.93,375c5.06-33.93,10.48-67.8,15-101.8,1.37-10.4,5.72-13.88,15.62-12.23,7.57,1.27,11.3,4.11,10,12.93-5.15,35-9.51,70.1-14.43,105.12-2.14,15.2-3.8,15.73-26.15,10.95Z"/><path class="cls-1" d="M467.38,258.25c39,0,70.64,31.43,70.73,70.14A70.57,70.57,0,0,1,467.8,399c-39.95.22-71.53-31.19-71.27-70.89C396.78,289.06,428.08,258.21,467.38,258.25Zm44.72,70A44.51,44.51,0,0,0,467.16,284c-24.72.07-45.06,19.92-45.32,44.25-.27,24.79,20.76,45.36,46,45A44.53,44.53,0,0,0,512.1,328.24Z"/><path class="cls-1" d="M192.6,329.88c0,17.43-.38,34.87.15,52.28.31,10.06-4.58,13.38-13.51,13.15-8.43-.21-12.18-4-12.08-13q.59-53.77,0-107.55c-.12-9.7,4.91-12.2,12.76-12.27S193,265,192.75,274.61C192.24,293,192.6,311.46,192.6,329.88Z"/><path class="cls-1" d="M227.3,261.12c1,1.06,5.77,3.87,6.3,7.35,5.77,37.76,11.18,75.58,15.52,113.52.34,3.05-8,9.8-12.4,9.89-4.1.08-11.34-5.93-12-10.12-5-30.33-8.74-60.88-12.88-91.36-.6-4.42-.82-8.95-1.94-13.24C206.71,265.09,212,260.43,227.3,261.12Z"/><path class="cls-1" d="M367.39,260.34c2.09,3.33,7,7.8,7.15,12.44.16,4.11-4.38,11.57-7.78,12.15-27.36,4.69-55,8-82.45,12-9,1.32-11.32-4.1-12.36-11s-.34-12.61,8.86-13.77C308.36,268.66,335.86,264.67,367.39,260.34Z"/><path class="cls-1" d="M285.59,359.6c27.15,3.54,52.7,7,78.29,10.12,9.49,1.15,12.84,5.75,11,15.11-1.62,8.29-5.13,11.56-14.31,10.09q-38.16-6.15-76.61-10.48c-9.51-1.05-13.42-4.47-12.18-14S278,357.45,285.59,359.6Z"/><path class="cls-1" d="M324,340c-12.93,0-25.88-.31-38.8.11-8.57.29-11.49-3.72-11.4-11.62s1.39-13.42,11.44-13.26q40.29.63,80.59,0c10.14-.17,11.28,5.58,11.4,13.28.11,7.89-2.88,11.87-11.44,11.61C351.89,339.66,338,340,324,340Z"/></svg>