<svg id="Layer_1" data-name="Layer 1" xmlns="http://www.w3.org/2000/svg" viewBox="0 0 647.86 647.86"><defs><style>.cls-1{fill:#333;}.cls-2{fill:#231815;}</style></defs><title>logo-turismo</title><path class="cls-1" d="M476,318.62c5.53,2.46,5.07,8.3,9.83,11.22,5.38,9.06,11.52,19.51,6.61,31,3.38,15.83-10.91,21.82-17.21,33.95-3.84,1.54-6.3,6.92-11.68,4.61-3.07,2.46-7.52,2.92-11.06,2.15-1.38,2.62-4.61.16-6.45,1.69-23.35,2-37.64-18.12-53.16-32.57-2.3-2.76-5.53-2.91-8.14-6-3.84-.15-6.6-4.76-10.75-2.3-3.07,1.84-6.15,4-9.83,4.15-.77,2.61-4.46.46-4,3.68-7.22,1.39-4.15,12.6-13.06,9.84-3.38,1.22-4.3-2.92-6.91-3.38.61-3.54-.77-5.38.92-8.3,5.22-2.61,10.45-6.91,15.06-9.68.76-2.61,4.91-2.61,7.22-4.3l2.61-1.84c7.53.92,16.13-.93,22.28,2.76,7.37,2.61,14.74,10.14,20.58,14.75,5.38,7.37,12.6,16.9,21.05,18.74,2,5.23,9.83,2.92,14.59,4.3,1.08-.15,2.46-1.69,3.23-.46,2.92-1.07,7.22,0,9.06-2.92,3.69.31,6.15-2.91,9.68-3.53.77-.77.92-2.61,2.61-1.84,3.69-3.84,10-7.53,10.14-13.68,3.23-2.61-.3-6,.93-9.52,3.07-10.91-1.69-20.43-6.61-29-4.3-2.3-8.76-6.14-13.83-8.14-9.83-.61-21.81-1.23-26.42,6.15-.31,5.68-8.14,4.3-5.53,11.36-1.38,8,5.84,10.45,9.68,15.67,6.14-1.84,8.45,4.46,14.59,2.46,3.54-1.69,5.23-5.22,7.22-8.14-.92-2.46-2.3-4.76-1.69-7.83,3.23-.16,1.39-4.15,4.61-4.31s1.69,3.38,3.69,4.61c2.92,3.23,2.61,9.53,1.38,14.14-2.15.76-1.07,2.92-1.38,4.45-3.84,5.07-9.07,8.91-15.06,9.68-11.83-1.23-21.2-5.38-28.27-15.67-3.22-4.15-7.06-10.14-4.6-16.13l1.38-.62c-2.61-2.61,2.46-4.14.92-6.29,3.23-8,9.22-16,18-18.59,5.68,2.15,10-3.23,16-2A176.93,176.93,0,0,1,476,318.62"/><path class="cls-1" d="M333.12,381.77c6.92,6.29,18,6.91,26.89,4.45,7.68-2.15,11.67-9.22,18.59-13.36,2.3,0,3.53,2.45,5.68,2.61-6.76,8-11.67,16.59-21.81,19.82-7.07,1.22-15.37,3.22-22.43.61-6-.31-8.91-3.84-14.14-6.3v-1.23a72.35,72.35,0,0,1-10.29-12.13c-2.61-1.85-2.61-3.85-5.07-5.07-1.08-4.31-5.69-7.53-8.91-10.3-3.84-4-10.6-3.07-16.59-3.22-11.07-.31-15.06,13.36-24.28,16-1.23,2.46-4.61,2.15-4.45,5.23,10.29,4.45,14-7.68,21.81-9.68,9.53-1.54,17.21,3.84,21.66,11.52,2.16,3.53,7.69,6.76,6.46,12.14a7.49,7.49,0,0,1-5.23,1.23,117.24,117.24,0,0,1-16.59-14.75c-4.15-.31-6.76,2.76-10.91,2.61-4.76,2.46-6.76,8-12.75,7.68-5.53,0-10.14-2.3-15.36-3.23-1.38-2.3-4.15-.76-6.3-1.22-4-5.38-6-12.76-8.91-19.21-2-1.69-1.23-4.3-3.84-5.68-2.92-1.54-6.61,1.69-7.07-3.23-10.29-.46-16.59,7.22-20.43,15.36-.15,5.38.61,11.53,5.68,13.37,2.77,3.53,8.61,1.69,9.53,6.45C217,391,221,392.06,223,389a12.7,12.7,0,0,0-3.84-11.53c-5.22-3.22-8,3.08-12.75,2.46a2.07,2.07,0,0,1-3.23.62c-2.92-.77.46-2.92-.61-5.07,4.15-7.53,13.67-6.92,21-5.84,7.07,2.15,6.76,11.21,11.53,15.36,1.84,7.84-5.53,11.37-9.53,16-7.37,6.45-14.9-1.38-23-.62-4.3-.76-7.68-3.37-10.91-7.06-4.76-8-4.92-20-2-28.73,1.69-.15,2-1.84,2-3.23,8.3-8.14,20.12-15.05,33.34-12.13,13.06,4.14,13.36,19.05,21,28.11.77.77,1.39,1.69,2.62,1.23s-1.39-3.53,1.23-2.61c2-4.46,3.84-9.83,8.29-12.75.15-2.62,3.07-3.84,4.46-5.84,2.92-.16,4.14-5.53,8.29-4.46,2.92-5.83,10.3-2.92,14.75-6.3,24.43-3.53,33.8,21.05,47.47,35.19"/><path class="cls-1" d="M357.86,106.15c1.07,7.53,6,14.14,3.22,22.28-1.84,1.08-1.69,3.53-2.61,4.46-1.69,3.38-1.38,7.52-5.07,10.13-1.69,4.61-7.22,7.07-9.68,10.3-9.52,7.68-22.58,10.14-35.18,7.07-5.68-.16-7.07-1.39-10.75-4.15A83.26,83.26,0,0,0,291,149c-1.85-1.69-1.54-5.53-2.31-9.22-1.69-4.3,0-7.68,0-11.52A30.8,30.8,0,0,1,283,115.53c2.3-7.38,9.52-10,15-14.91,10.45-9.06,25.66-19.82,41.18-12,8.14,4,12.9,10.29,18.59,17.51"/><path class="cls-1" d="M401.49,99.85a139.32,139.32,0,0,1,10.91,13.37c3.53.77,5.22-3.23,8.29-3.84,2.77-2.61,6-6.76,10.29-7.07,4.15.77,5.54,4,8.91,6.46.16,2.91,2.77,5.37,4.46,7.06,7.07-1.53,14-5.22,21.35-5.84,4.31,5.69-.15,13.52-1.53,19.21-2,7.07-6,11.83-8.91,18.59.15,3.68-2.92,6-4.46,8.91A21.17,21.17,0,0,1,445,168.22c.62,3.53-3.68,3.69-3.22,6.91-8.14,7.38-8.91,17.67-17.21,25.05-3.22,5.68-8.6,9.37-12.75,14.13-3.69,6-10.29,6.14-14.75,12.75-2.92.31-4.45,4-7.06,5.07-4.77,6.3.92,12.91,0,19.82,4.6,7.07-.31,14.9-.62,22.43-1.38,3.38-3.69,4.76-5.07,8.29.31,8.45,11.37,14.14,15.82,15.21,1.69.31,2.16.62,2.77,1.69,0,1.39-5.22,3.23-7.83,7.38.92,3.84,7.37,5.07,8.29,7.53-2.15,3.07-8.29,3.53-9.52,6.14,2.3,2.92,9.52,3.23,12,5.69.31,3.38-4.15,2.45-5.69,4.3-13.21,2.61-27.49,2.61-39.63-2-9.83-1.38-19.21,2.15-28.88,3.23-4.15-.77-4.31,2.15-8.15.15-.76,0-1.38-.61-2.61-.15-1.84,2.45-7.22-5.23-7.07-8.91,2-2.92-1.68-8.61,3.23-9.68,2.77-4.3,5.53-10.3,2.61-15.37-8.14-7.22-5.37-18.89-10.14-27.5.77-7.37-1.07-15.21,3.23-22.43-.46-1.22.92-2.3,1.38-2.61,4.15-11.21,15.21-20.58,12.75-33.8-1.69-3.22,0-4-.76-6.3-.77-3.84-2.62-5.37-.47-9.83,3.23-14.59,20-16.74,30.73-24.89,12.14-2.61,18.13-16.28,24.27-25.65a5.93,5.93,0,0,1,1.23-4.46c6.46-5.37,5.38-16.13,10.91-23-.61-2.46.92-4,1.84-5.69a48.36,48.36,0,0,1,3.69-14c1.38-.15,2.46.62,3.23,2.15"/><path class="cls-1" d="M227.89,121.21c9.67,10.29,14.44,27.35,26.27,35.18,4,6.45,11.21,10.45,18.59,11.52,4,5.07,12,2.92,16.59,7.68,5.68-1.69,6.3,5.07,11.52,4.46,2.3,3.38,5.68,5.84,7.07,10.29,2,12.91-8.45,20.44-8.3,32.57-6.45,13.37,1.38,26.89.62,40.87a16.94,16.94,0,0,1-1.85,9.68c-.15,12-8.14,20-15.36,28.11-2.61,8.3,3.23,19.82-4.46,26.27-3.53,0-6,2.61-9.52,2.61-6,2-14,1.39-20.43.62-2.16-3.07-7.22.77-8.91-3.23-3.08-2.15-8.3-1.23-11.53-1.23-8-.77-15.05.31-24-.77a13.93,13.93,0,0,1-5.69.16c-2.76-1.54.77-4.92,2.77-6.15,3.38-1.84,3.07-1.69,4.45-2.92.77-3.53-6.91-2.91-6-6.45,2.46-1.69,8.76-3.53,8-7.37-1.38-4.61-8.14-5.38-8.91-9.07,6-5.07,15.36-6.76,23.81-7.06.92-2.62,4.61-1.23,4.46-3.69.92-2.61,4-5.22,1.84-8.45-1.07-1.54.46-2.92-1.38-4.46a18.77,18.77,0,0,0,.61-7.68c2.46-2.76-1.07-5.68,2-8.29-.61-6,3.53-11.22,3.84-15.37-.46-2.76,1.23-1.69,2.61-5.37,1.39-3.84,3.23-4.3,3.84-6.61s-.46-13.52-7.06-16.9c-7.07-2.76-10-10.14-15.37-14.13-5.37-7.68-7.68-18.75-15.36-24.89-.77-6.61-3.69-7.22-4.76-14.44-2.15-3.07-3.69-8.91-4.46-11.22,4.15-3.68,12.14,4.3,14.6-.15-.16-2.77-1.23-9.83,1.53-10.91,4.77.16,10.3,2.77,13.37,1.08,3.53-2.92-.61-14.29,4.92-14.29"/><polygon class="cls-2" points="178.98 446.31 167.75 446.31 167.75 442.25 195.22 442.25 195.22 446.31 183.89 446.31 183.89 479.35 178.98 479.35 178.98 446.31"/><path class="cls-2" d="M204.57,442.25v22c0,8.3,3.68,11.8,8.68,11.8,5.48,0,9.07-3.68,9.07-11.8v-22h4.81v21.62c0,11.42-6,16.05-14.06,16.05-7.65,0-13.32-4.34-13.32-15.86V442.15h4.82Z"/><path class="cls-2" d="M235.91,442.72a52.24,52.24,0,0,1,9.16-.76c5.1,0,8.4,1,10.77,3a9.26,9.26,0,0,1,2.92,7.08,9.73,9.73,0,0,1-7,9.44v.19c2.83,1,4.53,3.68,5.47,7.46,1.23,5.19,2.08,8.78,2.83,10.19h-5c-.66-1.13-1.42-4.25-2.45-8.87-1.14-5.1-3.12-7.08-7.46-7.18h-4.54v16.05h-4.81V442.72Zm4.72,16.9h4.91c5.1,0,8.41-2.83,8.41-7.08,0-4.82-3.5-6.89-8.59-6.89a16.23,16.23,0,0,0-4.73.47Z"/><rect class="cls-2" x="265.94" y="442.25" width="4.82" height="37.11"/><path class="cls-2" d="M278.87,473.5a17.08,17.08,0,0,0,8.59,2.45c4.91,0,7.75-2.55,7.75-6.32,0-3.5-2-5.48-7-7.37-6-2.17-9.82-5.28-9.82-10.48,0-5.76,4.82-10.1,12-10.1a17.14,17.14,0,0,1,8.22,1.79l-1.33,3.88a14.75,14.75,0,0,0-7.08-1.8c-5.1,0-7,3-7,5.57,0,3.5,2.26,5.2,7.36,7.18,6.33,2.45,9.44,5.47,9.44,10.95C300,475,295.77,480,287,480a19,19,0,0,1-9.44-2.45Z"/><path class="cls-2" d="M338.45,463.11c-.28-5.19-.57-11.42-.57-16.05h-.19c-1.22,4.35-2.83,9-4.72,14.07l-6.51,18h-3.68l-6-17.65c-1.79-5.29-3.21-10-4.25-14.45h-.09c-.09,4.63-.38,10.86-.76,16.43l-.94,16h-4.63l2.65-37.11h6.13l6.33,17.94c1.51,4.53,2.83,8.69,3.78,12.46h.19c.94-3.68,2.26-7.83,3.87-12.46l6.61-17.94h6.13l2.36,37.11h-4.72Z"/><path class="cls-2" d="M383.67,460.47c0,12.75-7.74,19.54-17.27,19.54-9.82,0-16.72-7.55-16.72-18.88,0-11.8,7.37-19.54,17.28-19.54,10.1.09,16.71,7.83,16.71,18.88m-28.79.57c0,7.93,4.25,15,11.8,15s11.89-7,11.89-15.39c0-7.37-3.87-15.11-11.8-15.11s-11.89,7.37-11.89,15.49"/><path class="cls-2" d="M402.46,442.72a65.43,65.43,0,0,1,10.2-.76c6.89,0,11.8,1.61,15,4.63s5.19,7.37,5.19,13.31S431,471,427.48,474.35s-9.16,5.38-16.43,5.38a74.48,74.48,0,0,1-8.68-.47V442.72Zm4.82,32.86a35.06,35.06,0,0,0,4.81.28c10.2,0,15.77-5.76,15.77-15.77.09-8.78-4.91-14.35-15-14.35a28.36,28.36,0,0,0-5.67.47v29.37Z"/><polygon class="cls-2" points="458.83 461.98 444.38 461.98 444.38 475.39 460.43 475.39 460.43 479.35 439.57 479.35 439.57 442.25 459.68 442.25 459.68 446.31 444.38 446.31 444.38 458.01 458.83 458.01 458.83 461.98"/><path class="cls-2" d="M143.86,511.93a91.43,91.43,0,0,1,15-1c6.89,0,11.71,1.32,15,4a14.33,14.33,0,0,1,5.29,11.33,15.84,15.84,0,0,1-4.53,11.71c-3.78,3.59-9.44,5.19-16,5.19-1.41,0-2.74-.09-3.77-.19v17.57h-11Zm11,22.37a18.48,18.48,0,0,0,3.68.29c5.85,0,9.53-3,9.53-8,0-4.53-3.11-7.27-8.68-7.27a16.34,16.34,0,0,0-4.63.47V534.3Z"/><path class="cls-2" d="M231.57,535.34c0,16.15-9.72,25.87-24.08,25.87-14.54,0-23.13-11.05-23.13-25,0-14.73,9.44-25.77,23.89-25.77,15.11.09,23.32,11.42,23.32,24.92m-35.5.66c0,9.63,4.53,16.43,12,16.43s11.8-7.18,11.8-16.71c0-8.78-4.25-16.43-11.89-16.43s-11.9,7.18-11.9,16.71"/><path class="cls-2" d="M239.22,512A99,99,0,0,1,254,511c7.27,0,12.37,1.13,15.86,3.87,2.93,2.36,4.54,5.76,4.54,10.29a13,13,0,0,1-8.69,12.09v.19c3.4,1.41,5.29,4.62,6.51,9.16,1.51,5.57,3,12,4,13.88H264.9c-.85-1.52-2-5.39-3.4-11.43s-3.4-7.84-7.93-7.84h-3.31v19.36h-11Zm10.95,21.05h4.34c5.57,0,8.78-2.73,8.78-7.08,0-4.53-3-6.79-8.21-6.89a23.3,23.3,0,0,0-5,.38v13.59Z"/><polygon class="cls-2" points="292.28 520.61 279.06 520.61 279.06 511.36 316.83 511.36 316.83 520.61 303.42 520.61 303.42 560.46 292.28 560.46 292.28 520.61"/><path class="cls-2" d="M334.2,511.36v28.32c0,8.5,3.21,12.75,8.87,12.75,5.86,0,9.07-4.06,9.07-12.75V511.36h11.05v27.57c0,15.2-7.65,22.38-20.49,22.38-12.37,0-19.74-6.9-19.74-22.57V511.36Z"/><path class="cls-2" d="M414.17,558.19a56.17,56.17,0,0,1-16.43,2.74c-9,0-15.48-2.27-20-6.61s-7-10.67-6.9-17.85c.1-16.33,12-25.68,28-25.68,6.33,0,11.24,1.23,13.6,2.46l-2.36,8.87a27.64,27.64,0,0,0-11.42-2.07c-9.26,0-16.24,5.28-16.24,15.86,0,10.1,6.32,16.14,15.48,16.14a14.08,14.08,0,0,0,5.48-.75V541h-7.56v-8.69h18.32v25.87Z"/><path class="cls-2" d="M434.66,547.8l-3.5,12.56H419.65l15-49.1H449.2l15.2,49.1h-12l-3.78-12.56Zm12.46-8.3-3-10.39c-.85-2.93-1.7-6.52-2.46-9.44h-.18c-.76,2.92-1.42,6.61-2.27,9.44l-2.93,10.39Z"/><polygon class="cls-2" points="471.38 511.36 482.53 511.36 482.53 551.11 502.07 551.11 502.07 560.46 471.38 560.46 471.38 511.36"/></svg>