<svg id="Layer_1" data-name="Layer 1" xmlns="http://www.w3.org/2000/svg" viewBox="0 0 647.86 647.86"><defs><style>.cls-1{fill:#333;fill-rule:evenodd;}</style></defs><title>logo-vichy</title><polygon class="cls-1" points="88.65 267.14 107.3 267.14 142.66 346.22 176.73 267.14 192.81 267.14 147.16 366.15 135.59 366.15 88.65 267.14 88.65 267.14"/><polygon class="cls-1" points="209.52 366.15 225.59 366.15 225.59 267.14 209.52 267.14 209.52 366.15 209.52 366.15"/><polygon class="cls-1" points="443.55 366.8 427.47 366.8 427.47 321.79 370.9 321.79 370.9 366.8 354.18 366.8 354.18 267.79 370.9 267.79 370.9 309.58 427.47 309.58 427.47 267.79 443.55 267.79 443.55 366.8 443.55 366.8"/><polygon class="cls-1" points="457.05 266.5 476.98 266.5 510.41 313.44 541.91 267.14 559.27 267.14 518.77 326.29 518.77 366.15 501.41 366.15 501.41 326.29 457.05 266.5 457.05 266.5"/><path class="cls-1" d="M336.82,280V267.79a119.64,119.64,0,0,0-28.93-3.86c-26.36,0-52.08,10.93-63,35.36-6.43,12.86-3.85,32.15,4.5,44.36,21.22,27,59.8,27.65,90.66,19.29V351.37c-1.29,0-1.29,0-1.93.64-22.51,7.72-48.22,11.57-70.08-11.57-8.36-10.29-10.93-25.08-7.07-37.93,7.07-19.29,24.43-29.58,45.64-27.65A85.7,85.7,0,0,1,336.82,280Z"/><polygon class="cls-1" points="136.87 406.66 142.01 406.66 142.01 408.59 134.3 408.59 134.3 388.66 136.87 388.66 136.87 406.66 136.87 406.66"/><path class="cls-1" d="M174.8,400.87h-6.42l3.21-8.36,3.21,8.36Zm1.29,1.93,1.93,5.79h2.57l-9-21.22-9,21.22h2.57l1.93-5.79Z"/><path class="cls-1" d="M205,398.94H207c2.57,0,5.14.65,5.14,3.86s-2.57,3.86-4.5,3.86H205v-7.72Zm-1.93,9.65h4.5c3.86,0,7.08-1.93,7.08-5.79a4.89,4.89,0,0,0-3.86-5.14c1.28-.65,1.93-1.93,1.93-3.86,0-3.86-3.22-5.14-6.43-5.14h-3.22v19.93Zm1.93-18h.64c3.22,0,5.15,0,5.15,3.21s-2.57,3.21-5.15,3.21H205v-6.42Z"/><path class="cls-1" d="M247.45,389.94c4.5,0,7.72,3.86,7.72,8.36s-3.22,8.36-7.72,8.36a8.51,8.51,0,0,1-8.35-8.36,8.1,8.1,0,0,1,8.35-8.36Zm0-1.93c-5.78,0-10.93,4.5-10.93,10.29s5.15,10.29,10.93,10.29a10.29,10.29,0,1,0,0-20.58Z"/><path class="cls-1" d="M280.24,390.59h.65c2.57,0,5.14,0,5.14,3.85,0,2.57-2.57,3.22-5.14,3.22h-.65v-7.07Zm0,9h.65l5.78,9h2.57l-6.42-9C286,398.94,288,397,288,393.8c0-4.5-3.22-5.14-7.07-5.14h-3.22v19.93h2.57v-9Z"/><path class="cls-1" d="M320.75,400.87h-7.07l3.85-8.36,3.22,8.36Zm.64,1.93,2.57,5.79h2.57l-9-21.22-9.64,21.22h2.57L313,402.8Z"/><polygon class="cls-1" points="350.32 408.59 347.75 408.59 347.75 390.59 343.25 390.59 343.25 388.66 354.82 388.66 354.82 390.59 350.32 390.59 350.32 408.59 350.32 408.59"/><path class="cls-1" d="M383.11,389.94a8.36,8.36,0,0,1,0,16.72c-4.5,0-7.71-3.86-7.71-8.36s3.21-8.36,7.71-8.36Zm0-1.93a10.29,10.29,0,0,0,0,20.58c5.79,0,10.93-4.5,10.93-10.29S388.9,388,383.11,388Z"/><polygon class="cls-1" points="415.9 388.66 418.47 388.66 418.47 408.59 415.9 408.59 415.9 388.66 415.9 388.66"/><path class="cls-1" d="M444.83,390.59h.65c3.21,0,5.14,0,5.14,3.85,0,2.57-2.57,3.22-4.5,3.22h-1.29v-7.07Zm0,9h.65l6.42,9h2.58l-6.43-9c3.21-.65,5.14-2.58,5.14-5.79,0-4.5-3.86-5.14-7.71-5.14H442.9v19.93h1.93v-9Z"/><polygon class="cls-1" points="476.34 388.66 487.26 388.66 487.26 390.59 478.91 390.59 478.91 396.37 486.62 396.37 486.62 398.3 478.91 398.3 478.91 406.66 487.26 406.66 487.26 408.59 476.34 408.59 476.34 388.66 476.34 388.66"/><path class="cls-1" d="M516.84,392.51c-1.29-1.28-1.93-2.57-3.86-2.57a3,3,0,0,0-3.21,3.22c0,1.93,1.93,2.57,3.21,3.21l1.29.64c2.57,1.29,4.5,2.58,4.5,5.79a5.76,5.76,0,0,1-5.79,5.79,6.27,6.27,0,0,1-6.43-5.15l1.93-.64c.64,2.57,1.93,3.86,4.5,3.86a3.71,3.71,0,0,0,3.86-3.86c0-2.57-1.93-3.21-3.86-3.86l-1.28-.64c-1.93-1.29-3.86-1.93-3.86-5.14A5.07,5.07,0,0,1,513,388c2.57,0,4.5,1.29,5.15,3.22l-1.29,1.28Z"/></svg>