<svg id="Layer_1" data-name="Layer 1" xmlns="http://www.w3.org/2000/svg" viewBox="0 0 647.86 647.86"><defs><style>.cls-1{fill:#333;}</style></defs><title>logo-lidl</title><path class="cls-1" d="M252.74,388.52l-35.35-36.17c-.51.41-.92.7-1.29,1-3.25,3.12-6.47,6.28-9.76,9.37a3,3,0,0,0-1,2.41c0,2.55,0,5.1,0,7.65,0,1.95-.14,2.08-2.16,2.09H96.33c-3.84,0-3.43.24-3.44-3.53,0-4,0-8,0-12,0-.71.07-1.41.12-2.28.83-.07,1.53-.16,2.22-.16,2.68,0,5.36,0,8,0,1.91,0,2.12-.23,2.13-2.18,0-4.9,0-9.8,0-14.71q0-21.36,0-42.74c0-.9-.09-1.79-.14-2.85-.86-.05-1.56-.12-2.25-.12-2.68,0-5.36,0-8,0-1.58,0-1.77-.17-1.77-1.63,0-5,0-9.93.06-14.9a6.37,6.37,0,0,1,.18-1c.8-.06,1.61-.16,2.43-.16h72c2.07,0,2.12.05,2.13,2.06q0,6.76,0,13.53c0,.58-.08,1.16-.13,1.91-3.84.47-7.63,0-11.26.28a2.08,2.08,0,0,0-.24.22c-.05.05-.11.1-.12.15a9.28,9.28,0,0,0-.12,1.17q0,29,0,58a4.54,4.54,0,0,0,.23.82c.73-.31,1.43-.54,2.08-.89q9.56-5.2,19.09-10.43l23.56-12.88c.56-.3,1.14-.58,2-1,.08.74.19,1.28.2,1.83,0,3.07,0,6.14,0,9.21,0,.68.15,1.35.22,2l.44.14,51.18-52,23.08,23,23,22.87c.54-.48,1-.84,1.4-1.25,6.68-6.62,13.35-13.27,20.07-19.86a3.5,3.5,0,0,0,1.18-2.73c-.06-5.75-.05-11.5-.07-17.26v-.19c-.06-2-.19-2.14-2.14-2.15-3,0-6,0-9,0h-2c-.53-1.62-.6-14-.12-16.14.64-.05,1.33-.14,2-.14,25.88,0,51.76,0,77.65,0a42.43,42.43,0,0,1,18.26,3.71c9.35,4.35,15.63,11.61,19.52,21a60.73,60.73,0,0,1,4,18.47,63.06,63.06,0,0,1-2.11,22.1c-2.82,10.17-8.28,18.57-17.23,24.44a38,38,0,0,1-17.35,6.15,63.17,63.17,0,0,1-6.44.36q-37.75,0-75.49,0H313c-.51-1.62-.64-13.62-.21-16.44a17.5,17.5,0,0,1,2-.19c3,0,6,0,9,0,2.11,0,2.18-.09,2.18-2.24q0-8.14,0-16.28c0-.56-.07-1.13-.11-1.62a2.71,2.71,0,0,0-.33-.13.28.28,0,0,0-.18,0l-.34.19a3.57,3.57,0,0,0-.28.27l-.7.69-72.92,72.67a1.78,1.78,0,0,1-.31.23l-.07,0-10.16-10.35Zm123.14-45.29a4,4,0,0,0,.88.2c6.76-.05,12.87-3.46,15.32-10.85a28.38,28.38,0,0,0,.7-15.26c-1.66-7.52-6.08-12.39-13.95-13.69-2.7-.45-3-.27-3,2.42q0,17.63,0,35.25C375.79,341.93,375.85,342.56,375.88,343.23Z"/><path class="cls-1" d="M437.41,355.93c.82-.05,1.52-.13,2.22-.13,2.61,0,5.22,0,7.84,0,2.23,0,2.34-.13,2.35-2.31,0-4,0-8,0-12q0-22.74,0-45.48v-2.68c-.93-.06-1.62-.14-2.31-.14-2.75,0-5.49,0-8.24,0-1.47,0-1.6-.12-1.61-1.55q0-7.25,0-14.5c0-1.45.15-1.56,1.56-1.63.39,0,.78,0,1.17,0h71.36c2.84,0,2.85,0,2.85,2.93q0,6.38,0,12.75c0,1.94-.06,2-2,2-2.55,0-5.09,0-7.64,0h-2.06c-.58,1.63-.65,58.53-.06,60.63,5.27-2.65,10.33-5.59,15.47-8.37s10.31-5.63,15.47-8.45l15.63-8.54c.09.81.19,1.3.19,1.79,0,3.14,0,6.27,0,9.41q.12,15.48.25,31v1.17c0,2.16,0,2.17-2.19,2.17H439.34c-2.07,0-2.09,0-2.1-2.08q0-7.05,0-14.11C437.25,357.23,437.35,356.66,437.41,355.93Z"/><path class="cls-1" d="M220.31,257.4a30.17,30.17,0,1,1,60.33-.09c.08,15.65-12.47,30.41-30.23,30.34A30.11,30.11,0,0,1,220.31,257.4Z"/></svg>