<svg id="Layer_1" data-name="Layer 1" xmlns="http://www.w3.org/2000/svg" viewBox="0 0 647.86 647.86"><defs><style>.cls-1{fill:#333;}</style></defs><title>logo-nos</title><g id="g28"><path id="path30" class="cls-1" d="M125.76,346.1c-7.87-10.32-15.23-20.32-22.78-30.65l-.33.16c.28,11.4.57,22.95.68,34.52l.45,44.42-25.26.25L77.31,275.25l24.77-.25,36.32,47.86c7.87,10.31,15.23,20.32,22.78,30.65l.32-.17c-.29-11.39-.55-22.95-.67-34.51l-.45-44.42,25.26-.25,1.21,119.55-24.78.25Z"/></g><g id="g32"><path id="path34" class="cls-1" d="M495,357.57c13,8.13,28.18,11.61,37.6,11.52,9.58-.1,16.65-4,16.56-12.89-.11-11.06-11.35-11.94-26.77-16.74-16.56-5.28-31.51-13.22-31.72-34-.23-22.3,16.47-36.34,41.58-36.59,11.71-.12,26.11,2.71,36.57,8.21l.26,25.93c-12.78-7.79-27.52-11.28-36.76-11.18-8.93.09-15.33,3.45-15.25,11.38.1,10.56,11.17,11.28,25.59,15.93,18.06,5.75,32.68,14,32.9,35.17.23,23.28-17.3,37.5-43.06,37.75-11.89.12-26.28-2.71-37.23-8Z"/></g><g id="g36"><path id="path38" class="cls-1" d="M337.09,254.73c1.27-.08,2.55-.12,3.85-.14s2.65,0,4,.06l1-55.85-11,.11Z"/></g><g id="g40"><path id="path42" class="cls-1" d="M338.65,409.44c1.27.05,2.55.08,3.85.06s2.65-.06,3.95-.14l2.17,55.83-11,.11Z"/></g><g id="g44"><path id="path46" class="cls-1" d="M264.45,336.74c-.08-1.27-.11-2.56-.12-3.85s0-2.65,0-4l-55.85-1,.11,11Z"/></g><g id="g48"><path id="path50" class="cls-1" d="M419.17,335.18c.06-1.27.07-2.56.06-3.85s-.06-2.65-.14-4l55.83-2.16.11,11Z"/></g><g id="g52"><path id="path54" class="cls-1" d="M323.72,256.72c1.25-.29,2.5-.56,3.77-.8s2.62-.45,3.93-.63l-8.68-55.19-10.83,2Z"/></g><g id="g56"><path id="path58" class="cls-1" d="M352.12,408.82c1.28-.18,2.54-.38,3.81-.62s2.61-.51,3.88-.82L371.63,462l-10.81,2Z"/></g><g id="g60"><path id="path62" class="cls-1" d="M266.45,350.1c-.29-1.25-.57-2.51-.81-3.77s-.45-2.62-.63-3.91l-55.18,8.67,2,10.82Z"/></g><g id="g64"><path id="path66" class="cls-1" d="M418.54,321.7c-.18-1.27-.37-2.54-.62-3.81s-.51-2.6-.82-3.88l54.6-11.83,2,10.82Z"/></g><g id="g68"><path id="path70" class="cls-1" d="M310.92,261c1.18-.5,2.37-1,3.58-1.44s2.48-.91,3.74-1.31l-18.13-52.84-10.3,3.86Z"/></g><g id="g72"><path id="path74" class="cls-1" d="M365.31,405.86c1.21-.4,2.42-.81,3.63-1.27s2.48-1,3.68-1.48l21.13,51.72-10.3,3.87Z"/></g><g id="g76"><path id="path78" class="cls-1" d="M270.72,362.91c-.49-1.18-1-2.37-1.44-3.58s-.9-2.49-1.3-3.74l-52.84,18.13L219,384Z"/></g><g id="g80"><path id="path82" class="cls-1" d="M415.58,308.52c-.39-1.21-.81-2.43-1.26-3.64s-1-2.47-1.49-3.67l51.73-21.13,3.86,10.3Z"/></g><g id="g84"><path id="path86" class="cls-1" d="M299.06,267.44c1.06-.71,2.15-1.39,3.26-2.05s2.31-1.32,3.46-1.92l-27-48.9-9.49,5.6Z"/></g><g id="g88"><path id="path90" class="cls-1" d="M377.76,400.65c1.14-.6,2.25-1.23,3.37-1.88s2.26-1.37,3.36-2.1l29.79,47.26-9.48,5.6Z"/></g><g id="g92"><path id="path94" class="cls-1" d="M277.17,374.77c-.7-1.07-1.39-2.15-2.05-3.26s-1.33-2.3-1.92-3.47l-48.89,27,5.58,9.47Z"/></g><g id="g96"><path id="path98" class="cls-1" d="M410.36,296.07c-.58-1.14-1.21-2.26-1.86-3.36s-1.38-2.28-2.11-3.38l47.26-29.78,5.6,9.48Z"/></g><g id="g100"><path id="path102" class="cls-1" d="M288.49,275.84c.92-.88,1.88-1.74,2.86-2.59s2-1.69,3.07-2.5l-35.1-43.46L251,234.46Z"/></g><g id="g104"><path id="path106" class="cls-1" d="M389.13,393.35c1-.78,2-1.59,3-2.43s2-1.75,2.95-2.65l37.54,41.37-8.37,7.16Z"/></g><g id="g108"><path id="path110" class="cls-1" d="M285.56,385.34c-.87-.92-1.74-1.88-2.58-2.86s-1.7-2-2.5-3.07L237,414.51l7.16,8.37Z"/></g><g id="g112"><path id="path114" class="cls-1" d="M403.08,284.71c-.78-1-1.6-2-2.43-3s-1.76-2-2.65-2.93l41.37-37.54,7.17,8.35Z"/></g><g id="g116"><path id="path118" class="cls-1" d="M279.54,286c.76-1,1.55-2.05,2.36-3.05s1.71-2,2.6-3l-42.12-36.7-7,8.51Z"/></g><g id="g120"><path id="path122" class="cls-1" d="M399.05,384.2c.86-.94,1.7-1.91,2.53-2.92s1.66-2.06,2.44-3.12l44.16,34.23-7,8.5Z"/></g><g id="g124"><path id="path126" class="cls-1" d="M295.68,394.29c-1-.75-2-1.55-3-2.37s-2-1.7-3-2.59l-36.72,42.12,8.52,7Z"/></g><g id="g128"><path id="path130" class="cls-1" d="M393.92,274.78c-.93-.86-1.91-1.7-2.9-2.53s-2.07-1.66-3.12-2.44l34.21-44.16,8.52,7Z"/></g><g id="g132"><path id="path134" class="cls-1" d="M272.48,297.46c.57-1.15,1.17-2.29,1.8-3.41s1.33-2.29,2-3.41l-47.87-28.82-5.39,9.59Z"/></g><g id="g136"><path id="path138" class="cls-1" d="M407.24,373.46c.68-1.08,1.35-2.19,2-3.3s1.28-2.34,1.87-3.51L460.5,392.7l-5.39,9.58Z"/></g><g id="g140"><path id="path142" class="cls-1" d="M307.19,401.36c-1.15-.58-2.28-1.18-3.41-1.81s-2.29-1.33-3.4-2l-28.83,47.84,9.59,5.41Z"/></g><g id="g144"><path id="path146" class="cls-1" d="M383.19,266.59c-1.07-.69-2.18-1.35-3.3-2s-2.33-1.26-3.5-1.84l26-49.45,9.59,5.42Z"/></g><g id="g148"><path id="path150" class="cls-1" d="M267.52,310c.37-1.22.76-2.45,1.2-3.67s.9-2.48,1.41-3.7L218,282.56,214.34,293Z"/></g><g id="g152"><path id="path154" class="cls-1" d="M413.45,361.47c.47-1.19.93-2.39,1.37-3.61s.84-2.51,1.22-3.77l53.19,17.06-3.65,10.38Z"/></g><g id="g156"><path id="path158" class="cls-1" d="M319.74,406.32c-1.21-.38-2.45-.77-3.66-1.21s-2.49-.9-3.7-1.4L292.3,455.83l10.37,3.68Z"/></g><g id="g160"><path id="path162" class="cls-1" d="M371.2,260.39c-1.18-.48-2.39-.95-3.6-1.37s-2.51-.85-3.77-1.23l17.05-53.2,10.39,3.66Z"/></g><g id="g164"><path id="path166" class="cls-1" d="M264.83,323.24c.14-1.28.32-2.55.52-3.82s.48-2.61.76-3.89l-54.83-10.72-1.8,10.86Z"/></g><g id="g168"><path id="path170" class="cls-1" d="M417.47,348.57c.26-1.24.51-2.52.71-3.78s.41-2.63.56-3.93l55.35,7.57-1.8,10.85Z"/></g><g id="g172"><path id="path174" class="cls-1" d="M333,409c-1.28-.16-2.54-.33-3.81-.55s-2.63-.45-3.89-.74l-10.73,54.84,10.85,1.8Z"/></g><g id="g176"><path id="path178" class="cls-1" d="M358.31,256.38c-1.25-.28-2.51-.52-3.78-.74s-2.63-.39-3.92-.55l7.55-55.36L369,201.54Z"/></g></svg>