<svg id="Layer_1" data-name="Layer 1" xmlns="http://www.w3.org/2000/svg" viewBox="0 0 647.86 647.86"><defs><style>.cls-1{fill:#333;}</style></defs><title>logo-jogossc</title><path class="cls-1" d="M340.59,193.6s-29.88-4.78-59.16-2.39-61,8.37-74.7-16.13,7.77-52.59,28.09-53.19,32.27,1.8,42.43,8.37c0,0-5.38-25.7,13.14-28.68s70.52,9.56,50.2,92Z"/><path class="cls-1" d="M348.36,205.56S298.76,196,271.87,202s-52.59,28.69-36.46,65.14,52,38.24,65.74,31.67S328,279.06,338.2,255.15c0,0,4.18-4.77,6,1.2s-3.58,20.32-3.58,29.28-2.39,28.68,24.5,34.66,48.4-20.91,54.38-46-1.79-49.6-28.69-59.16c0,0-9-4.19-6-6s22.11.6,27.49-17.33-18.53-41.23-28.69-46.61-26.89,0-28.68,17.93-4.18,38.24-6.57,42.43Z"/><path class="cls-1" d="M126.65,364.51h18.53V482.24s-1.79,21.51-23.31,29.28l-10.16-10.76s12-3.58,14.35-17.93l.59-118.32Z"/><path class="cls-1" d="M202.12,472.1c-26.78,0-42.67-23.77-42.67-54,0-31.8,17.5-55.57,44.16-55.57,27.86,0,43.07,24.4,43.07,53.68,0,35-17.9,55.89-44.42,55.89Zm.95-19.05c13.86,0,21.81-15.27,21.81-36.05,0-19.05-7.68-35.42-21.81-35.42S181,397.64,181,417.47c0,20,8.21,35.58,21.94,35.58Z"/><path class="cls-1" d="M386.18,472.1c-26.79,0-42.67-23.77-42.67-54,0-31.8,17.5-55.57,44.15-55.57,27.87,0,43.08,24.4,43.08,53.68,0,35-17.9,55.89-44.43,55.89Zm.94-19.05c13.87,0,21.81-15.27,21.81-36.05,0-19.05-7.67-35.42-21.81-35.42S365,397.64,365,417.47c0,20,8.22,35.58,21.95,35.58Z"/><path class="cls-1" d="M333,463.35c-6.16,2.52-16.61,8.68-28.28,8.68-16.11,0-27.77-4.87-35.9-14.15s-12.44-23.11-12.44-38.67c.13-35.21,21.48-55.33,50.44-55.33,11.4,0,20.18,2.67,24.5,5l-4.19,19.34c-4.85-2.68-10.74-4.56-20.44-4.56C290,383.69,277.31,395,277.31,418c0,22,11.53,34.74,27.91,34.74,4.45,0,8.12-.63,9.7-1.41V429h0l.27-10.66,19-.59L333,463.35Z"/><path class="cls-1" d="M510.9,375.27A52.07,52.07,0,0,0,478,363.91c-20.31,0-35.85,16.14-35.85,31.08s11.35,24.5,24.5,28.68,26.89,7.17,26.29,17.93-15.53,22.71-45.41,6L438,460.13s10.16,11.95,35.26,11.95,34.66-15.54,38.84-23.9,3-31.08-22.7-38.25-28.69-12.55-25.1-23.9,29.88-4.78,38.24,3l8.37-13.74Z"/><path class="cls-1" d="M180.44,501.06s.3-8.07-6.58-8.07-11.35,3.89-11.35,10.76,8.07,12,10.76,14.64,8.06,6.57,7.17,13.15-7.47,7.17-9.56,6.87-6.28-1.49-7.77-6l-3.59,4.78s5.08,5.38,11.36,5.38,14-4.48,14.93-14.94S170,509.43,168.49,505.84s-.3-9,5.07-8.07,5.08,3.29,5.08,3.29Z"/><path class="cls-1" d="M463.69,501.06s.3-8.07-6.57-8.07-11.36,3.89-11.36,10.76,8.07,12,10.76,14.64,8.07,6.57,7.17,13.15-7.47,7.17-9.56,6.87-6.28-1.49-7.77-6l-3.59,4.78s5.08,5.38,11.36,5.38,14-4.48,14.94-14.94-15.84-18.22-17.33-21.81-.3-9,5.08-8.07,5.08,3.29,5.08,3.29Z"/><path class="cls-1" d="M189.4,542.59h4.78l13.75-36.92,1.19-1.55,1.2,1.86,13.44,35.68h5.38l-17.33-45.92s-1.2-1.55-2.39-1.55-1.49.31-2.09,2.17-17.93,46.23-17.93,46.23Z"/><path class="cls-1" d="M309.21,542.59H314l13.74-36.92,1.2-1.55,1.19,1.86,13.45,35.68H349l-17.33-45.92s-1.19-1.55-2.39-1.55-1.49.31-2.09,2.17-17.93,46.23-17.93,46.23Z"/><polygon class="cls-1" points="240.19 542 235.71 542 235.71 493.59 267.98 529.15 267.98 496.58 271.87 496.58 271.87 542.59 240.19 506.74 240.19 542 240.19 542"/><path class="cls-1" d="M280.23,496.58v3.88h11.36v38.25s1.79,4.18,7.77,3.88-.6-4.18-2.1-4.18V500.46h11.95v-4.18l-29,.3Z"/><path class="cls-1" d="M387.8,498.67s-8.67-5.38-15.84.9-9.86,12.55-8.07,23.3,14.34,24.21,27.79,10.76l.9-1.2.9,4.49s-4.49,5.67-15.54,5.67S357,530,357,522.87s-.3-17.93,8.37-24.2,18.82-6.57,24.5-2.69l-2.09,2.69Z"/><path class="cls-1" d="M433.51,541.66h5.38l-17.33-45.92s-1.19-1.55-2.39-1.55-1.49.31-2.09,2.17-17.93,46.23-17.93,46.23h4.78L408.6,530h20.54l4.37,11.62ZM409.38,528l8.3-22.28,1.19-1.55,1.2,1.86,8.28,22Z"/><path class="cls-1" d="M506.42,541.66h5.37l-17.32-45.92s-1.2-1.55-2.39-1.55-1.49.31-2.09,2.17-17.93,46.23-17.93,46.23h4.78L481.51,530H502l4.38,11.62ZM482.29,528l8.3-22.28,1.19-1.55L493,506l8.28,22Z"/></svg>