<svg id="Layer_1" data-name="Layer 1" xmlns="http://www.w3.org/2000/svg" viewBox="0 0 647.86 647.86"><defs><style>.cls-1{fill:#333;}</style></defs><title>logo-ageas</title><path class="cls-1" d="M266.68,288A28.43,28.43,0,0,0,241,276.29a31.77,31.77,0,0,0-22,7.94c-9,9-11,22.88-11,37.58s2,28.52,11,37.5a31,31,0,0,0,21.77,7.94A29.06,29.06,0,0,0,266,355.57v14.14c0,15.42-7.31,27.65-24.7,27.65a27.7,27.7,0,0,1-21.61-9l-8.66,8.42a39.7,39.7,0,0,0,30.58,12.08A35.82,35.82,0,0,0,279.29,375a35,35,0,0,0-.06-4.69V277.64H266.68Zm-22.56,67.36c-19.62,0-22.48-16.84-22.48-33.68S224.57,288,244.12,288s22.32,16.84,22.32,33.68-3.1,33.76-22.72,33.76Zm-80.72-79c-15.09,0-23.83,2.94-32.25,13.35l9,7.94a23.84,23.84,0,0,1,22.72-10c16.44,0,23,6.59,23,19.78V316H158.8c-20.18,0-31.15,10.25-31.15,26a26,26,0,0,0,6.76,18.35,31.74,31.74,0,0,0,25.5,7.94,31.77,31.77,0,0,0,26-9.69v8.58h13.18V306.32C199.07,286.7,187.24,276.29,163.4,276.29Zm22.49,59.34a20.85,20.85,0,0,1-4.61,15.89,26.26,26.26,0,0,1-20.1,5.56c-14.3,0-20.73-4.92-20.73-15.41s6.59-15.89,20.17-15.89h25.27Zm303.23-18.9-14.46-1.28c-11.36-.95-15.89-5.48-15.89-13.18,0-9.14,6.91-14.86,20.1-14.86a38.52,38.52,0,0,1,23.83,7.15l9-9a51,51,0,0,0-32.41-9.29c-19.23,0-33.13,9.93-33.13,26.37,0,14.7,9.29,22.65,27.09,24.16l14.85,1.27c10.41.87,15,5.32,15,13.18,0,10.65-9.14,15.89-23.83,15.89a36.91,36.91,0,0,1-28.44-10.4l-8.74,8.81a49.55,49.55,0,0,0,37,13c21.77,0,36.62-10.09,36.62-27.49S505,318.24,489.12,316.73ZM436,297.1a24.72,24.72,0,0,0-11.12-15.41,46.07,46.07,0,0,0-23.83-5.4,38.49,38.49,0,0,0-28,9.29c-.47.48-4.21,4.14-3.81,4.53l2.7,2.47,6.12,5.64a22.61,22.61,0,0,1,15.89-9.93,36.28,36.28,0,0,1,21.29,2.54,16.36,16.36,0,0,1,7.94,13.34v12.16H398.79a49.07,49.07,0,0,0-16.76,2.3A47.63,47.63,0,0,0,363,334.52a117.31,117.31,0,0,1-13.9,15.89,30.43,30.43,0,0,1-11.84,6.43,35.32,35.32,0,0,1-12.63.72,23.87,23.87,0,0,1-15.89-7.94,32.56,32.56,0,0,1-6.51-18.52v-4.36H363v-6.68a45.72,45.72,0,0,0-14.06-36.22,38.22,38.22,0,0,0-36.38-5.25,37.35,37.35,0,0,0-22,28.52,78.72,78.72,0,0,0-1,24.31,51.58,51.58,0,0,0,5.8,19.7,34.93,34.93,0,0,0,28.44,17.16A47,47,0,0,0,348,365a62,62,0,0,0,19.7-18,24.67,24.67,0,0,0,8.42,16.84,31.06,31.06,0,0,0,15.09,4.77,54.88,54.88,0,0,0,19-1.11,30.73,30.73,0,0,0,13.59-8.34v8.18H437V317.36a85.73,85.73,0,0,0-1-20.49ZM305,301a23.28,23.28,0,0,1,29.08-12.24,22,22,0,0,1,12.07,11A39.66,39.66,0,0,1,349.46,316H301.79A44.45,44.45,0,0,1,305,301Zm119.16,34.63a28,28,0,0,1-2.06,12,16,16,0,0,1-7.95,7.31,30.31,30.31,0,0,1-12.39,2.14,45.88,45.88,0,0,1-11.92-.87,13.59,13.59,0,0,1-11.12-10.81,15.87,15.87,0,0,1,4.93-15.88,25.37,25.37,0,0,1,15.89-3.9H424a72.7,72.7,0,0,1-.15,10ZM518.59,358a5.32,5.32,0,1,0,5.32,5.32h0A5.32,5.32,0,0,0,518.59,358Zm0,9.85A4.53,4.53,0,1,1,523,363.2v.08A4.54,4.54,0,0,1,518.59,367.81Z"/></svg>