<svg id="Layer_1" data-name="Layer 1" xmlns="http://www.w3.org/2000/svg" viewBox="0 0 647.86 647.86"><defs><style>.cls-1{fill:#333;fill-rule:evenodd;}</style></defs><title>logo-cocacola</title><path class="cls-1" d="M602.25,328.62c-6.46,1.49-11.88,5.6-17,10.45l-.29.06V339l13.6-25.29,2.51-4.91-.18-.17h-5.3l-.63.34-9.48,17.29c-2.34,3.89-5.66,8.35-10,10.35a1.42,1.42,0,0,1-1.71-.58,2.73,2.73,0,0,1,.28-2.34l12.39-22.84c.23-.68,1-1.31.74-2.05l-5.25-.06-.46.23c-4.1,7-7.59,14.16-13.13,20.5-2.85,3.08-5.77,6.22-9.65,7.42-.68,0-1.43.11-1.82-.57a2.19,2.19,0,0,1,.16-2c3.6-6.69,7-13.48,10.86-20.05.62-1.31,1.08-3.14,0-4.34-.68-1-2-.91-3.14-1-4.51.62-7.82,4.05-11.36,7l-.06-.06c1-2.22,2.34-4.28,3.31-6.5a31.4,31.4,0,0,0-5.76-.18l-.41.4c-5.13,9.71-10.67,19.87-20.38,27-1.37.51-3.08,2.29-4.57.69-.51-1,.06-2.06.35-3l11.24-20.84,2.06-4-.17-.23-5.32-.06c-.91.34-.8,1.6-1.71,1.83-1.26-1.6-3.48-1.83-5.37-1.31-6.5,2.28-10.56,8.85-14.9,14.1-5.54,6.45-12.1,12.11-19.25,15.53a57,57,0,0,0,13.42-17.7c1.32-3.36,3.43-7.13,1.83-11a2.49,2.49,0,0,0-2-1.26c-4.51-.17-7.88,2.8-11.13,5.88h-.35c1.15-2.4,2.69-4.63,3.72-7a42.89,42.89,0,0,0-5.49-.23l-.51.23-8.11,14.51a51,51,0,0,1-11.19,12.61c-1.66,1.09-3.37,2.57-5.54,1.94-.91-.34-.91-1.37-.68-2.16l8.68-16.11c1.14-2.22,2.62-4.28,2.85-6.79a3.31,3.31,0,0,0-1.08-2.46,3.78,3.78,0,0,0-3-.57,27.72,27.72,0,0,0-10.79,7.37l-.34.11c.68-2.17,2.4-4.91.45-7a3.27,3.27,0,0,0-2.74-.34c-4.23,1.25-7.88,3.93-11.25,7.07.8-2.4,2.57-4.56,3.54-7a34,34,0,0,0-5.48-.29l-.57.4a23,23,0,0,1-14.27,12.45c-.46-.05-1,.35-1.32-.11,1.2-3.31,2.91-7.31,1.26-10.85-1-1.54-2.68-1.94-4.52-1.71-6.16,1.42-11.19,6.56-14.73,11.87-2.91,5.08-6.11,10.06-6.11,16.28.23,1.94,1.08,4,3,4.74,2.46.68,4.75-.35,6.69-1.49,4.56-3,7.93-7.77,10.79-12.05,1.14-1.71,1.88-3.59,3-5.31a17.08,17.08,0,0,0,7.26-2.45c1.25-.69,2.4-1.83,3.65-2.4v.17l-12.22,22-.74,1.66a31.73,31.73,0,0,0,5.65.17l.46-.28,10-18.05c2.74-4.11,6.11-9,10.74-11.08a1.85,1.85,0,0,1,1.94.35,2.08,2.08,0,0,1,0,1.82L452,324.85l-9.54,17.31c.06.23.22.28.45.23,2.06-.4,5.6,1.36,6.28-1.49l8.23-14.56c2.8-4.8,6.39-10.28,11.54-13.13.62-.17,1.54-.23,1.93.46.46.91-.11,1.76-.34,2.56L460.05,335l-.79,2.35a4.58,4.58,0,0,0,1.19,4.33c1.37,1.26,3.54.69,5,.12,5.14-2.45,9.59-6.85,13.82-11.19.05.05.11.12.05.12l-17.7,32.14-1.6,3.09.17.17A24.75,24.75,0,0,0,466,366l14-25.24.63-.63.11.12a5.06,5.06,0,0,0,5.6,2.23c8.62-1.83,15.71-7.66,22.38-13.94H509c-.4.74-.69,1.55-1.15,2.29-1.36,3-3.14,7.07-1.14,10.39a3.76,3.76,0,0,0,2.75,1.31c4-.34,6.62-3.54,9.53-6.51h.22c-.45,1.77-1.3,4.46.41,5.88,1.37,1.08,3.48.46,4.91-.11,5.43-2.68,10.1-7.48,14.56-12.22h.23c-2,4.23-4.46,8.28-6.63,12.44l.17.23,5.49.06.51-.4,7.76-14.27c2.81-5.55,6.86-11.54,12.52-14.85a1.55,1.55,0,0,1,1.94.34c.45.74,0,1.6-.29,2.29l-10.45,19.29c-.86,1.84-1.42,4.23-.45,6.12a3.63,3.63,0,0,0,4,1.42c6.45-2,11.25-7.93,16.1-12.84-.8,1.94-2,3.65-2.74,5.59s-1.54,4.8.29,6.46a3.31,3.31,0,0,0,2.74.62c3.82-1.2,7-4.22,10-7.19l.11.11a2.37,2.37,0,0,1-.17.46L566,361.85l-1.77,3.6.17.17a22.58,22.58,0,0,0,5.94-.11l8.91-16.1a45.3,45.3,0,0,1,6-8.57c4.86-4.92,10.11-9,16.22-10.91,1.14-.51,3.08.4,3.48-1.2a6,6,0,0,0-2.68-.11ZM263.58,297.9l.4-.29a33.88,33.88,0,0,0,2.68-4.85l-3.37-.17c-.74.17-1.71-.17-2.39.29a34.07,34.07,0,0,0-2.69,4.91,34.67,34.67,0,0,0,5.37.11ZM61.15,306.3c5.37,1,9.82-1.89,13.65-5.6,3.31-3.94,6.51-8,7.48-12.79l-.17,0c-2.63,5.32-7.48,11.37-13.42,13-1.77.46-4.11.52-5.48-.91-1.83-2.45-.92-5.59.11-8.16,4.23-8,12.79-12,21.71-11.14,8.62,1.26,16,5.54,23.92,8.45a63.24,63.24,0,0,0,4.62-4.85v-.46a138.49,138.49,0,0,0-17.76-6.51c-13.24-3.2-26,1.94-33.74,13-2.52,4.06-5.66,8.63-3.6,13.77a4.83,4.83,0,0,0,2.68,2.17Zm26.78-4c3.32-4.91,7.2-10.91,13-13v-.17l-1.43-.06C83.94,292,75.88,308.92,68.92,321c-3.77,6.11-6.63,12.67-12.51,17.81-2.34,1.65-5.54,3.32-8.45,1.72a5.09,5.09,0,0,1-2.34-3.37,7.53,7.53,0,0,1,1.94-6.23c.74-.28,1.43.4,2.23.35,1.66-.18,3.37-.69,4.11-2.34a2,2,0,0,0-.4-2,3,3,0,0,0-2.4-.28,10.7,10.7,0,0,0-6.62,7.6,7.73,7.73,0,0,0,1.25,6.16c2.35,2.57,6.46,3,9.66,1.83,9.36-2.91,16.72-12.45,21.35-20.61l11.19-19.3Zm44.09,7c-9,3.54-16.34,12.74-19.65,21.47-.57,1.26-.57,2.8-1.25,4-2.57,1.55-5,3.26-8.05,3.66-.75-.06-1.6-.12-2-.91a3.34,3.34,0,0,1,0-2.12l11-19.3a8.5,8.5,0,0,0,1.32-4.11,2.81,2.81,0,0,0-1.26-2.46,4.63,4.63,0,0,0-3.26-.17c-4.68,1.66-8.56,5.37-12.33,9.08a36,36,0,0,1,3-5.42c8.5-6,17.19-13.42,23.52-22.16l-1.77.4a102.92,102.92,0,0,1-12.79,13.13c-2.17,1.66-4.28,3.66-6.57,4.86v-.23c5-8.16,9.94-16.33,16.22-24,2.28-2.57,4.79-5.88,7.93-7.25a1.3,1.3,0,0,1,1.55.46c.4,1.94-.63,3.76-1.43,5.42.51-.17,1.26,0,1.6-.46.8-1.82,1.88-3.88,1-6.05-1.94-2.51-5-.34-7,.86-10,7.42-17.31,17.92-23.82,27.75l-22,35.92-.34.91c1.94.51,4.11.05,6.17.23l.57-.45c3.37-5.66,6.28-11.6,10.33-17,3.14-4.06,6.79-8.63,11.25-11.31.57-.23,1.6-.63,2.11.12a1.92,1.92,0,0,1-.17,1.59l-9.25,16.17c-1.37,3-4.28,6.05-2.74,9.64A3.28,3.28,0,0,0,96.61,343c5.48-.22,9.48-3.88,14-6.22l.57-.06c.34,2,1,3.94,2.86,5.14a7.49,7.49,0,0,0,6.44.29c5.72-2.35,10.51-8.11,14-13.2l.06-.56h-1.2c-3,3.76-6.57,8.61-11.31,10a2.78,2.78,0,0,1-2.68-.86,3.77,3.77,0,0,1-.8-3.48l5.25-3.83c5.71-4.56,11.36-10.05,14.22-16.55.4-1.32.63-3.09-.63-4.06-1.49-1.2-3.77-.8-5.42-.29Zm.62,10.45a56.82,56.82,0,0,1-13.53,11.93,26.28,26.28,0,0,1,3.48-8c2.91-4.68,6.68-10.33,11.88-12.73.8-.29,2.17-.57,2.4.63-.17,3.13-2.45,5.59-4.23,8.16Zm-17.41-30c-.12.35-.52.69-.23,1,7.25.63,13.42-2.28,18.95-6.22a28.81,28.81,0,0,0,6.8-7.65,29.24,29.24,0,0,1-21.65,8.16,46.7,46.7,0,0,0-3.87,4.68Zm91.19,44L185.69,339a34.55,34.55,0,0,1-11,.86,12.42,12.42,0,0,1-9.94-6.91c-2.91-7.94.46-16.33,3.77-23.24A87.9,87.9,0,0,1,191,282.14c3-1.88,6.16-4.17,9.93-3.31a2.84,2.84,0,0,1,1.31,1.66,2.59,2.59,0,0,1-.51,2.16,3.67,3.67,0,0,0-3.26,1.14,5,5,0,0,0-1.54,4.23,1.62,1.62,0,0,0,1.49,1,5,5,0,0,0,3.2-2.29c1.54-2.34,3-5.7,1.37-8.45a4.8,4.8,0,0,0-3-2.05c-5.54-.52-10.28,1.88-14.73,4.39-11.6,7.37-22,19.19-27.24,31.3-3.26,7.7-5.48,19.53,1.2,26.43,5.19,5.66,14.33,5.14,21.24,3.43l18-4.45c6-1.21,13.87-1.95,19.29,1.14a16.78,16.78,0,0,1,5.2,4.62,13.18,13.18,0,0,1,4-3.31c7.25-2.51,14.56.51,20.79,3.37a43.57,43.57,0,0,0-13.82-9.25c-8.22-3.48-18.9-2.23-27.41-.17Zm46.08-24.44c-2.92,3.66-5.48,8.11-9.71,10.56a1.27,1.27,0,0,1-1.65-.23,2.75,2.75,0,0,1,.17-2.22l13.59-23.7.34-.92a24.78,24.78,0,0,0-5.77-.05l-1.26,1.88c-.68-.57-1.31-1.48-2.22-1.76-2.69-.8-5.31.4-7.36,1.93-8.85,6.57-13.08,16.28-21.08,23.59-2.28,1.83-5.08,4.34-8.05,2.68-1.54-1.25-1.48-3.42-1.2-5.25a41.72,41.72,0,0,1,12.16-18.95c1.55-1,3.15-2.46,5.14-1.6a2.06,2.06,0,0,1,1,2.28c.12,1.37-1.26.57-2,.86a5.33,5.33,0,0,0-3.19,3.76,1.79,1.79,0,0,0,.63,1.95c1.14.51,2.28-.23,3.08-1,2.06-2.29,3.71-5.43,2.4-8.4l-.92-1.14c-3.93-2.45-8.28.23-11.42,2.69-4.23,3.25-7.42,8.68-12.68,9.25.86-2.52,2.06-5.09,2.23-7.94.06-1.83-.4-3.65-2-4.51-2.06-.92-4.45-.17-6.28.74-7.77,4.4-13.88,12.51-17.13,20.33-1,3.37-2.52,7.48-.23,10.73a4.72,4.72,0,0,0,4.91,1c8.05-3,13.53-11.66,17.53-18.62,1.54-.18,3-.86,4.4-1-2.18,3.6-4.12,7.32-4.75,11.54-.39,2.86.24,5.72,2.57,7.42,5.26,2.41,9.94-1.42,13.82-4.85,1.6-1.42,3.2-3.31,4.8-4.57-.51,2-1.43,3.83-1.48,6a4.25,4.25,0,0,0,2.34,4.12c4.56.91,7.53-3.09,10.73-5.89l.12.12c-.46,1.65-1.14,4.05.45,5.37a3.56,3.56,0,0,0,2.57.62c6-1.77,10.22-7.88,14-12.68.86-1.37,2.06-2.62,2.45-4.11-.34-.06-.74-.23-1,0Zm-60.13,8.45c-1.54,1.32-3.08,2.8-5.19,2.34-.81-.11-1.2-1-1.49-1.71-.17-4.79,2.63-9,5.08-13l2.29-3.09c.62.46.74,1.26,1.31,1.83a10.09,10.09,0,0,0,5.37,3.09,39.44,39.44,0,0,1-7.37,10.5Zm8.17-12.16a6,6,0,0,1-5.09-2.74c-1-1.83,0-3.88,1-5.37,1.54-1.71,3.94-3.48,6-1.83,1.26,1.89.34,4.29-.11,6.23a14.42,14.42,0,0,1-1.83,3.71ZM231,320c-.51.11-1.37.29-1.77-.17-.8-.63-.63-1.83-.46-2.68,1.49-5.49,5.09-10.11,8.4-14.85,2.29-2.74,4.74-6.34,8.22-7.25a1.46,1.46,0,0,1,1.72.79v.69l-8.51,14.67c-2.12,3.15-4.12,6.92-7.6,8.8Zm57.1-9.88c-1.54-1.49-4.28-1.2-6.11-.46-7.71,3.2-11.53,11.31-12.61,19l.11.28a20.73,20.73,0,0,1,8-5.77,21.2,21.2,0,0,1,2.92-7.3c1.54-2,3.54-4.68,6.34-4.06A2.44,2.44,0,0,1,288,314c.23,7-3.49,12.79-8,18.05-3.53,3.36-7.53,7.47-12.73,5.94a6.88,6.88,0,0,1-3.82-4.8c-1-7.59,2.22-14.28,5.13-20.61,6.34-11.94,15.88-23.88,27.76-31.76,2.85-1.31,5.59-3.53,9.19-2.62.23.06.63.23.63.57a39.58,39.58,0,0,0-12.79,11.88c-1.54,2.74-3.31,5.42-3.14,8.85a3.61,3.61,0,0,0,1.93,2.8c2.58.8,4.75-.8,6.75-2.06A28.15,28.15,0,0,0,309,282c.23-.92-.4-1.83.06-2.57,2.4-.75,5.08-.12,7.25.57,6.34,2.63,12,6.79,18.1,9.82,1.49-1.31,2.92-2.91,4.4-4.4l.17-.51c-4.85-2.74-9.59-5.71-14.73-7.72-5-2.16-11.42-1.3-16.22.64a7.31,7.31,0,0,0-6-2c-6.63.68-12.17,3.94-17.59,7.59a81.66,81.66,0,0,0-28.61,39c-1.77,6-2.57,14.39,3.14,18.73,3.14,2.4,8.23,1.94,11.59.4,8.34-3.94,14.91-12.62,17.93-20.84,1.09-3.08,2.06-7.82-.46-10.62Zm19.59-28.61a25.81,25.81,0,0,1-11.36,18.73,4.73,4.73,0,0,1-3.43.63,2.06,2.06,0,0,1-1.14-1.43c-.06-4.28,2.63-7.59,5-10.9,2.92-3.48,6.4-6.63,10.23-8.34.57.06.62.8.68,1.31Zm47,34.55,3.65-6.63-.11-.17-5.2-.05c-1.08.17-1.25,1.54-1.94,2.22h-.23a5.33,5.33,0,0,0-1.65-1.59c-1.77-1.09-4.28-.52-5.94.39-8.79,5.83-13.59,15.19-19.3,23.31-1.48,1.54-3.14,4.45-5.54,3.54-.74-.58-.74-1.37-.86-2.23a41.26,41.26,0,0,1,3.94-12.91,93.51,93.51,0,0,0,11.94-10.22c5.77-5.88,11.42-11.87,15.76-18.39a1.37,1.37,0,0,0-1.31.12c-7,9-15.31,18.39-24.5,25.41l-.35.06c2.52-5.88,6.05-11.25,9.37-16.74,5.37-8,10.91-16.5,19-23,1.08-.62,2.45-2,3.71-1a3.84,3.84,0,0,1-.23,2.86c-.45,1.66-1.66,3.08-2,4.74.52-.06,1.09-.06,1.32-.52L356,281.4c.57-1.43,1-3.48,0-4.85a3,3,0,0,0-2.11-.58,18.58,18.58,0,0,0-7.37,3.66c-14.68,11.94-24.56,27.18-31.86,42.83a7.88,7.88,0,0,1-4.4.8c1.14-3,2.68-5.83,2.8-9.2,0-1.88-.4-3.76-2.18-4.62-2.22-.92-4.45.06-6.39.91-8.74,5-14.51,13.88-17.47,22.67-.63,2.86-1.43,6.8,1.08,9,1.6,1.2,4.05.86,5.71.05,7.08-3.36,11.94-10.9,15.53-17.3,1.49-.11,2.92-.29,4.34-.51l.17.11-1.88,5.6c-.68,3.71-3,8.56.17,11.82a4,4,0,0,0,3.2.8c3.88-1,6.62-4.8,9.54-7.65a15.92,15.92,0,0,0-.46,4.44,3.81,3.81,0,0,0,2.22,3.21c4.69,1.14,7.71-3.25,11-6.23l.05.06c-.51,1.71-1.14,4.17.29,5.65,1,1.08,2.85.75,4.05.29,6.51-3.26,11-10.17,14.85-15.94v-.57c-.4-.05-.91-.11-1.2.23-2.68,3.88-5.43,8.34-9.71,10.9a1.09,1.09,0,0,1-1.43-.39c-.51-1,.17-1.94.4-2.8l9.83-17.7Zm-49.51,13A24,24,0,0,1,298,336.5a3.17,3.17,0,0,1-2.57.12,2.25,2.25,0,0,1-1.26-1.6c-.28-5.49,2.92-9.94,5.77-14.39l1.43-1.71c1,1.37,1.83,3.25,3.54,4.22l2.79,1.31c-.4,1.66-1.59,3.15-2.51,4.63Zm3.38-6.11a6.11,6.11,0,0,1-4.69-3.37,5.47,5.47,0,0,1,.92-5.77c1.48-1.77,4.45-3.82,6.22-1.37,1.25,3.77-.8,7.37-2.45,10.51Zm31.06,8.56c-1.43,2.06-3.2,4.63-5.66,5.42a1.69,1.69,0,0,1-1.65-.79c-.68-3.08,1.2-5.65,2.28-8.28,3.25-5.48,6.62-11.53,12.22-15.53,1-.52,2.63-.74,3.14.57l-.05.63-10.28,18ZM344.78,287c-1.66,1.37-2.8,3.26-4.17,4.92v.34c6.34,1.43,12.44-.63,17.64-3.54a36.25,36.25,0,0,0,12.56-12.39c-7.36,6.79-15.7,11.7-26,10.67ZM408,309.83c-1.83-1.2-4.51-.74-6.4.06C394,313.43,391,321.48,389.77,329l.17.29c1.78-3,4.86-5.83,8.23-6.4a27.74,27.74,0,0,1,2.45-7c1.43-2.11,3.66-4.57,6.4-4.11,1.65.74,1.65,2.74,1.6,4.34-1,5.94-3.88,11-7.88,15.71-3.54,3.76-7.77,7.76-13.14,6-3-1.43-4.23-4.57-4.23-7.77.64-10.56,5.83-19.3,11.37-27.81,6.28-8.5,14.85-17.7,24.33-21.76,1.54-.4,3.59-.74,4.74.75a3,3,0,0,1,.28,2.22c.06,1.55-1.48.58-2.28,1.09a5.09,5.09,0,0,0-3,3.71c0,.75-.11,1.66.63,2.17,1.38.52,2.58-.4,3.55-1.37,1.94-2.22,3.31-5.25,2.22-8.22-2.34-4.22-8.28-2.45-11.64-1.14-17.59,7.71-32.55,25.92-37.29,44-1.2,5.83-1.66,13.24,3.82,17.13,2.69,2,6.8,2.12,9.94,1,8.57-3.49,15.53-12.63,18.67-20.91,1-3.2,2.57-8.34-.74-11Zm10.73,26.84a3.54,3.54,0,0,1-3.37.34c-1.65-.79-1.42-2.74-1.25-4.28,1.42-5.42,4.45-10.28,8.16-14.73.8,1.43,1.54,3.2,3.2,4.11a13.81,13.81,0,0,0,3.37,1.2,35.22,35.22,0,0,1-10.11,13.36Zm11.14-15.13c-.46.57-1.26.29-1.89.23a5.31,5.31,0,0,1-3.88-3.54,5,5,0,0,1,.63-4.23c1.37-1.77,3.94-3.65,6-1.77,2.06,2.91.24,6.51-.85,9.31Zm53,18.85a2.76,2.76,0,0,1-1.26-2.18c3.26-6.22,6.63-12.39,10.11-18.44,1.88-2.17,4.06-4.85,6.8-5.42a2.32,2.32,0,0,1,1.82.62c1.38,1.83.23,4.23-.34,6a59.94,59.94,0,0,1-11.76,17.37c-1.55,1.25-3.31,2.91-5.37,2Zm38.2-9.09c-1.54,2.17-3.31,4.92-6,6a1.67,1.67,0,0,1-1.94-.91c-.52-3,1.2-5.43,2.28-7.88,3.32-6.06,7-11.71,12.68-16.39.8-.69,2.57-1.14,3.14.23l-.06.68-10.1,18.27Z"/></svg>