<svg id="Layer_1" data-name="Layer 1" xmlns="http://www.w3.org/2000/svg" viewBox="0 0 647.86 647.86"><defs><style>.cls-1{isolation:isolate;}.cls-2{fill:#333;}</style></defs><title>logo-easyjet</title><g class="cls-1"><path class="cls-2" d="M138.38,322H108.87c-1.34,0-2,.61-2,1.71q0,4,4.39,7.68a14.62,14.62,0,0,0,9.51,3.65,24,24,0,0,0,6.71-1.09,21.69,21.69,0,0,0,6.09-2.81,6.91,6.91,0,0,1,3.41-1.46,4,4,0,0,1,3.17,1.95,6.32,6.32,0,0,1,1.59,4.15c0,3-1.83,5.85-5.61,8.65a36.86,36.86,0,0,1-22.92,7.44c-8.77,0-16.09-2.56-22.06-7.68a30.18,30.18,0,0,1-7.07-9,32,32,0,0,1-3.66-14.88,30.42,30.42,0,0,1,6.34-18.89,33.37,33.37,0,0,1,14-10.85,34.68,34.68,0,0,1,13.77-2.68c7.93,0,14.63,2.19,20.24,6.7a25.27,25.27,0,0,1,6.71,8.05,21.17,21.17,0,0,1,2.92,10.24,12.69,12.69,0,0,1-1.71,6.7A5.44,5.44,0,0,1,138.38,322Zm-27.8-11.7h6.34q4,0,4-3.66a7.57,7.57,0,0,0-2-5.49,6.37,6.37,0,0,0-5.12-2.07,6.51,6.51,0,0,0-5.48,2.8,8.86,8.86,0,0,0-1.83,5.25,3.55,3.55,0,0,0,.85,2.68A8.57,8.57,0,0,0,110.58,310.3Z"/><path class="cls-2" d="M184.21,287.62c7.32,0,13.41,1.83,18.41,5.49a16.15,16.15,0,0,1,5.61,6.7c1.1,2.56,1.58,6,1.58,10.36l-.12,9.27c0,6.46.49,10.61,1.34,12.56a3.47,3.47,0,0,0,1.34,1.7,9.15,9.15,0,0,0,2.69.73c1.34.25,1.95,1.1,1.95,2.69a10.61,10.61,0,0,1-2.44,6.21,20.95,20.95,0,0,1-16.09,8.29c-4.39,0-7.81-1.46-10.37-4.51a3.36,3.36,0,0,0-2.43-1.58,5.74,5.74,0,0,0-3.3,1.58,23.25,23.25,0,0,1-14.14,4.51c-5.48,0-9.87-1.22-13.28-3.53a17,17,0,0,1-5.25-6.1,16.12,16.12,0,0,1-2-7.8A15.11,15.11,0,0,1,153,322.73c5.49-5.24,13.66-7.92,24.51-7.92,2.44,0,3.9-.25,4.51-.73s1-1.59,1-3.3c0-4.38-.48-7.68-1.34-9.63a4.72,4.72,0,0,0-4.51-2.92,5.35,5.35,0,0,0-3.29,1.09,19.67,19.67,0,0,0-3.66,4.15c-3.65,5.24-7.55,7.92-11.58,7.92a7.07,7.07,0,0,1-5-1.82,6.1,6.1,0,0,1-2-4.76,9.71,9.71,0,0,1,2.44-6,20.89,20.89,0,0,1,6.58-5.24A48.51,48.51,0,0,1,184.21,287.62ZM180,323.83a6.26,6.26,0,0,0-4.76,2.19,8.37,8.37,0,0,0-.61,10.24,4.58,4.58,0,0,0,3.78,1.83c3.29,0,5-2.8,5-8.41,0-2.32-.24-3.78-.73-4.63A2.86,2.86,0,0,0,180,323.83Z"/><path class="cls-2" d="M246.14,287.62A69,69,0,0,1,256.38,289a22.46,22.46,0,0,0,2.32.25,15.86,15.86,0,0,0,4.14-1.1,7.74,7.74,0,0,1,2.44-.61q2.93,0,5.85,3.66a26.42,26.42,0,0,1,3.9,6.46,16.16,16.16,0,0,1,1.47,6.09,5.61,5.61,0,0,1-1.71,4.15,6.38,6.38,0,0,1-4.39,1.71,7,7,0,0,1-3.9-1.1,47.78,47.78,0,0,1-5.49-4.63c-2.68-2.56-4.87-3.91-6.58-3.91a4.61,4.61,0,0,0-4.39,4.39c0,2.08,2,3.9,5.85,5.73,7.08,3.17,12.44,6.59,16.22,10.36A15.84,15.84,0,0,1,276.86,332c0,5.85-2.56,10.6-7.68,14.5q-6.58,5.13-16.09,5.12a71.88,71.88,0,0,1-8.9-.85c-4-.49-6.34-.73-6.83-.73a11,11,0,0,0-1.82.24c-1.22.12-2.08.25-2.69.25a6.79,6.79,0,0,1-4.63-1.47,22.14,22.14,0,0,1-4.75-7.31,21.9,21.9,0,0,1-2.2-8.53c0-3.78,1.47-5.73,4.51-5.73a5,5,0,0,1,3.17,1.09,68.1,68.1,0,0,1,6.22,6.22,25.31,25.31,0,0,0,4.27,3.78,6.32,6.32,0,0,0,3.65,1,4.9,4.9,0,0,0,3.3-1.09,3.62,3.62,0,0,0,1.21-2.93c0-1.83-1.58-3.53-4.87-5.12-6.71-3.29-11.58-6.7-14.51-10.24A18.63,18.63,0,0,1,223.71,308a18.89,18.89,0,0,1,4.51-12.8C232.61,290.3,238.58,287.62,246.14,287.62Z"/><path class="cls-2" d="M341.72,318.46l-8.29,22.68a88.25,88.25,0,0,1-6.22,13.77,41.37,41.37,0,0,1-7.07,9.15,27.54,27.54,0,0,1-19.63,7.8c-6.21,0-11.21-1.58-15-4.88a12.12,12.12,0,0,1-4.39-9.51,11.2,11.2,0,0,1,3.05-8,10,10,0,0,1,7.56-3.29,9.38,9.38,0,0,1,7.31,3.05,8.26,8.26,0,0,1,1.71,2.43c.24.73.73,2.32,1.34,4.64.49,1.82,1.46,2.8,3.17,2.8a4.22,4.22,0,0,0,3.29-1.71,6.07,6.07,0,0,0,1.34-4.14q0-2.93-3.29-9.88l-15.12-32.06a34.54,34.54,0,0,0-3.53-6.22,19.7,19.7,0,0,0-5.25-3,4.82,4.82,0,0,1-2.19-1.95,5.31,5.31,0,0,1-.85-2.81c0-3.65,3.65-6.21,11.09-7.56a98.33,98.33,0,0,1,16.82-1.34,34.38,34.38,0,0,1,10.49,1.34c3.41,1.22,5.12,3.3,5.12,6.22a6.4,6.4,0,0,1-1.47,3.66,6.16,6.16,0,0,0-1.34,3.53,10.49,10.49,0,0,0,.61,3.17,58.49,58.49,0,0,0,2.81,5.49c1.58,2.93,2.92,4.39,4.14,4.39s2.68-1.34,4-3.9a15.9,15.9,0,0,0,2.08-7.44,6.29,6.29,0,0,0-1.59-4.63c-1.58-1.83-2.44-3.54-2.44-4.88,0-2.07,1.47-3.78,4.27-5.12a28.73,28.73,0,0,1,11.34-1.95c8.9,0,13.29,2.07,13.29,6.34a5.51,5.51,0,0,1-1.34,3.78c-.86,1-2.56,1.83-4.88,2.68a9.61,9.61,0,0,0-4.76,3.78C346.23,307.37,344.16,312,341.72,318.46Z"/><path class="cls-2" d="M413.16,263.24a82.83,82.83,0,0,1,14.26,1.22c3.9.61,6.83,1.58,8.53,2.8a5.66,5.66,0,0,1,2.56,4.88,4.56,4.56,0,0,1-1,3.05,14.78,14.78,0,0,1-4,2.68c-2.43,1.22-3.78,2.68-4.14,4.39s-.73,8.29-1,19.62c-.12,11.1-.24,17.68-.36,19.88a56.21,56.21,0,0,1-.73,6.46c-1.22,6.09-3.66,10.85-7.32,14.38a31.5,31.5,0,0,1-11.58,6.71,46.5,46.5,0,0,1-14.87,2.44,54.39,54.39,0,0,1-13.9-1.83,45.72,45.72,0,0,1-12.07-5,20,20,0,0,1-9.26-16.58A14.55,14.55,0,0,1,362.2,318a13.5,13.5,0,0,1,9.87-4.15,14.54,14.54,0,0,1,9.88,3.42,11,11,0,0,1,4,8.65,22.27,22.27,0,0,1-.73,4.39,4.64,4.64,0,0,0-.12,1.34,4.15,4.15,0,0,0,1.46,3.29,5.38,5.38,0,0,0,3.78,1.22,7.64,7.64,0,0,0,6.7-3.78,17.43,17.43,0,0,0,2.56-9.87l-.12-5.73-.12-15.36c-.37-9.27-.61-14.75-.85-16.46a7.49,7.49,0,0,0-1.47-4,5,5,0,0,0-1.7-1.59c-.49-.24-1.83-.61-3.9-1.22a4.35,4.35,0,0,1-2.56-1.7,4.89,4.89,0,0,1-1.1-3.05,6.33,6.33,0,0,1,2.68-5.37c1.83-1.34,4.63-2.43,8.66-3.29A67.89,67.89,0,0,1,413.16,263.24Z"/></g><g class="cls-1"><path class="cls-2" d="M499.59,322H470.21c-1.34,0-1.95.61-1.95,1.71q0,4,4.39,7.68a14.58,14.58,0,0,0,9.51,3.65,24,24,0,0,0,6.7-1.09,21.76,21.76,0,0,0,6.1-2.81,6.91,6.91,0,0,1,3.41-1.46,4,4,0,0,1,3.17,1.95,6.31,6.31,0,0,1,1.58,4.15c0,3-1.83,5.85-5.6,8.65a36.9,36.9,0,0,1-22.92,7.44c-8.78,0-16.1-2.56-22.07-7.68a30.34,30.34,0,0,1-7.07-9,32,32,0,0,1-3.66-14.88,30.48,30.48,0,0,1,6.34-18.89,33.37,33.37,0,0,1,14-10.85,34.7,34.7,0,0,1,13.78-2.68c7.92,0,14.63,2.19,20.23,6.7a25.14,25.14,0,0,1,6.71,8.05,21.19,21.19,0,0,1,2.93,10.24,12.69,12.69,0,0,1-1.71,6.7A5.5,5.5,0,0,1,499.59,322Zm-27.8-11.7h6.34c2.68,0,4-1.22,4-3.66a7.54,7.54,0,0,0-2-5.49,6.37,6.37,0,0,0-5.12-2.07,6.51,6.51,0,0,0-5.48,2.8,8.86,8.86,0,0,0-1.83,5.25,3.55,3.55,0,0,0,.85,2.68A9.09,9.09,0,0,0,471.79,310.3Z"/></g><g class="cls-1"><path class="cls-2" d="M546,304.08v21.09a9.52,9.52,0,0,0,1.83,6.09,5.78,5.78,0,0,0,4.76,2.44c1.58,0,3.78-.73,6.46-2.19a3.05,3.05,0,0,1,4.63,1.22,6.73,6.73,0,0,1,1.22,3.9c0,2.56-1.46,5.12-4.27,7.43a32.32,32.32,0,0,1-21.57,7.56c-6.71,0-12.07-1.83-16.1-5.6a19.58,19.58,0,0,1-6.09-14.88V302.25a2.87,2.87,0,0,0-.37-1.83,2.92,2.92,0,0,0-1.83-.36h-6.21a3.34,3.34,0,0,1-2.32-.61c-.36-.37-.49-1.34-.49-2.81v-2.8a3.1,3.1,0,0,1,1.47-2.8L535.79,273a5.94,5.94,0,0,1,2.69-.61h5.12a2.38,2.38,0,0,1,2.07.73,5.29,5.29,0,0,1,.49,2.81v8.41a3.67,3.67,0,0,0,.61,2.44,3.87,3.87,0,0,0,2.56.61h11.58c1.58,0,2.56.24,3.05.85s.73,1.71.73,3.66v3.66c0,1.95-.25,3.41-.86,4.14a4,4,0,0,1-3.17,1.1H549.33a3.29,3.29,0,0,0-2.32.61A3.33,3.33,0,0,0,546,304.08Z"/></g></svg>