<svg id="Layer_1" data-name="Layer 1" xmlns="http://www.w3.org/2000/svg" viewBox="0 0 647.86 647.86"><defs><style>.cls-1{fill:#333;}</style></defs><title>logo-philips</title><g id="g2853"><path id="path2859" class="cls-1" d="M246.53,286.83H219.68v35h-28v-35H164.88v88h26.85v-34.6h28v34.6h26.85Zm93.4,70.29V286.83H313.08v88h48.55l4-17.67Zm-46.7-70.29H266.38v88h26.85Zm108.85,0H375.24v88h26.84Zm132.38,22.45c0-4.79,4.78-7,12.5-7a67.2,67.2,0,0,1,23.91,4.44l-2.2-19.15A104.71,104.71,0,0,0,544,285c-21.7,0-36.41,8.56-36.41,26.5,0,30.91,41.94,24.66,41.94,39,0,5.52-4.07,8.45-14,8.45-8.81,0-22.44-2.93-30.53-7L508,372.22c8.09,2.95,19.12,4.41,28,4.41,22.43,0,40.82-7.36,40.82-29.45,0-29.43-42.3-23.91-42.3-37.9m-75.74,44.54c25,0,40.81-12.89,40.81-35.34,0-24.65-16.91-33.49-44.5-33.49a302.94,302.94,0,0,0-32.72,1.84v88h26.85v-21Zm14.33-35c0,11.4-5.51,19.14-19.5,19.14h-4.4V301.64c1.57-.09,3-.09,4.4-.09,13.24,0,19.5,6.25,19.5,17.3m-359.65,35c25,0,40.82-12.89,40.82-35.34,0-24.65-16.92-33.49-44.49-33.49A303.32,303.32,0,0,0,77,286.83v88h26.85v-21Zm14.35-35c0,11.4-5.52,19.14-19.5,19.14h-4.41V301.64c1.56-.09,3-.09,4.41-.09,13.24,0,19.5,6.25,19.5,17.3"/></g></svg>