<svg id="Layer_1" data-name="Layer 1" xmlns="http://www.w3.org/2000/svg" viewBox="0 0 647.86 647.86"><defs><style>.cls-1{fill:#333;}</style></defs><title>logo-continente</title><path class="cls-1" d="M368.92,397.79a25.35,25.35,0,0,0-17-13.09,28.6,28.6,0,0,0-14.92.64c-6.36,2.22-11.74,6.72-14.4,12-2.34,4.69-2.39,5.15-2.38,22.35,0,8.54,0,12.43.17,14.46v.62l.07.15a5.06,5.06,0,0,0,.43,1.65,10.22,10.22,0,0,0,4.88,4.63,8.31,8.31,0,0,0,10.44-4.32l1-2-.09-13.57c-.08-12.86-.05-13.66.62-15.18,2.5-5.63,12.78-5.9,15.8-.41.52.95.59,2.77.59,15.26,0,13.15.05,14.26.67,15.43,1.82,3.4,3.8,4.88,7.07,5.27a8.57,8.57,0,0,0,8.46-5.09c.84-1.79.84-1.83.84-16.87C371.11,403.14,371,402,368.92,397.79Z"/><path class="cls-1" d="M285.9,385.86l-1.8-.95-17-.1c-18.72-.12-19.94,0-22.36,1.83s-2.92,2.83-3.09,5.23c-.2,2.82.36,4.35,2.25,6.09,2.17,2,4.3,2.56,9.77,2.56h4.42v16.62c0,18.86,0,19.24,2.56,22a9.26,9.26,0,0,0,2.93,2.11c3,1.12,7.18,0,9-2.39,1.93-2.58,1.85-1.79,2-20.54l.18-17.59,4.67-.2c5-.21,6.31-.58,8.36-2.3a7.33,7.33,0,0,0,2-8.36A7.45,7.45,0,0,0,285.9,385.86Z"/><path class="cls-1" d="M311,389.16a10.9,10.9,0,0,0-2.6-2.18c-1.51-.89-2-1-4.92-1-2.62,0-3.5.15-4.66.78a9,9,0,0,0-4.1,4.42c-.71,1.57-.73,2.27-.74,22.64v21l1,1.93a9,9,0,0,0,5,4.49,10.56,10.56,0,0,0,10.34-2.12c2.76-2.76,2.71-2.32,2.71-25.36C313,391.72,313,391.78,311,389.16Z"/><path class="cls-1" d="M243.18,403.57l-1-2.87c-3.35-9.89-13.33-16.68-24.5-16.68-12.28,0-22.86,8-25.14,19-.45,2.18-.52,5.29-.44,17.59.1,13.76.16,15,.77,16.19a9.43,9.43,0,0,0,5.61,4.71,10.37,10.37,0,0,0,5.8-.6,9.52,9.52,0,0,0,4-3.93c.75-1.39.78-1.94.95-16,.13-10.44.3-14.75.62-15.29a9.71,9.71,0,0,1,4.28-3.41,14.07,14.07,0,0,1,7.06,0,9.09,9.09,0,0,1,4.39,3.66c.42.83.52,3.45.52,14.75,0,8.64.14,14.26.38,15.12a9.17,9.17,0,0,0,2.25,3.28,6.59,6.59,0,0,0,3.75,2.34,8.39,8.39,0,0,0,9.59-4.3l1.07-2V403.57Z"/><path class="cls-1" d="M112,422.22a12.37,12.37,0,0,1-20.7-8.78,11,11,0,0,1,3.24-8.81,10.9,10.9,0,0,1,8.2-4,11.57,11.57,0,0,1,8.23,2.25c4.11,3.2,4.19,3.23,7.35,3.23,2.58,0,3.1-.11,4.4-1a8.32,8.32,0,0,0,3.14-9.48c-1.61-4.22-8-8.68-15.07-10.57a32.73,32.73,0,0,0-14.34,0A28.43,28.43,0,0,0,78.09,400a26.4,26.4,0,0,0-3,12.82,26.13,26.13,0,0,0,2.54,12.07,28.36,28.36,0,0,0,20.67,16.37,33.32,33.32,0,0,0,13-.53c6.45-1.82,13.61-7,14.66-10.62C128.42,421.57,118.75,416.12,112,422.22Z"/><path class="cls-1" d="M155.28,384.39a28.67,28.67,0,0,0-24,19.49c-1.1,3.16-1.14,3.49-1.14,9,0,4.57.14,6.18.66,7.85,3.4,10.8,11.78,18.49,22.36,20.49A30.27,30.27,0,0,0,171,438.87a28.77,28.77,0,0,0-15.72-54.48Zm16.31,26.46a13.23,13.23,0,0,1-25.05,7.69c-.84-1.79-.95-2.5-.95-5.64,0-4.29.63-6,3.28-8.81A12.2,12.2,0,0,1,156,400,13.14,13.14,0,0,1,171.59,410.85Z"/><path class="cls-1" d="M520.47,385.56c-1.53-.59-3.19-.65-19.47-.65H483.22L481.1,386c-6,3.07-6,10.28,0,13.36,1.66.86,2.34,1,7,1.15l5.2.2.18,17.59c.17,16.27.23,17.67.85,18.84a8.23,8.23,0,0,0,5.25,4.33,7.66,7.66,0,0,0,7.34-1.88c2.94-2.59,2.88-2.14,3-21.7l.1-17.27,4.74-.16c3.89-.14,5-.3,6.2-.92,2.64-1.36,4.82-4.48,4.82-6.9C525.79,390,523.25,386.63,520.47,385.56Z"/><path class="cls-1" d="M415.89,428.32c-1.85-.86-2.07-.88-11.41-.88-9.16,0-9.58,0-11.12-.81a5.82,5.82,0,0,1-2.14-1.8,1.47,1.47,0,0,1,0-1.93,6.71,6.71,0,0,1,1.55-1.71c1-.71,1.57-.76,11.3-.93,9.95-.17,10.36-.21,12-1a6.68,6.68,0,0,0,2.81-2.51c.95-1.49,1.05-1.89.93-4.06-.1-2-.29-2.61-1.21-3.76a9.72,9.72,0,0,0-2.67-2.18c-1.51-.77-2-.8-10.45-.8-10.25,0-11.9-.24-13.57-2-1.37-1.41-1.31-2.56.19-3.95s3.48-1.62,13.15-1.63c8.07,0,9.24-.08,10.51-.67a6.58,6.58,0,0,0,4.13-6.35,7.09,7.09,0,0,0-5.94-7c-3.09-.64-20.49-.28-23.11.49-10.27,3-16.28,12.23-13.86,21.33a21.36,21.36,0,0,0,2.58,5.72c.56,1,.6,1.27.22,1.79-.25.35-1,1.78-1.71,3.17a16.36,16.36,0,0,0,3.5,18.84,22.72,22.72,0,0,0,11.94,5.83c2.58.34,19.82.22,21.18-.15A7,7,0,0,0,415.89,428.32Z"/><path class="cls-1" d="M339.78,245.84a11.16,11.16,0,0,0,12.5-6.49c.88-2,1-2.52.83-5.12-.19-3.68-1.33-5.93-4.4-8.72a42.93,42.93,0,0,0-17.42-9.44,49.31,49.31,0,0,0-18.23-.38,39.6,39.6,0,0,0-19.62,10.13,40.86,40.86,0,0,0-1.09,58.64,37.64,37.64,0,0,0,10.77,7.8,40.8,40.8,0,0,0,11,3.68,42.62,42.62,0,0,0,8.17.36,31.91,31.91,0,0,0,9.15-1.08,42.63,42.63,0,0,0,17.73-9.86c3.15-3,3.79-4.5,3.8-8.64,0-3.93-.73-5.92-3-8.15a11.53,11.53,0,0,0-12.61-2.22,19,19,0,0,0-3.77,2.55,24.84,24.84,0,0,1-3.77,2.73,18.22,18.22,0,0,1-23-4.85,18.24,18.24,0,0,1,9-28.46c2-.66,2.95-.77,6.14-.66,3.63.12,3.93.2,6.81,1.64a30.09,30.09,0,0,1,5.13,3.33C336.42,244.77,337.3,245.25,339.78,245.84Z"/><path class="cls-1" d="M542.77,421.19c1-.71,1.57-.76,11.31-.93s10.35-.21,12-1a6.19,6.19,0,0,0,3.77-5.08c.24-2.55-.17-4.15-1.43-5.59-2.14-2.45-2.24-2.47-13.56-2.68s-12.25-.38-13.48-2.66a1.74,1.74,0,0,1,0-2.23c1.16-2.24,2.16-2.43,13.52-2.63,11.13-.2,11.32-.23,13.32-2.39a5.52,5.52,0,0,0,1.75-4.69,6.59,6.59,0,0,0-3.82-6.24c-1.72-.84-1.89-.86-12.33-.86-10.06,0-10.72.05-13.28.84-12.38,3.84-17.61,16.15-11.16,26.31l1,1.64-1,1.52A16.93,16.93,0,0,0,528.22,431c1.23,2.64,5.34,6.75,8.18,8.18a26.46,26.46,0,0,0,7.15,2.35c.6.08,5.6.13,11.13.1,11.31,0,11.75-.13,14-2.86a5.11,5.11,0,0,0,1.22-3.59,6.52,6.52,0,0,0-2.53-6.08c-2.09-1.55-3.1-1.68-13-1.68-9,0-9.44,0-10.93-.81a6.28,6.28,0,0,1-2.14-1.8c-.52-.89-.53-1.1,0-1.94A7,7,0,0,1,542.77,421.19Z"/><path class="cls-1" d="M457.69,384.69a30,30,0,0,0-14.61.52c-6.42,2.1-12.21,7-14.81,12.44-2.4,5-2.42,5.26-2.42,22.07v15.07l1,2.07a8.22,8.22,0,0,0,13.3,2.49c1.38-1.32,2.06-1.94,2.4-4.23l.16-.33V433.7c.18-2.39.17-6.16.18-12.54,0-15.81,0-15.51,2.78-17.64a10.45,10.45,0,0,1,7.23-1.74,10,10,0,0,1,6,3.39l.85,1.26v13.85c0,15.24.07,15.82,2.2,18.4a7.62,7.62,0,0,0,6.41,2.9,8.1,8.1,0,0,0,7.87-5.17c.7-1.54.73-2.3.74-16.54,0-13.59-.06-15.17-.69-17.64C474.06,393.5,467.09,386.93,457.69,384.69Z"/><path class="cls-1" d="M316.17,249.39a8.38,8.38,0,0,0,2.63,14.11A8.25,8.25,0,0,0,329,252.09,8.17,8.17,0,0,0,316.17,249.39Z"/><path class="cls-1" d="M386.18,234.19a68.86,68.86,0,0,0-26.81-35.27A68.2,68.2,0,0,0,270.6,301a70,70,0,0,0,27,18.61,73.91,73.91,0,0,0,20.08,4.24,46.52,46.52,0,0,0,9-.13,67.62,67.62,0,0,0,24.58-6.59A85.7,85.7,0,0,0,364.13,309a103,103,0,0,0,10.21-10.25A68.49,68.49,0,0,0,386.18,234.19Zm-12.83,32a56.19,56.19,0,0,1-4.57,13.05C361.37,294,347,304.92,331.11,307.77a75.51,75.51,0,0,1-16.15.5,58,58,0,0,1-18.07-5.8A49.58,49.58,0,0,1,285,293.7a52.25,52.25,0,0,1-15-26.46c-.85-3.6-.94-4.68-.95-11.34,0-8.19.33-10.6,2.49-17.1a53.1,53.1,0,0,1,39.41-35c4.91-1.06,15.63-1.16,20.44-.18A54,54,0,0,1,373.52,246C374.5,250.92,374.41,261.26,373.35,266.2Z"/></svg>