<svg viewBox="0 0 337.428 82.083" preserveAspectRatio="xMidYMid meet" xmlns="http://www.w3.org/2000/svg"><path fill="#fff" d="m311.111 24.042c.836-.152 1.666-.025 2.515-.365.842-.337.703-1.233.38-1.951-.688-1.527-3.868-1.16-5.144-.843-3.729.928-5.963 4.554-6.589 8.121-.404 2.308-.505 4.708-.556 7.046-.038 1.752.254 3.824-1.081 5.209-.987 1.023-3.103 1.464-4.163.295-.498-.549-.459-1.322-.08-1.924.275-.438.662-.812 1.019-1.186.286-.152.293-.33.021-.529-.39.174-.488.377-.76 0-1.642.738-3.859 1.291-5.228 2.5-1.326 1.173-.944 3.048.748 3.55 3.635 1.088 8.276.746 11.424-1.521 1.202-.865 2.005-2.104 2.272-3.565.407-2.213.487-4.5.719-6.736.232-2.274.563-4.469 1.406-6.606.3-.754.601-1.916 1.385-2.321.726-.375 1.208.913 1.712.826-.038.007-.069.012 0 0z"/><path fill="#fff" d="m118.746 20.705c.679.132 2.736 0 3.044-.797.289-.75.2-1.704.408-2.497.243-.929.614-1.815 1.027-2.681.71-1.487 1.374-3.06 2.344-4.4.484-.669 1.063-1.272 1.749-1.737.761-.515 1.583-.418 2.448-.562-.538-1.581-2.501-.374-3.622-.31-1.62.101-2.918.967-3.903 2.215-1.029 1.303-1.928 2.815-2.674 4.292-.471.932-.886 1.89-1.298 2.848-.229.534-.458 1.069-.695 1.6-.092.203-.606.952-.512 1.189.358.89 1.01.936 1.684.84z"/><path fill="#fff" d="m118.746 20.705c-.674.096.453.088 0 0z"/><path fill="#fff" d="m175.485 35.912c-.056.105-.064.116 0 0z"/><path fill="#fff" d="m114.204 29.912c-.003-.004-.008-.007-.012-.011.113.143.418.531.012.011z"/><path fill="#fff" d="m143.375 33.297c.004-.001.006-.003.011-.005-.423.118-1.99.559-.011.005z"/><path fill="#fff" d="m133.377 41.547c-.014-.007-.026-.015-.043-.022.015.008.028.016.043.022z"/><path fill="#fff" d="m175.994 34.996c1.941-3.5 1.756-7.427-.024-10.956-.847-1.676-2.115-2.802-3.736-3.712-.84-.471-1.707-.888-2.566-1.319-.533-.267-2.101-.792-2.162-1.535-.049-.682.904-.916 1.356-1.081.731-.266 1.406-.659 2.074-1.053.666-.394 1.336-.795 2.062-1.077.362-.142.739-.251 1.127-.315.438-.072.358-.148.574-.527-.273.01-.53.052-.796.074.018-.028.021-.042.037-.074-5.033.21-9 2.542-13.096 5.331 1.394.466 3.057 1.472 4.509.567 1.226-.762 3.35.292 4.491.978 2.32 1.394 5.295 4.516 2.325 6.837-1.214.948-2.647 1.563-3.821 2.579-1.292 1.119-2.176 2.532-3.57 3.57-1.312.978-2.643 1.91-4.087 2.681-1.642.877-3.109 2.187-4.795 2.955-.482-.475.162-2.145.299-2.711.286-1.175.668-2.313 1.12-3.437.467-1.159.975-2.302 1.491-3.44.478-1.051 1.23-2.212 1.483-3.339.227-1.012-1.417-.75-1.968-.766-1.167-.034-2.005.819-2.89 1.487-.969.732-1.935 1.474-2.883 2.233-.84.673-1.655 1.5-2.622 1.988-.451-.417-.341-1.316-.397-1.864-.078-.785-.177-1.576-.35-2.346-.249-1.107-.786-2.325-1.948-2.711-3.078-1.021-6.152 1.806-9.111 2.059-.143-1.858.558-3.582 1.092-5.357.578-1.923 1.574-3.535 2.34-5.375.711-1.706 1.224-3.47 2.034-5.14.398-.822.84-1.623 1.333-2.392.408-.636.871-1.523 1.536-1.926.654.448 1.015 1.546 1.385 2.218.131-.222.284-.422.426-.614.104.196.204.38.333.614.255-.426.824-.907.819-1.441-.006-.748-.065-1.495-.154-2.237-.072-.6-.053-1.452-.397-1.972-.352-.529-.962-.387-1.484-.44-.92-.093-2.462 1.022-3.155 1.575-1.107.884-1.81 2.408-2.493 3.623-3.07 5.462-4.741 11.592-6.844 17.464-1.022 2.859-2.023 5.694-3.845 8.158-1.75 2.368-3.769 4.958-6.061 6.823-.854.696-2.155 1.959-3.293 1.491-1.064-.437-1.816-1.36-2.189-2.433-.398-1.144-.441-2.469-.236-3.655.108-.628.304-1.24.583-1.813.273-.56.911-1.18.754-1.854-.13-.559-.665-.877-1.025-1.275-.433-.475-.48-.937-.686-1.511-.329-.926-1.158-1.376-2.079-1.548-2.779-.518-5.476.679-7.747 2.184-2.131 1.412-3.761 3.422-5.121 5.561-1.425 2.239-2.644 4.829-1.731 7.517.755 2.227 3.131 1.68 4.873 1.029 1.271-.475 2.522-1.016 3.69-1.711.587-.348 1.152-.734 1.684-1.164.609-.493 1.079-.592 1.709-.069 1.027.853 1.719 2.034 2.98 2.604 1.176.522 2.606.515 3.866.383 1.188-.124 2.354-.502 3.401-1.071 1.122-.608 1.798-1.463 2.696-2.307.361.692-.308 2.007-.499 2.707 3.287 2.033 7.077 1.63 10.521.258 3.187-1.271 6.273-2.559 8.586-5.184 1.007-1.143 1.765-2.418 2.609-3.674.435-.648.999-1.195 1.662-1.607.474-.294 1.599-1.033 2.066-.601.642.592.32 1.638.135 2.339-.266 1.006-.539 2.012-.814 3.017-.528 1.924-1.144 3.83-1.439 5.803.521.046 1.057.073 1.561.136.615.076 1.292-.44 1.822-.703 1.327-.648 2.65-1.313 3.918-2.078 1.257-.756 2.448-1.62 3.62-2.502 1.125-.848 2.218-1.875 3.439-2.572.464.521.451 1.57.572 2.225.188 1.022.376 2.047.563 3.069.086.468-.044.741.475.794.302.031.56.037.858.012.886.1 1.643-.185 2.445-.522 2.855-1.202 5.271-3.216 6.78-5.932zm-61.519-1.657c-.22 1.53-.531 2.803-1.481 4.073-.793 1.059-1.827 1.906-2.924 2.635-.562.375-1.141.719-1.727 1.053-.722.413-1.291-.001-1.723-.652-2.154-3.242 5.27-13.374 7.572-10.546-.044-.056-.061-.078.012.011.357.458.8.931.866 1.536.079.709-.498 1.212-.595 1.89zm24.844 6.929c-.867.507-1.813.881-2.79 1.125-.849.211-2.33.604-3.151.154.052.027.078.043-.001 0-.313-.169-.161-.087-.043-.022-.856-.468-1.704-.916-1.134-2.001.512-.974 1.792-1.698 2.764-2.125 1.259-.554 2.606-.954 3.913-1.384 1.273-.419 2.852-1.225 4.17-1.043-.41 2.32-1.676 4.097-3.728 5.296zm4.067-6.976c.118-.032.152-.042-.011.005-1.392.389-2.779.787-4.169 1.179-.631.178-1.264.354-1.896.528-.486.134-1.529.676-1.943.208-.466-.533.272-2.399.478-2.955.387-1.05.968-2.019 1.683-2.878.648-.779 1.457-1.704 2.449-2.032.592-.196 1.998-.399 2.42.09.749.87 1.028 2.32 1.371 3.384.304.949.933 2.087-.382 2.471zm28.825 1.48c-.289.914-1.16 1.548-1.856 2.142-.25-.213-.488-.438-.742-.646.07-.443.152-.885.253-1.321.202-.909.477-1.804.854-2.656.244-.552 2.152-4.2 3.03-3.142.32.387.4 1.024.402 1.508.004.769-.571 1.06-.957 1.668-.476.748-.728 1.607-.984 2.447z"/><path fill="#fff" d="m170.354 36.914c.754-.644-.261-.223 0 0z"/><path fill="#fff" d="m175.994 34.996c-.289.52-.438.791-.51.916.262-.469 1.396-2.512.51-.916z"/><path fill="#fff" d="m215.547 28.667c.076.202.479 1.261-.002-.006-.016-.039-.013-.032-.001-.002-.354-.917-1.32-1.066-2.17-1.402-1.021-.404-2.046-.791-3.087-1.138-.988-.334-2.063-.331-3.098-.285-1.233.056-2.463.508-3.668.232.25-.683.397-.985.939-1.507.551-.531 1.104-1.06 1.659-1.587 1.199-1.143 2.406-2.281 3.607-3.425 2.196-2.095 4.479-4.16 6.375-6.54.851-1.065 1.627-2.187 2.33-3.353.7-1.161 1.556-2.4 1.349-3.822-.087-.591-.337-1.154-.722-1.611-.344-.412-.324-.774-.564-1.233-.49-.936-1.839-1.049-2.768-1.146-1.428-.149-2.93-.151-4.34.133-.705.142-1.38.446-2.091.545-.847.119-1.718.13-2.571.236-.608.076-1.191-.069-1.703-.421-.461-.316-1.043-.246-1.603-.215-.956-.039-2.003.039-2.774.666-1.586 1.289-1.299 3.765-3.379 4.65-1.045.445-2.043.448-2.844 1.376-.688.797-1.299 2.227-.412 3.111.416.415.896.245 1.387.311.56.073 1.059-.14 1.317-.653.707-1.396.453-2.668 2.138-3.355.475 1.486.301 2.759.072 4.283-.205 1.369-1.055 2.559-1.306 3.947-.569 3.155-1.149 6.214-2.048 9.299-.888 3.052-1.806 6.094-2.957 9.057-.521 1.338-1.074 2.666-1.583 4.008-.5 1.321-.788 2.704-1.448 3.966-.615 1.174-1.597 1.941-2.351 2.998-.319.451-.885 1.071-.979 1.633-.087.519.571.851 1.013.769.361-.067.635.056 1-.05.373-.106.73-.27 1.078-.439.676-.332 1.59-.742 2.057-1.363.715-.945 1.229-2.412 1.596-3.537.431-1.322.646-2.699.969-4.05.296-1.248.688-2.486 1.38-3.578.28-.44.198-.924.37-1.423.2-.582.509-1.152.513-1.783.002-.499-.345-.817-.025-1.262.349-.491.968-.641 1.5-.862 1.512-.626 3.042-1.342 4.603-1.835 1.402-.444 2.889-.513 4.351-.443 1.625.078 2.53.664 3.671 1.796.921.915 1.99 1.964 2.396 3.231.166.522.061 1.038.17 1.561.131.626.715.696 1.061 1.146.318.416.016.891-.29 1.207-.437.439-.666.817-.756 1.429-.191 1.295-.604 2.55-1.207 3.71-2.478 4.766-7.56 8.084-12.313 10.234-5.324 2.418-11.406 4.405-17.15 2.112-1.355-.541-2.67-1.188-3.948-1.891-1.153-.634-2.508-1.244-3.33-2.313-.587-.765-.797-1.709-.689-2.658.063-.541.213-1.07.409-1.58.271-.703.08-1.236.037-1.963-.229.105-.481.188-.723.275-.016-.092-.032-.188-.036-.275-.505.234-1.163.314-1.551.752-.356.394-.563.888-.72 1.388-.16.509-.276 1.03-.482 1.524-.219.521-.887 1-.85 1.563.153 2.267 1.563 4.21 3.61 5.135 1.367.616 2.8 1.115 4.206 1.636 1.479.547 2.961 1.182 4.545 1.332 1.393.133 2.844.104 4.161-.41 1.269-.508 3.05-.183 4.4-.314 3.041-.303 5.617-1.365 8.281-2.807 2.73-1.479 5.512-2.959 8.053-4.754 2.291-1.619 4.209-3.883 5.935-6.076.826-1.053 1.409-2.113 1.748-3.406.324-1.239.952-2.377 1.233-3.629.256-1.128.068-2.169-.12-3.29-.208-1.208-.426-2.415-.86-3.559zm-15.256-3.179c-.471.316-.938.629-1.411.942-.338.224-.879.758-1.287.758.189-1.656 1.004-3.148 1.24-4.827.104-.759.069-1.844.449-2.523.36-.648 1.073-1.094 1.313-1.821.092-.281.023-.545-.186-.755.196-.442.399-.883.604-1.324.323-.706.649-1.41.965-2.12.672-1.51 1.244-3.056 1.797-4.612.287-.807.594-1.609.852-2.426.146-.464.41-1.628.999-1.759 1.771-.4 3.551-.758 5.331-1.11 1.527-.302 2.603-.404 3.736.837.815.889 1.316 2.193.996 3.394-.015.051-.012.042 0 .003-.121.457.031.937-.088 1.413-.125.498-.261.999-.483 1.462-.507 1.045-1.312 1.99-2.077 2.852-1.578 1.771-3.225 3.523-4.852 5.249-1.551 1.645-3.299 3.091-5.119 4.426-.912.667-1.841 1.309-2.779 1.941z"/><path fill="#fff" d="m101.925 34.41c-.65-.018-1.301-.032-1.951-.041-1.3-.019-2.601-.021-3.9-.006-1.173.013-2.345.01-3.515.088-.677.045-2.323.485-2.444-.592-.104-.899.558-2.069.845-2.903.42-1.217.849-2.43 1.295-3.637.887-2.402 1.873-4.774 2.682-7.203.719-2.158 1.453-4.202 2.581-6.188 1.135-2 2.281-4.021 3.503-5.97 1.013-1.614 2.197-3.135 3.663-4.363.788-.66 1.652-1.134 2.52-1.673.809-.502.69-1.218.181-1.922-.198.101-.4.19-.604.283-.059-.096-.081-.176-.157-.283-1.647.842-3.508 1.261-5.021 2.36-1.716 1.247-2.91 3.342-4.127 5.044-1.208 1.688-2.559 3.021-3.409 4.942-.283.641-.422.77-1.079.77-.424 0-.849 0-1.271 0 0 .911-.008 1.801-.197 2.699-.312 1.48-1.007 2.807-1.432 4.246-.877 2.964-1.248 6.031-2.236 8.973-.495 1.475-.985 2.952-1.4 4.452-.214.771-.402.71-.965 1.317-.499.538-1.285.632-1.977.696-4.339-.043-8.063.547-9.089.623-2.675.199-1.5.25-6.417.25-2.686 0-4.166.795-6.844.824-1.256.012-2.515.021-3.769.08-.577.027-1.152.09-1.729.115-.588-.063-1.153-.257-1.743-.307-1.124-.092-2.3.051-3.42.149-1.18.104-2.692-.021-3.63.72.147.17.261.437.438.5-.027-.008-.036-.01.007.004.334.101.165.047.049.013 2.334.683 5.067.419 7.482.495 2.636.085 5.272.16 7.91.197 2.624.037 1.511.196 5.46-.457 1.299-.215 2.82-.078 4.136-.127 2.531-.099 6.258-.623 7.82-.791 1.437-.162 2.645-.48 4.089-.563 1.339.184.26 2.428.036 3.121-.938 2.903-2.145 5.751-3.449 8.508-2.52 5.323-6.225 9.914-10.519 13.923-2.222 2.074-4.75 3.68-7.266 5.363-2.609 1.747-5.213 3.497-8.044 4.867-2.802 1.357-5.5 2.754-8.468 3.721-2.957.962-5.952 1.814-8.998 2.443-3.651.754-7.401 1.213-11.134 1.076-3.819-.141-7.545-1-11.278-1.746-3.672-.733-6.966-1.752-10.258-3.58-1.924-1.076-2.344-2.018-4.762-3.633-.207.111.081 1.764-.12 1.875.408.42.718.928 1.07 1.395.769 1.011 1.662.77 2.585 1.646.466.442 1.029.774 1.489 1.217.359.345.671.9 1.059 1.234.766.66 1.908.797 2.875.908 1.341.156 2.632.527 3.923.909 1.596.472 3.2.677 4.848.876 3.231.393 6.479.699 9.735.729 3.191.026 6.386-.102 9.517-.768 3.137-.668 6.214-1.71 9.232-2.781 2.945-1.047 5.892-2.121 8.693-3.518 2.775-1.383 5.386-3.064 8.02-4.691 2.104-1.302 4.212-2.609 6.176-4.117 2.064-1.586 3.92-3.414 5.764-5.244 3.434-3.408 6.677-6.768 8.902-11.121 1.113-2.176 1.921-4.488 2.747-6.783.436-1.211.872-2.423 1.344-3.62.392-.991.853-2.143 1.848-2.68 2.021-1.092 5.068-.362 7.109.277 1.974.619 4.658-.533 5.962-1.998-.291-.192-.589-.614-.973-.622z"/><path fill="#fff" d="m262.907 24.909c-.181-.218-.361-.437-.541-.658-.175.098-.336.201-.509.305-.084-.102-.17-.204-.25-.305-2.984 1.702-6.281 3.247-9.512 4.438-.471-.34-.371-1.24-.457-1.738-.125-.731-.401-1.346-1.158-1.579-.234-.072-.36-.009-.588.078-.428-.2-.715-.016-1.125.142-.828.32-1.656.647-2.441 1.063-1.576.833-2.95 2.088-4.309 3.229-1.275 1.074-2.621 2.627-4.168 3.289.037-.873.058-1.454.482-2.213.451-.801.934-1.584 1.354-2.4.799-1.544 1.174-3.249 1.5-4.945-1.229-.184-2.309-.095-3.545.06-.492.062-.937-.03-1.371-.275-.487-.275-.756-.751-1.332-.855-2.137-.386-4.67-.147-6.729.511-2.046.654-3.876 1.836-5.448 3.285-.826.762-1.654 1.566-2.18 2.572-.55 1.054-1.271 1.988-1.813 3.04-.545 1.058-.892 2.205-1.155 3.361-.122.528-.229 1.06-.332 1.593-.13.662.118 1.332.224 1.98.263 1.638-.092 3.585 2.06 3.957 2.115.365 4.336-.322 6.17-1.342 1.996-1.109 3.688-2.832 5.75-3.801 1.01.926.574 3.371.617 4.566.242-.074.5-.138.756-.201 0 .067 0 .136.006.201 1.355-.423 2.523-.891 3.736-1.655 1.336-.841 1.789-2.343 2.652-3.602.946-1.382 2.057-2.639 3.178-3.877.531-.586 1.082-1.154 1.541-1.8.52-.727.944-1.598 1.58-2.231.678.5 1.072 1.588.762 2.389-.371.957-1.494 1.518-2.188 2.227-.756.772-1.409 1.635-2.07 2.486-.257.328-.658.726-.611 1.184.051.462.688.951.97 1.309-1.064.469-1.89 1.131-1.066 2.258.498.686 1.09 1.286 1.573 1.987.306.443.313.555.836.525.396-.02.589.269.946.377 1.38.412 2.936-.659 3.718-1.75.464-.645.587-1.356.712-2.125.152-.93.43-1.833.693-2.736.264-.896.521-1.801.63-2.731.094-.794.175-1.547.521-2.281.594-1.25 1.703-2.105 2.867-2.792 1.475-.869 3.067-1.476 4.625-2.172 1.551-.688 2.894-1.688 4.439-2.348zm-30.386 7.295c-.133.904-.172 1.723-.754 2.474-.608.786-1.429 1.458-2.178 2.106-1.463 1.266-3.259 2.867-5.104 3.53-1.99.718-2.664-1.971-2.967-3.34-.207-.946-.387-1.615-.123-2.555.242-.86.528-1.709.873-2.534.654-1.564 1.531-3.039 2.676-4.295 1.184-1.3 2.668-2.388 4.236-3.179.817-.412 1.604-.607 2.435-.126.668.388 1.05 1.082 1.114 1.842.02.188.016.145.004.031.096.956.388 1.819.309 2.797-.091 1.095-.363 2.164-.521 3.249z"/><path fill="#fff" d="m277.771 2.768c-.365-.267-.07-.051 0 0z"/><path fill="#fff" d="m265.583 39.385c-.001.005.001.009 0 .015.002-.015.005-.031.008-.048-.002.011-.006.021-.008.033z"/><path fill="#fff" d="m277.771 2.768c.002.001.004.002.006.004.016.013.008.007-.006-.004z"/><path fill="#fff" d="m270.915 27.745c-.011.009-.021.018-.029.026.013-.012.025-.022.029-.026z"/><path fill="#fff" d="m277.774 2.772c-.868-.636-2.516-.451-3.486-.156-1.374.417-1.815 1.083-2.163 2.413-.354 1.354-.571 2.786-1.146 4.07-.603 1.349-1.414 2.58-1.971 3.954-.979 2.416-1.744 4.967-2.869 7.318-.225.469-.498.917-.852 1.301-.354.386-.931.586-1.244.973-.375.458-.365 1.343-.48 1.904-.182.885-.363 1.771-.467 2.669-.147 1.329-.115 2.566-.644 3.826-.493 1.176-1.251 2.211-2.012 3.225-.819 1.094-1.618 2.197-2.328 3.369-.489.811-1.583 2.24-.551 3.126 2.185 1.822 4.771 2.914 7.623 2.499 2.498-.363 4.666-1.744 6.25-3.684 1.422-1.748 2.752-3.59 3.892-5.537.559-.956 1.063-1.94 1.543-2.938.481-1.007 1.045-1.992.893-3.148-.709-5.374-7.381-1.84-10.063-.498-.482-.424.083-1.411.229-1.846.34-.994.682-1.987 1.024-2.98.644-1.862 1.293-3.723 1.939-5.584.25-.725.615-1.409.799-2.157.219-.894.386-1.758.736-2.616.344-.836.77-1.635 1.217-2.418.354-.614.726-1.655 1.34-2.036.263.412.361.97.824 1.071.068-.207.144-.413.211-.621.207.367.084.522.547.62.207-.604.398-1.19.526-1.816.119-.583.47-.804.72-1.304.232-.47.148-1 .086-1.499-.05-.44.236-1.238-.123-1.5zm-7.755 34.8c-.867 1.402-1.98 2.493-3.371 3.373-.804-.273-1.188-.719-1.063-1.545-.024.152-.034.203 0-.015.269-1.619.086-.501.008-.034.234-1.38.828-2.688 1.867-3.646.534-.492 1.159-.879 1.823-1.172.632-.279 1.704-1.192 2.397-1.126-.048 1.454-.902 2.93-1.661 4.165zm.867-9.801c-.183.162-1.021.896.029-.026.007-.005.006-.005.001 0 .75-.634 2.107 1.098 2.629 1.55-.09 1.358-.985 2.629-2.19 3.242-1.541.785-3.271 1.306-4.854 2.024-.473.214-1.264.582-1.211-.287.045-.775.996-1.682 1.461-2.264 1.221-1.533 2.663-2.945 4.135-4.239z"/><path fill="#fff" d="m337.329 39.393c-1.824.174-5.105.269-6.301-1.638-.597-.951-.456-2.195-.336-3.253.085-.742.218-1.479.354-2.213.112-.608.373-1.345.31-1.971-.055-.531-.595-.659-.802-1.098-.231-.494-.174-1.008-.249-1.53-.163-1.128-.811-2.251-1.678-2.987-.809-.686-1.751-.717-2.759-.596-1.519.183-3.045.463-4.459 1.057-5.179 2.171-8.18 6.786-10.102 11.843-.479 1.27-.848 2.453-.38 3.789.464 1.298 1.593 1.652 2.867 1.633 2.705-.042 5.623-1.497 7.756-3.152 1.203-.936 2.346-2.298 3.681-.762.904 1.042 1.248 2.32 2.661 2.845 1.38.512 2.983.142 4.363-.146 1.842-.385 3.471-.811 5.17-1.611-.03-.066-.067-.143-.096-.21zm-12.266-5.493c-.61 1.162-1.675 1.946-2.731 2.672-1.276.875-5.445 5.149-6.776 2.782-.754-1.339-.292-2.903.107-4.285.438-1.514.931-2.959 1.938-4.195.911-1.119 2.047-2.005 3.146-2.93.938-.792 2.307-2.603 3.486-1.175.606.731 1.285 1.689 1.194 2.695-.096 1.07-1.203 1.706-1.962 2.31.611.023 1.264.039 1.77.458.463.387.044 1.255-.172 1.668z"/><path fill="#fff" d="m287.925 31.917c.002-.005.001-.01.003-.015-.008.021-.016.043-.022.068.004-.018.013-.035.019-.053z"/><path fill="#fff" d="m292.237 26.74c.109.188.213.364-.012-.021-.205-.352-.117-.198-.014-.02-1.208-2.027-3.287-.38-4.82.195-1.72.645-3.604 1.708-4.418 3.43-.961 2.036-1.949 4.06-2.92 6.091-.467.975-.869 1.994-.973 3.078-.056.58-.446 2.21.151 2.625.418.287 1.539.121 1.994-.011 1.097-.317 2.111-.635 3.099-1.228 1.686-1.012 3.299-2.174 4.68-3.582 2.468-2.51 5.215-7.093 3.233-10.557zm-4.312 5.177c-.253.732-.111.314-.021.053-.401 1.147-1.004 2.216-1.645 3.246-.556.895-1.185 1.924-2.15 2.416-1.068-1.006.568-2.792 1.102-3.734.653-1.157 1.284-3.333 2.623-3.819.092.627.269 1.285.097 1.823.033-.106.048-.15-.006.015z"/></svg>
