<svg id="Layer_1" data-name="Layer 1" xmlns="http://www.w3.org/2000/svg" xmlns:xlink="http://www.w3.org/1999/xlink" viewBox="0 0 647.86 647.86"><defs><clipPath id="clip-path"><path class="cls-2" transform="rotate(-47.78 100.62 354.167)" d="M78.87 332.07h43.5v44.18h-43.5z"/></clipPath><clipPath id="clip-path-2"><path class="cls-2" transform="rotate(-5.59 215.747 318.41)" d="M208.9 317.68h13.49V319H208.9z"/></clipPath><clipPath id="clip-path-3"><path class="cls-2" transform="rotate(-14.56 294.05 357.7)" d="M279.41 345.33h29.27v24.73h-29.27z"/></clipPath><clipPath id="clip-path-4"><path class="cls-2" transform="rotate(-47.78 403.677 354.152)" d="M381.95 332.07h43.49v44.18h-43.49z"/></clipPath><clipPath id="clip-path-5"><path class="cls-2" transform="rotate(-19.54 460.373 352.156)" d="M440.21 332.68h40.46v39.03h-40.46z"/></clipPath><clipPath id="clip-path-6"><path class="cls-2" transform="rotate(-21.7 493.208 290.935)" d="M472.37 271.23h41.57v39.4h-41.57z"/></clipPath><clipPath id="clip-path-7"><path class="cls-2" transform="rotate(-14.56 581.326 357.723)" d="M566.63 345.33h29.27v24.73h-29.27z"/></clipPath><clipPath id="clip-path-8"><path class="cls-19" d="M105 299a31.79 31.79 0 018.63 14.93h13.85a45.21 45.21 0 00-13-24.59z"/></clipPath><clipPath id="clip-path-9"><path class="cls-19" d="M82.2 276.32l.12 13.55h.27a32 32 0 0122.57 9.31l9.59-9.59a45.5 45.5 0 00-32.16-13.28h-.39"/></clipPath><clipPath id="clip-path-10"><path class="cls-19" d="M50.19 289.9l9.67 9.51a31.76 31.76 0 0122.73-9.54v-13.56a45.32 45.32 0 00-32.4 13.59"/></clipPath><clipPath id="clip-path-11"><path class="cls-19" d="M37.16 321.75v.39l13.56-.14v-.27a31.76 31.76 0 019.34-22.54l-9.59-9.59a45.3 45.3 0 00-13.31 32.13"/></clipPath><clipPath id="clip-path-12"><path class="cls-19" d="M37.16 321.75a45.32 45.32 0 0013.59 32.4l9.51-9.67a31.75 31.75 0 01-9.54-22.73z"/></clipPath><clipPath id="clip-path-13"><path class="cls-19" d="M50.47 353.87a45.29 45.29 0 0032.12 13.31H83l-.12-13.56h-.28a31.76 31.76 0 01-22.53-9.34z"/></clipPath><clipPath id="clip-path-14"><path class="cls-19" d="M82.59 353.62v13.56a45.36 45.36 0 0036.05-17.78l-10.76-8.25a31.81 31.81 0 01-25.29 12.47"/></clipPath><clipPath id="clip-path-15"/><clipPath id="clip-path-16"><path class="cls-19" d="M185.14 289.89a23.93 23.93 0 0123.73 24v4.46h13.56v-4.46a37.51 37.51 0 00-37.29-37.55z"/></clipPath><clipPath id="clip-path-17"><path class="cls-19" d="M154.56 288.71v27.53c2.05-10.89 11.69-26.35 30.18-26.35h1v-13.55h-1a42.77 42.77 0 00-30.19 12.38"/></clipPath><clipPath id="clip-path-18"><path class="cls-19" d="M281.38 353.62v13.56a45.19 45.19 0 0025.32-7.72l-7.56-11.26a31.65 31.65 0 01-17.76 5.42"/></clipPath><clipPath id="clip-path-19"><path class="cls-19" d="M248.87 289.9l9.68 9.51a31.75 31.75 0 0122.73-9.54v-13.56a45.35 45.35 0 00-32.41 13.59"/></clipPath><clipPath id="clip-path-20"><path class="cls-19" d="M235.85 322.14l13.56-.12v-.27a31.75 31.75 0 019.33-22.54l-9.59-9.59a45.32 45.32 0 00-13.3 32.52"/></clipPath><clipPath id="clip-path-21"><path class="cls-19" d="M235.85 321.75a45.28 45.28 0 0013.59 32.4l9.5-9.67a31.78 31.78 0 01-9.53-22.73z"/></clipPath><clipPath id="clip-path-22"><path class="cls-19" d="M249.15 353.87a45.33 45.33 0 0032.53 13.31l-.12-13.56h-.28a31.78 31.78 0 01-22.54-9.34z"/></clipPath><clipPath id="clip-path-23"><path class="cls-19" d="M280.88 276.32l.12 13.55h.28a32 32 0 0131.87 28.47h.66v-28.55l-.1-.1-.12-.13a46.17 46.17 0 00-32.29-13.25h-.4"/></clipPath><clipPath id="clip-path-24"><path class="cls-19" d="M408 299a31.69 31.69 0 018.62 14.93h13.86a45.28 45.28 0 00-13-24.59z"/></clipPath><clipPath id="clip-path-25"><path class="cls-19" d="M385.27 276.32l.12 13.55h.28a32 32 0 0122.57 9.31l9.58-9.59a45.48 45.48 0 00-32.15-13.28h-.4"/></clipPath><clipPath id="clip-path-26"><path class="cls-19" d="M353.27 289.9l9.67 9.51a31.75 31.75 0 0122.73-9.54v-13.56a45.31 45.31 0 00-32.4 13.59"/></clipPath><clipPath id="clip-path-27"><path class="cls-19" d="M340.24 321.75v.39l13.56-.14v-.27a31.8 31.8 0 019.33-22.54l-9.58-9.59a45.3 45.3 0 00-13.31 32.13"/></clipPath><clipPath id="clip-path-28"><path class="cls-19" d="M340.24 321.75a45.28 45.28 0 0013.59 32.4l9.5-9.67a31.78 31.78 0 01-9.53-22.73z"/></clipPath><clipPath id="clip-path-29"><path class="cls-19" d="M353.55 353.87a45.29 45.29 0 0032.12 13.31h.4l-.07-13.56h-.28a31.78 31.78 0 01-22.54-9.34z"/></clipPath><clipPath id="clip-path-30"><path class="cls-19" d="M385.67 353.62v13.56a45.38 45.38 0 0036.05-17.78L411 341.15a31.84 31.84 0 01-25.29 12.47"/></clipPath><clipPath id="clip-path-31"><path class="cls-19" d="M444.08 308.23c0 3.65.33 8.24.33 8.24l8.43 3.11 4.71-12.71c1.26-8 9.56-17 19.05-17h.29v-13.56h-.54c-19.28 0-32.27 16.41-32.27 31.92"/></clipPath><clipPath id="clip-path-32"><path class="cls-19" d="M497.36 336c0 9.84-9.27 17.58-20.32 17.58h-.86v13.56h1.1c20.73 0 33.18-16.88 33.18-33.15a26.1 26.1 0 00-.56-6.66l-.29-1.26-7.55-2.79z"/></clipPath><clipPath id="clip-path-33"><path class="cls-19" d="M444.29 340.8s4.7 25.95 32.31 26.37v-13.56c-16.75-.27-18.89-16.39-18.89-16.39z"/></clipPath><clipPath id="clip-path-34"><path class="cls-19" d="M476.6 276.31v13.56c17.79 0 19.53 15.67 19.53 15.67l13.57-3.36s-4.49-25.72-33.1-25.87z"/></clipPath><clipPath id="clip-path-35"><path class="cls-19" d="M568.6 353.62v13.56a45.19 45.19 0 0025.32-7.72l-7.55-11.26a31.71 31.71 0 01-17.77 5.42"/></clipPath><clipPath id="clip-path-36"><path class="cls-19" d="M536.09 289.9l9.68 9.51a31.75 31.75 0 0122.73-9.54v-13.56a45.35 45.35 0 00-32.41 13.59"/></clipPath><clipPath id="clip-path-37"><path class="cls-19" d="M523.07 322.14l13.56-.12v-.27a31.75 31.75 0 019.37-22.54l-9.58-9.59a45.29 45.29 0 00-13.31 32.52"/></clipPath><clipPath id="clip-path-38"><path class="cls-19" d="M523.07 321.75a45.28 45.28 0 0013.59 32.4l9.5-9.67a31.78 31.78 0 01-9.53-22.73z"/></clipPath><clipPath id="clip-path-39"><path class="cls-19" d="M536.38 353.87a45.29 45.29 0 0032.52 13.31l-.12-13.56h-.28a31.78 31.78 0 01-22.5-9.34z"/></clipPath><clipPath id="clip-path-40"><path class="cls-19" d="M568.1 276.32l.12 13.55h.28a32 32 0 0131.87 28.47h.63v-28.55l-.1-.1-.12-.13a46.17 46.17 0 00-32.29-13.25h-.4"/></clipPath><clipPath id="clip-path-41"><path class="cls-19" d="M600.37 278.31h13.56v40.03h-13.56z"/></clipPath><linearGradient id="Sfumatura_senza_nome_43" x1="-1978.44" y1="1112.76" x2="-1977.3" y2="1112.76" gradientTransform="matrix(35.08 0 0 -35.08 69477.49 39388.74)" gradientUnits="userSpaceOnUse"><stop offset="0" stop-color="#fff"/><stop offset=".27" stop-color="#fff"/><stop offset=".33" stop-color="#f4f4f4"/><stop offset=".45" stop-color="#d5d5d5"/><stop offset=".59" stop-color="#a4a4a4"/><stop offset=".77" stop-color="#606060"/><stop offset=".98" stop-color="#0a0a0a"/><stop offset="1"/></linearGradient><linearGradient id="Sfumatura_senza_nome" x1="-2015.51" y1="1349.86" x2="-2014.38" y2="1349.86" gradientTransform="matrix(0 6.24 6.24 0 -8207.45 12888.29)" gradientUnits="userSpaceOnUse"><stop offset="0" stop-color="#fff"/><stop offset="1"/></linearGradient><linearGradient id="Sfumatura_senza_nome_16" x1="-2016.45" y1="1204.03" x2="-2015.32" y2="1204.03" gradientTransform="matrix(0 19.61 19.61 0 -23409.21 39842.2)" gradientUnits="userSpaceOnUse"><stop offset="0" stop-color="#fefefe"/><stop offset=".02" stop-color="#fefefe"/><stop offset="1"/></linearGradient><linearGradient id="Sfumatura_senza_nome_43-2" x1="-1941.76" y1="1128.93" x2="-1940.63" y2="1128.93" gradientTransform="matrix(20.31 0 0 -20.31 39715.29 23286.31)" xlink:href="#Sfumatura_senza_nome_43"/><linearGradient id="Sfumatura_senza_nome_45" x1="-2004.11" y1="1115.25" x2="-2002.98" y2="1115.25" gradientTransform="matrix(0 -61.33 -61.33 0 68718.19 -122594.28)" gradientUnits="userSpaceOnUse"><stop offset="0" stop-color="#fff"/><stop offset=".22" stop-color="#fff"/><stop offset=".58" stop-color="#fff"/><stop offset=".62" stop-color="#f9f9f9"/><stop offset=".67" stop-color="#e7e7e7"/><stop offset=".73" stop-color="#cacaca"/><stop offset=".8" stop-color="#a2a2a2"/><stop offset=".87" stop-color="#6e6e6e"/><stop offset=".95" stop-color="#303030"/><stop offset="1"/></linearGradient><linearGradient id="Sfumatura_senza_nome_43-3" x1="-1977.76" y1="1112.01" x2="-1976.62" y2="1112.01" gradientTransform="matrix(35.08 0 0 -35.08 69756.72 39362.47)" xlink:href="#Sfumatura_senza_nome_43"/><linearGradient id="Sfumatura_senza_nome_4" x1="-1993.12" y1="1202.74" x2="-1991.99" y2="1202.74" gradientTransform="matrix(0 20.15 20.15 0 -23780.03 40507.67)" gradientUnits="userSpaceOnUse"><stop offset="0"/><stop offset=".07" stop-color="#1e1e1e"/><stop offset=".3" stop-color="#7d7d7d"/><stop offset=".48" stop-color="#c3c3c3"/><stop offset=".61" stop-color="#eee"/><stop offset=".68" stop-color="#fff"/><stop offset=".94" stop-color="#fff"/><stop offset="1" stop-color="#fff"/></linearGradient><linearGradient id="Sfumatura_senza_nome_6" x1="-1991.92" y1="1198.38" x2="-1990.78" y2="1198.38" gradientTransform="matrix(0 21.54 21.54 0 -25322.22 43191.33)" gradientUnits="userSpaceOnUse"><stop offset="0" stop-color="#fff"/><stop offset=".02" stop-color="#fff"/><stop offset=".22" stop-color="#fff"/><stop offset=".3" stop-color="#eee"/><stop offset=".45" stop-color="#c3c3c3"/><stop offset=".66" stop-color="#7d7d7d"/><stop offset=".92" stop-color="#1e1e1e"/><stop offset="1"/></linearGradient><linearGradient id="Sfumatura_senza_nome_43-4" x1="-1940.16" y1="1128.51" x2="-1939.03" y2="1128.51" gradientTransform="matrix(20.31 0 0 -20.31 39969.96 23277.87)" xlink:href="#Sfumatura_senza_nome_43"/><linearGradient id="Sfumatura_senza_nome_27" x1="-2001.76" y1="1097.07" x2="-2000.63" y2="1097.07" gradientTransform="matrix(0 -34.2 -34.2 0 38123.5 -68137.28)" gradientUnits="userSpaceOnUse"><stop offset="0" stop-color="#fff"/><stop offset=".32" stop-color="#fff"/><stop offset=".79" stop-color="#fff"/><stop offset="1"/></linearGradient><mask id="mask" x="38.84" y="292.38" width="123.56" height="123.56" maskUnits="userSpaceOnUse"><g clip-path="url(#clip-path)"><path transform="rotate(-47.78 100.608 354.162)" fill="url(#Sfumatura_senza_nome_43)" d="M56.88 310.43h87.47v87.47H56.88z"/></g></mask><mask id="mask-2" x="208.61" y="315.71" width="14.07" height="5.27" maskUnits="userSpaceOnUse"><g clip-path="url(#clip-path-2)"><path transform="translate(-30.07 22.59)" fill="url(#Sfumatura_senza_nome)" d="M208.77 316.37h13.75v3.95h-13.75z"/></g></mask><mask id="mask-3" x="185.14" y="276.33" width="37.29" height="42.01" maskUnits="userSpaceOnUse"><path fill="url(#Sfumatura_senza_nome_16)" d="M185.14 276.33h37.29v42.01h-37.29z"/></mask><mask id="mask-4" x="269.15" y="333.64" width="49.78" height="48.1" maskUnits="userSpaceOnUse"><g clip-path="url(#clip-path-3)"><path transform="rotate(-14.56 294.05 357.7)" fill="url(#Sfumatura_senza_nome_43-2)" d="M273.39 338.2h41.31v38.97h-41.31z"/></g></mask><mask id="mask-5" x="313.15" y="246.48" width="13.56" height="71.86" maskUnits="userSpaceOnUse"><path fill="url(#Sfumatura_senza_nome_45)" d="M313.15 246.48h13.56v71.86h-13.56z"/></mask><mask id="mask-6" x="341.92" y="292.39" width="123.56" height="123.56" maskUnits="userSpaceOnUse"><g clip-path="url(#clip-path-4)"><path transform="rotate(-47.78 403.688 354.157)" fill="url(#Sfumatura_senza_nome_43-3)" d="M359.96 310.43h87.47v87.47h-87.47z"/></g></mask><mask id="mask-7" x="419" y="310.91" width="82.9" height="82.58" maskUnits="userSpaceOnUse"><g clip-path="url(#clip-path-5)"><path transform="rotate(-19.54 460.344 352.15)" fill="url(#Sfumatura_senza_nome_4)" d="M427.91 319.93h65.06v64.53h-65.06z"/></g></mask><mask id="mask-8" x="448.7" y="246.66" width="88.91" height="88.53" maskUnits="userSpaceOnUse"><g clip-path="url(#clip-path-6)"><path transform="rotate(-21.7 493.156 290.925)" fill="url(#Sfumatura_senza_nome_6)" d="M458.83 256.95h68.64v67.97h-68.64z"/></g></mask><mask id="mask-9" x="556.37" y="333.64" width="49.78" height="48.11" maskUnits="userSpaceOnUse"><g clip-path="url(#clip-path-7)"><path transform="rotate(-14.56 581.292 357.679)" fill="url(#Sfumatura_senza_nome_43-4)" d="M560.61 338.2h41.31v38.97h-41.31z"/></g></mask><mask id="mask-10" x="600.37" y="278.31" width="13.56" height="40.03" maskUnits="userSpaceOnUse"><path fill="url(#Sfumatura_senza_nome_27)" d="M600.37 278.31h13.56v40.03h-13.56z"/></mask><style>.cls-2{fill:none}.cls-19{fill:#333}</style></defs><path class="cls-19" d="M105 299a31.79 31.79 0 018.63 14.93h13.85a45.21 45.21 0 00-13-24.59z"/><g clip-path="url(#clip-path-8)"><path class="cls-19" transform="matrix(.86 -.5 .5 .86 -135.92 99.35)" d="M100.3 285.33h31.8v32.56h-31.8z"/></g><path class="cls-19" d="M82.2 276.32l.12 13.55h.27a32 32 0 0122.57 9.31l9.59-9.59a45.5 45.5 0 00-32.16-13.28h-.39"/><g clip-path="url(#clip-path-9)"><path class="cls-19" transform="rotate(-67.54 98.472 287.749)" d="M81.69 268.34h33.57v38.81H81.69z"/></g><path class="cls-19" d="M50.19 289.9l9.67 9.51a31.76 31.76 0 0122.73-9.54v-13.56a45.32 45.32 0 00-32.4 13.59"/><g clip-path="url(#clip-path-10)"><path class="cls-19" transform="rotate(-23.06 66.418 287.895)" d="M46.96 270.89h38.86v33.94H46.96z"/></g><path class="cls-19" d="M37.16 321.75v.39l13.56-.14v-.27a31.76 31.76 0 019.34-22.54l-9.59-9.59a45.3 45.3 0 00-13.31 32.13"/><g clip-path="url(#clip-path-11)"><path class="cls-19" transform="rotate(-67.38 48.613 305.885)" d="M29.2 289.06h38.82v33.64H29.2z"/></g><path class="cls-19" d="M37.16 321.75a45.32 45.32 0 0013.59 32.4l9.51-9.67a31.75 31.75 0 01-9.54-22.73z"/><g clip-path="url(#clip-path-12)"><path class="cls-19" transform="rotate(-23.23 48.698 337.88)" d="M31.71 318.5h34v38.88h-34z"/></g><path class="cls-19" d="M50.47 353.87a45.29 45.29 0 0032.12 13.31H83l-.12-13.56h-.28a31.76 31.76 0 01-22.53-9.34z"/><g clip-path="url(#clip-path-13)"><path class="cls-19" transform="rotate(-67.75 66.734 355.733)" d="M49.98 336.35h33.5v38.77h-33.5z"/></g><path class="cls-19" d="M82.59 353.62v13.56a45.36 45.36 0 0036.05-17.78l-10.76-8.25a31.81 31.81 0 01-25.29 12.47"/><g mask="url(#mask)" clip-path="url(#clip-path-14)"><path class="cls-19" transform="rotate(-47.78 100.608 354.162)" d="M78.87 332.07h43.5v44.18h-43.5z"/></g><path class="cls-19" d="M79.99 313.91h47.46v13.56H79.99zm128.88 4.43z"/><g mask="url(#mask-2)" clip-path="url(#clip-path-15)"><path class="cls-19" transform="rotate(-5.61 215.496 318.16)" d="M208.9 317.68h13.49V319H208.9z"/></g><path class="cls-19" d="M141 280.01h13.56v47.46H141zm67.87 38.33h13.56v47.46h-13.56z"/><path class="cls-19" d="M185.14 289.89a23.93 23.93 0 0123.73 24v4.46h13.56v-4.46a37.51 37.51 0 00-37.29-37.55z"/><g mask="url(#mask-3)" clip-path="url(#clip-path-16)"><path class="cls-19" d="M185.14 276.33h37.29v42.01h-37.29z"/></g><path class="cls-19" d="M154.56 288.71v27.53c2.05-10.89 11.69-26.35 30.18-26.35h1v-13.55h-1a42.77 42.77 0 00-30.19 12.38"/><g clip-path="url(#clip-path-17)"><path class="cls-19" d="M154.56 276.33h31.19v39.91h-31.19z"/></g><path class="cls-19" d="M281.38 353.62v13.56a45.19 45.19 0 0025.32-7.72l-7.56-11.26a31.65 31.65 0 01-17.76 5.42"/><g mask="url(#mask-4)" clip-path="url(#clip-path-18)"><path class="cls-19" transform="rotate(-14.56 294.05 357.7)" d="M279.41 345.33h29.27v24.73h-29.27z"/></g><path class="cls-19" d="M248.87 289.9l9.68 9.51a31.75 31.75 0 0122.73-9.54v-13.56a45.35 45.35 0 00-32.41 13.59"/><g clip-path="url(#clip-path-19)"><path class="cls-19" transform="rotate(-23.06 265.12 287.888)" d="M245.65 270.89h38.86v33.94h-38.86z"/></g><path class="cls-19" d="M235.85 322.14l13.56-.12v-.27a31.75 31.75 0 019.33-22.54l-9.59-9.59a45.32 45.32 0 00-13.3 32.52"/><g clip-path="url(#clip-path-20)"><path class="cls-19" transform="rotate(-67.38 247.246 305.88)" d="M227.81 289.01h38.86v33.74h-38.86z"/></g><path class="cls-19" d="M235.85 321.75a45.28 45.28 0 0013.59 32.4l9.5-9.67a31.78 31.78 0 01-9.53-22.73z"/><g clip-path="url(#clip-path-21)"><path class="cls-19" transform="rotate(-23.23 247.34 337.891)" d="M230.39 318.51h34v38.88h-34z"/></g><path class="cls-19" d="M249.15 353.87a45.33 45.33 0 0032.53 13.31l-.12-13.56h-.28a31.78 31.78 0 01-22.54-9.34z"/><g clip-path="url(#clip-path-22)"><path class="cls-19" transform="rotate(-67.75 265.426 355.785)" d="M248.61 336.38h33.6v38.81h-33.6z"/></g><path class="cls-19" d="M280.88 276.32l.12 13.55h.28a32 32 0 0131.87 28.47h.66v-28.55l-.1-.1-.12-.13a46.17 46.17 0 00-32.29-13.25h-.4"/><g clip-path="url(#clip-path-23)"><path class="cls-19" transform="rotate(-45.34 297.353 297.325)" d="M270.83 270.85h53.04v52.96h-53.04z"/></g><path class="cls-19" d="M313.15 318.34h13.56v47.46h-13.56z"/><g mask="url(#mask-5)"><path class="cls-19" d="M313.15 246.48h13.56v71.86h-13.56z"/></g><path class="cls-19" d="M408 299a31.69 31.69 0 018.62 14.93h13.86a45.28 45.28 0 00-13-24.59z"/><g clip-path="url(#clip-path-24)"><path class="cls-19" transform="rotate(-30.19 419.312 301.618)" d="M403.38 285.33h31.8v32.56h-31.8z"/></g><path class="cls-19" d="M385.27 276.32l.12 13.55h.28a32 32 0 0122.57 9.31l9.58-9.59a45.48 45.48 0 00-32.15-13.28h-.4"/><g clip-path="url(#clip-path-25)"><path class="cls-19" transform="rotate(-67.54 401.55 287.75)" d="M384.77 268.34h33.57v38.81h-33.57z"/></g><path class="cls-19" d="M353.27 289.9l9.67 9.51a31.75 31.75 0 0122.73-9.54v-13.56a45.31 45.31 0 00-32.4 13.59"/><g clip-path="url(#clip-path-26)"><path class="cls-19" transform="rotate(-23.06 369.537 287.897)" d="M350.04 270.89h38.86v33.94h-38.86z"/></g><path class="cls-19" d="M340.24 321.75v.39l13.56-.14v-.27a31.8 31.8 0 019.33-22.54l-9.58-9.59a45.3 45.3 0 00-13.31 32.13"/><g clip-path="url(#clip-path-27)"><path class="cls-19" transform="rotate(-67.38 351.688 305.883)" d="M332.28 289.06h38.82v33.64h-38.82z"/></g><path class="cls-19" d="M340.24 321.75a45.28 45.28 0 0013.59 32.4l9.5-9.67a31.78 31.78 0 01-9.53-22.73z"/><g clip-path="url(#clip-path-28)"><path class="cls-19" transform="rotate(-23.23 351.72 337.897)" d="M334.79 318.5h34v38.88h-34z"/></g><path class="cls-19" d="M353.55 353.87a45.29 45.29 0 0032.12 13.31h.4l-.07-13.56h-.28a31.78 31.78 0 01-22.54-9.34z"/><g clip-path="url(#clip-path-29)"><path class="cls-19" transform="rotate(-67.75 369.812 355.73)" d="M353.06 336.35h33.5v38.77h-33.5z"/></g><path class="cls-19" d="M385.67 353.62v13.56a45.38 45.38 0 0036.05-17.78L411 341.15a31.84 31.84 0 01-25.29 12.47"/><g mask="url(#mask-6)" clip-path="url(#clip-path-30)"><path class="cls-19" transform="rotate(-47.78 403.688 354.157)" d="M381.95 332.07h43.5v44.18h-43.5z"/></g><path class="cls-19" d="M383.06 313.91h47.46v13.56h-47.46z"/><path class="cls-19" transform="rotate(-69.71 477.442 321.455)" d="M470.67 297.72h13.56v47.46h-13.56z"/><path class="cls-19" d="M444.08 308.23c0 3.65.33 8.24.33 8.24l8.43 3.11 4.71-12.71c1.26-8 9.56-17 19.05-17h.29v-13.56h-.54c-19.28 0-32.27 16.41-32.27 31.92"/><g clip-path="url(#clip-path-31)"><path class="cls-19" transform="rotate(-39.72 460.512 297.96)" d="M434.04 270.82h52.89v54.25h-52.89z"/></g><path class="cls-19" d="M497.36 336c0 9.84-9.27 17.58-20.32 17.58h-.86v13.56h1.1c20.73 0 33.18-16.88 33.18-33.15a26.1 26.1 0 00-.56-6.66l-.29-1.26-7.55-2.79z"/><g clip-path="url(#clip-path-32)"><path class="cls-19" transform="rotate(-8.59 493.279 345.222)" d="M473.1 321.01h40.44v48.48H473.1z"/></g><path class="cls-19" d="M444.29 340.8s4.7 25.95 32.31 26.37v-13.56c-16.75-.27-18.89-16.39-18.89-16.39z"/><g mask="url(#mask-7)" clip-path="url(#clip-path-33)"><path class="cls-19" transform="rotate(-19.54 460.344 352.15)" d="M440.21 332.68h40.46v39.03h-40.46z"/></g><path class="cls-19" d="M476.6 276.31v13.56c17.79 0 19.53 15.67 19.53 15.67l13.57-3.36s-4.49-25.72-33.1-25.87z"/><g mask="url(#mask-8)" clip-path="url(#clip-path-34)"><path class="cls-19" transform="rotate(-21.7 493.156 290.925)" d="M472.37 271.23h41.57v39.4h-41.57z"/></g><path class="cls-19" d="M568.6 353.62v13.56a45.19 45.19 0 0025.32-7.72l-7.55-11.26a31.71 31.71 0 01-17.77 5.42"/><g mask="url(#mask-9)" clip-path="url(#clip-path-35)"><path class="cls-19" transform="rotate(-14.56 581.292 357.679)" d="M566.63 345.33h29.27v24.73h-29.27z"/></g><path class="cls-19" d="M536.09 289.9l9.68 9.51a31.75 31.75 0 0122.73-9.54v-13.56a45.35 45.35 0 00-32.41 13.59"/><g clip-path="url(#clip-path-36)"><path class="cls-19" transform="rotate(-23.06 552.388 287.873)" d="M532.87 270.89h38.86v33.94h-38.86z"/></g><path class="cls-19" d="M523.07 322.14l13.56-.12v-.27a31.75 31.75 0 019.37-22.54l-9.58-9.59a45.29 45.29 0 00-13.31 32.52"/><g clip-path="url(#clip-path-37)"><path class="cls-19" transform="rotate(-67.38 534.461 305.877)" d="M515.03 289.01h38.86v33.74h-38.86z"/></g><path class="cls-19" d="M523.07 321.75a45.28 45.28 0 0013.59 32.4l9.5-9.67a31.78 31.78 0 01-9.53-22.73z"/><g clip-path="url(#clip-path-38)"><path class="cls-19" transform="rotate(-23.23 534.513 337.92)" d="M517.61 318.5h34v38.88h-34z"/></g><path class="cls-19" d="M536.38 353.87a45.29 45.29 0 0032.52 13.31l-.12-13.56h-.28a31.78 31.78 0 01-22.5-9.34z"/><g clip-path="url(#clip-path-39)"><path class="cls-19" transform="rotate(-67.75 552.646 355.779)" d="M535.84 336.38h33.6v38.81h-33.6z"/></g><path class="cls-19" d="M568.1 276.32l.12 13.55h.28a32 32 0 0131.87 28.47h.63v-28.55l-.1-.1-.12-.13a46.17 46.17 0 00-32.29-13.25h-.4"/><g clip-path="url(#clip-path-40)"><path class="cls-19" transform="rotate(-45.34 584.575 297.33)" d="M558.05 270.85h53.04v52.96h-53.04z"/></g><path class="cls-19" d="M600.37 278.31h13.56v40.03h-13.56z"/><g mask="url(#mask-10)" clip-path="url(#clip-path-41)"><path class="cls-19" d="M600.37 278.31h13.56v40.03h-13.56z"/></g><path class="cls-19" d="M600.37 318.34h13.56v47.46h-13.56z"/></svg>