<svg id="Layer_1" data-name="Layer 1" xmlns="http://www.w3.org/2000/svg" viewBox="0 0 647.86 647.86"><defs><style>.cls-1{fill:#333}</style></defs><path class="cls-1" d="M95.07 345.46c.06-17.24.81-32.36 3.08-47.26 1.48-9.64 8.75-16 16.43-21.46 20.38-14.37 43.71-21.43 67.69-26.66 2.76-.6 5.93.1 8.8.72 27.64 6 55.2 12.37 82.9 18.09 8.34 1.72 11.15 5.67 11 14.05-.43 23 .86 19.54-19.41 24.05a34.56 34.56 0 00-12.24 4.67c3.48.71 7 1.43 10.46 2.13 13.68 2.72 20.68 10.91 21 24.72.13 6 .25 11.92 0 17.87s1.88 9.19 8.1 8.92c5.86-.25 7.95 2.73 7.55 8.26-.66 9.27 1.09 18.4 1.85 27.58.55 6.71 4 10.32 10.8 10.66h.89c26.76-.05 27.15 2.86 30-23.59a139.06 139.06 0 001-15.11c0-5.09 1.71-8 7.16-7.81 6.64.22 7.56-3.88 7.51-9.35-.16-18.47-.12-36.93 0-55.4.09-19.52 8.78-30.56 27.8-34.91 25.54-5.84 51.14-11.43 76.73-17 2.58-.57 5.46-1.22 7.91-.64 20.64 4.89 40.72 11.22 59 22.39 17 10.36 22.13 25.43 18.87 45.66-20.13-20.25-45.72-26.69-71.6-32.36-4.34-1-5.93-3.39-5.95-7.5-.05-6-.29-11.91-.25-17.86 0-5.35-2-7.8-7.63-6.52-27 6.15-54.08 11.93-81 18.48-12.57 3.06-20.14 13.19-20.31 26.24q-.48 36.63 0 73.27c.14 12.37 7.62 19.79 19.9 21 17.78 1.69 35.67 2.17 53.31 5.21a103.69 103.69 0 0110.47 2.24c2.17.62 5.44.87 5.46 3.71s-3.23 3.15-5.39 3.79c-17.24 5.13-35.08 6.55-52.87 8-36.86 3-73.81 2.58-110.72 1.7-24.39-.58-48.76-2.38-72.82-6.92a93.3 93.3 0 01-10.37-2.66c-2.2-.68-5.53-1.12-5.59-3.71-.08-3.37 3.59-3.49 6-4.09 19.48-4.81 39.48-5.4 59.33-7.12 14.17-1.23 21.35-7.74 22.06-21.81.5-9.8.44-19.67.05-29.48-.52-13.17-6.56-19.87-19.77-22.53-16.93-3.42-33.88-6.76-50.86-9.91-6.26-1.16-9.4-4.17-9.12-10.86.29-6.95 3-9.61 10.18-8.14 19.83 4.07 39.8 7.5 59.59 11.72 7.77 1.66 10.64-.8 10.17-8.37a71.91 71.91 0 010-8.93c.39-6.2-2.5-8.93-8.54-10.21-27.38-5.79-54.66-12.05-82-18-11.73-2.54-17.44 1.73-18.67 13.72a229.41 229.41 0 00-.67 42.81c.54 6.29-1.19 7.59-6.7 8.25a216.78 216.78 0 00-23.69 4.34c-16.37 3.79-31.88 9.66-46.88 21.92z"/><path class="cls-1" d="M233.93 388.93c-11.34 2.81-23.45 3.13-34.36 6-3.87 1-9.17 1.66-9.33 6.82s5.11 6 8.94 7.21c17.19 5.33 35.07 6.9 52.84 8 57.4 3.68 114.8 4.07 172-3.22 9.14-1.17 18.32-2.47 26.93-6 2.74-1.13 5.87-2.61 5.79-6.06s-3.4-4.64-6.16-5.68c-8.44-3.17-17.43-3.67-26.2-5.26-1.83-.34-4.24.75-5.72-2.45 9.53-2.91 19.33-2.5 28.8-4 31.37-5.16 61.61.38 91.34 9.94 5.69 1.83 14.19 3.35 13.8 10.47-.35 6.49-8.81 7-14.33 8.48-24.54 6.56-49.75 9.16-75 11.15-56.7 4.48-113.54 6.6-170.39 5.13-58.58-1.52-117.26-2.74-175.14-13.66a132.82 132.82 0 01-16.36-4.36c-3.05-1-6.82-2.35-7.21-5.94-.42-3.85 3.48-5.14 6.29-6.68a70.76 70.76 0 017.32-3.29c22.07-9.1 66-14.42 67.1-14.53 0 0 24.9 2.71 37.17 4.89 6.95 1.11 14.95 2.36 21.88 3.04zM395 326.36c0-2.38.08-4.76.11-7.14.23-20.87.23-20.82 20.48-24.11 13.8-2.23 27.52-4.92 41.35-6.92 31.72-4.57 59.24 6.57 83.76 25.06 15 11.29 14 21.35.19 33.82-7.69 6.93-15.33 10.62-26.48 6.93-31.2-10.36-62.9-5.62-94.49-1.25-25 3.46-25.05 3.34-24.91-21.93 0-1.49.05-3 .07-4.46zm-142.66 20.96c0 12.1-2 14.1-13.38 12.8-14.48-1.64-29.05-3-43.32-5.86-29.15-5.77-56.71.48-84 9.61-5.34 1.79-10 4.17-13.68-2.51-3.63-6.51-2.91-11.76 3-16.42 14.74-11.59 32.28-16.19 50.06-20.1 6.38-1.4 12.9-2.16 19.38-3.1 1.74-.26 3.86-.78 5.25-.07 20.75 10.51 44 9.29 65.94 13.82 7.68 1.58 12.3 4.32 10.75 11.83z"/><path class="cls-1" d="M554.46 397.8c-21.91-12.32-46.11-15.08-70.29-18-9.11-1.11-8.24-.84-9.24-9.84-1.41-19.69-1.68-20 17.76-17.34 13.6 1.85 27 4.39 39.95 9 19.43 6.97 23.91 14.38 21.82 36.18zm-460.75 1.06c-2.57-17.39.69-23.87 15.36-30.2 17.38-7.49 35.86-10.54 54.45-13.09 4.67-.63 6.75 1.1 6.62 5.73 0 1.78.07 3.59 0 5.35-.25 11.28-3.39 11.86-11.9 13.08a259.07 259.07 0 00-46.81 10.84 95.81 95.81 0 00-17.72 8.29zm247.88-141.01c.14-22.81.43-22.8-22.64-22.78h-1.79c-12.86 0-13.37.55-13.38 13.84v67.86h.15c0 22.63-.86 45.3.21 67.88 1.38 29 1.14 23 25.37 23.78 6.37.21 9.3-2.93 9.91-8.88.89-8.58 2.28-17.06 2.23-25.76q-.31-57.97-.06-115.94zM330 383.76c-27-.35-22.45 2.75-22.7-21.72-.26-24.66.16-49.32-.19-74-.1-7.64 2.25-10.59 10.18-10.38 24.51.66 20.48-2.72 20.83 20.84.17 11 0 22 0 33 0 14.56-.16 29.12.07 43.68.07 5.95-1.94 8.66-8.19 8.58zm6-123.53a7.18 7.18 0 01-4.51 1.27h-17.75c-4.45 0-6-2.4-6.43-6.67-.14-1.42-.26-2.71-.34-3.9a12.9 12.9 0 01-.13-2.26c-.16-4.93.57-7.47 3.31-8.77a7.2 7.2 0 014.51-1.28h17.75c4.46 0 6 2.4 6.44 6.66.14 1.42.25 2.72.34 3.9a13 13 0 01.12 2.26c.09 4.95-.65 7.49-3.39 8.79z"/></svg>