<svg id="Layer_1" data-name="Layer 1" xmlns="http://www.w3.org/2000/svg" viewBox="0 0 647.86 647.86"><defs><style>.cls-1{fill:#333}</style></defs><g id="layer1"><g id="g4693"><path id="path104" class="cls-1" d="M47.86 281.94V382h22.25v-32.69l6.52.07 6.52.08 9.57 16.27 9.57 16.27h25.55l-11.13-18.49c-6.12-10.16-11.09-18.5-11-18.52a35.85 35.85 0 0010.29-6.92 28.83 28.83 0 008.08-15.29 55.23 55.23 0 000-15.25c-2.8-14-12.18-22.16-28.51-24.88-2.41-.4-6-.48-25.28-.59zm22.25 19.49h9.13c9.67 0 11.64.18 14.89 1.4a13.79 13.79 0 015.78 4.44c1.6 2.38 2.1 4.09 2.25 7.65.23 5.23-.76 8.2-3.73 11.16a13.71 13.71 0 01-6.82 3.85c-2 .54-3.15.61-11.64.72-5.19.07-9.53 0-9.65-.08s-.21-6.73-.21-14.68z"/><path id="path100" class="cls-1" d="M148.71 332v-50h67.89v19.44H171V322h40v19.44h-40v21.41h14.9c8.21 0 14.93.06 14.93.14s-6.7 12.9-9 17.12l-1 1.89h-42.12z"/><path id="path98" class="cls-1" d="M214.15 381.65c.08-.2 11.93-22.67 26.33-49.94l26.18-49.58 13.6-.07c10.84-.06 13.57 0 13.45.28s-11.93 22.66-26.34 49.94l-26.19 49.58-13.59.07c-10.83.06-13.56 0-13.44-.28z"/><path id="path96" class="cls-1" d="M294.36 353.82v-28.18L305.8 304c6.3-11.92 11.53-21.68 11.64-21.68a34.86 34.86 0 012.75 3.59c2.39 3.38 14.28 20.18 18.33 25.92a22.06 22.06 0 002 2.6c.09 0 5.24-7.3 11.44-16.2L363.24 282h23.24v100h-21.7v-31c0-17-.09-31-.21-31s-5.53 7-12 15.51C344 346.71 340.58 351 340.23 351s-5.78-7-12.26-15.42l-11.78-15.35-.07 30.91-.07 30.86h-21.69z"/><path id="path94" class="cls-1" d="M441.48 281.43l-.31.77c-.17.43-4.36 11.61-9.3 24.86l-18.46 49.39c-5.21 13.91-9.47 25.35-9.47 25.42s5 .13 11.2.13h11.2l1.17-3.3c.65-1.82 2.35-6.64 3.77-10.71l2.6-7.39h17.71c9.74 0 17.71 0 17.71.07 0 .2 7.56 21.1 7.67 21.21s5.28.1 11.56.06l11.43-.07-7.58-20.29-18.78-50.22-11.19-29.93h-20.93zm10.06 29.79c.16-.19 10.75 29.72 10.73 30.28 0 .12-4.83.21-10.72.21s-10.7-.09-10.71-.21c-.01-.32 10.5-30.04 10.7-30.28z"/><path id="path90" class="cls-1" d="M511.11 378.13c28.53-46.72 28.64-46.91 28.21-47.57-1-1.46-29.17-48.3-29.17-48.43s5.68-.14 12.61-.14h12.62l8.63 15.7c4.74 8.63 8.73 15.73 8.87 15.77s4.15-6.92 8.93-15.48 8.78-15.66 8.89-15.78 5.73-.18 12.49-.14l12.29.07-8.48 13.8c-4.66 7.6-11.26 18.37-14.69 23.95l-6.49 10.6c-.29.47.25 1.42 8 14 1.66 2.71 7.3 12 12.53 20.57s9.71 15.92 9.94 16.27l.41.63-12.76-.07-12.77-.07-9.17-16.42c-5.07-9.06-9.33-16.51-9.46-16.56a13.74 13.74 0 00-2 3.09c-1 1.75-5.16 9.2-9.32 16.56l-7.56 13.38-12.44.07-12.44.07z"/><g id="g4682"><path id="path4676" class="cls-1" d="M607.46 278.64a7.49 7.49 0 00-5.22 2.26 7.4 7.4 0 002.69 11.94 8.15 8.15 0 005.52-.14 7.25 7.25 0 002.25-11.92 7.42 7.42 0 00-5.24-2.14zm.24 1.13a6.08 6.08 0 015.3 3.47 6.24 6.24 0 01.51 3.19 6.5 6.5 0 01-1 3.13 7.34 7.34 0 01-1.95 1.83 5.65 5.65 0 01-6.44-.32 6.24 6.24 0 01.63-10.56 6 6 0 012.92-.74z"/><path id="path4672" class="cls-1" d="M604.81 282v8.17h1.4v-3.38h1c1.13 0 1.67.64 2 2.32.08.45.21 1.07.41 1.06h1.09c.09-.08 0-.3 0-.49s-.28-1-.45-1.68-.21-1.09-.56-1.37c-.19-.15-.55-.39-.51-.52s.22-.17.57-.45a1.91 1.91 0 000-3.08c-.6-.47-1.15-.58-2.82-.58zm1.4.85h1c1 0 2.11.78 2.11 1.5a1.54 1.54 0 01-.51.85 2.77 2.77 0 01-1.55.46h-1v-2.81z"/></g></g></g></svg>