<svg id="Layer_1" data-name="Layer 1" xmlns="http://www.w3.org/2000/svg" viewBox="0 0 647.86 647.86"><defs><style>.cls-1,.cls-2{fill:#333}.cls-1{fill-rule:evenodd}</style></defs><g id="g6"><path id="path8" class="cls-1" d="M497.33 343.88c0-10.5 9.83-15.88 9.83-15.88l22.52-10.49c6-1.94 4.91-8.46 4.91-8.46v-5.39c0-6.09-4.72-6.5-4.72-6.5-8-.1-7.25 9.77-7.25 9.77-1.48 10-11.58 10-11.58 10-14.94 0-12.94-15.29-12.94-15.29 1.33-15.94 17.32-22 17.32-22 6.79-2.86 15.84-2.26 15.84-2.26 31.25 2.42 31.67 27.89 31.67 27.89v60.28c0 7.95-5.73 13-12.8 13.4-8.46.49-12.82-4.08-12.46-8.29-.58-1.12-1.17-.31-1.17-.31-3.12 9.79-17.76 8.91-17.76 8.91-20.22-.31-21.47-20.32-21.47-20.32s.06-3.18.06-15.05m27.45-3.89a7.62 7.62 0 00-4.61 6.54 28.92 28.92 0 00.06 4.46c0 4.19 1.07 8.92 7.48 8.62 4.19-.19 6.72-2 6.72-8.51v-14.46a2.09 2.09 0 00-.48-1.55c-.4 0-1.55 1.12-2.27 1.43a66.79 66.79 0 00-6.9 3.47z"/><path id="path10" class="cls-2" d="M193.71 348.18l-.05-57a13.56 13.56 0 00-13.49-13.36c-7.09 0-13.51 6.28-13.51 13.36v67.72s-1 17.75 21.79 19.6c0 0 12.92-.33 18-8.08 0 0-.12-.36.46.76 1.74 5 8.17 7.45 13.79 7.25 9.51-.35 13.05-5.84 13.05-12.92v-74.3c0-7.08-6.66-13.17-13.74-13.17s-13.36 6.09-13.36 13.17v57.08c.22 4.68-2.24 7.77-6.27 7.77s-6.66-2.7-6.66-7.88"/><path id="path12" class="cls-2" d="M464.85 310.85l.06 54.87c0 7.09 7 12.83 14.13 12.83s13.28-5.74 13.28-12.83V298s-.41-20-22.28-19.6c0 0-13.09.12-16.34 11.45 0 0-1.16-2.36-1.69-3.48-2.66-6.36-7.42-8.23-13-8.23-7.08 0-12.8 6.17-12.8 13.25v74.32A12.81 12.81 0 00439 378.55c7.08 0 14.55-5.74 14.55-12.83v-55c0-4 1.41-6.84 5.44-6.84s5.89 2.91 5.89 7"/><path id="path14" class="cls-2" d="M279.61 310v55.22c0 7.08 6.26 13 13.34 13s14.22-5.87 14.46-12.5v-55c0-4 2.19-6.81 6.22-6.81s5.92 2.94 5.92 7v54.87c.26 6.54 6.34 12.57 13.42 12.57s14.36-5.9 14.42-12.57V298s-.07-19.5-21.46-19.5c0 0-15.24-.48-19.89 12.84 0 0-.26-.56-.85-1.67-2.77-5.94-7.81-11.17-18.63-11.17 0 0-13.11-1.16-18 11.14 0 0-.65-1.59-1.23-2.7a14 14 0 00-12.71-9.06c-8.3 0-13.39 6.43-13.39 13.51v74.32c0 7.09 6.52 12.5 13.6 12.5s13.44-6.44 13.69-12.5v-55c.12-3.83 1.47-6.85 5.5-6.85s5.64 3.16 5.58 6.1"/><path id="path16" class="cls-1" d="M353.29 343.88c0-10.5 9.84-15.88 9.84-15.88l22.52-10.49c6-1.94 4.91-8.46 4.91-8.46v-5.39c0-6.09-4.72-6.5-4.72-6.5-8-.1-7.25 9.77-7.25 9.77-1.48 10-11.59 10-11.59 10-14.93 0-12.93-15.29-12.93-15.29 1.32-15.94 17.32-22 17.32-22 6.78-2.86 15.84-2.26 15.84-2.26 31.25 2.42 31.67 27.89 31.67 27.89v60.28c0 7.95-5.73 13-12.81 13.4-8.46.49-12.81-4.08-12.45-8.29-.59-1.12-1.19-.31-1.19-.31-3.1 9.79-17.74 8.91-17.74 8.91-20.22-.31-21.47-20.32-21.47-20.32s.05-3.18.05-15.05m27.45-3.89a7.62 7.62 0 00-4.6 6.54 27.44 27.44 0 00.06 4.46c0 4.19 1.07 8.92 7.48 8.62 4.19-.19 6.72-2 6.72-8.51v-14.46a2.09 2.09 0 00-.48-1.55c-.4 0-1.55 1.12-2.27 1.43a67.61 67.61 0 00-6.91 3.47z"/><path id="path18" class="cls-2" d="M128 299h-15.89l-.11-38a15.29 15.29 0 00-15.45-15.57c-8.19 0-14.79 7.39-14.79 15.57v102c0 8.18 6.31 15.2 14.5 15.2S112 371.88 112 363.14v-41.23h16v41.23a15.08 15.08 0 0014.84 15.09A15.31 15.31 0 00158.09 363V261a15.34 15.34 0 00-15.27-15.66c-8.18 0-14.82 6.71-14.82 15.66v38"/></g></svg>