<svg id="Layer_1" data-name="Layer 1" xmlns="http://www.w3.org/2000/svg" viewBox="0 0 647.86 647.86"><path d="M351.93 121.93c4.67 6.37 9.83 12.45 13.93 19.17 9.92 16.3 19.67 32.72 28.88 49.43 10.24 18.6 19.82 37.57 29.68 56.38 3.18 6.06 3.18 11.79 0 18.21a1288.54 1288.54 0 01-63.29 113.24c-1.12 1.8-2.11 3.68-3.22 5.48-2.62 4.25-6.14 6.27-11.44 6.21-9.76-.1-19.52.8-29.29.81-9.59 0-19.19-.73-28.79-.88-4.76-.07-6.55-3.84-8.3-6.81-14.84-25.13-29.58-50.33-43.93-75.74-7.63-13.51-14.37-27.52-21.61-41.25-3.65-6.93-3.7-13.69.08-20.6 14.11-25.77 28-51.67 42.27-77.36C264.29 155 272.12 142 280 129c1.68-2.75 4.57-4.76 6.91-7.11zm-13.19 21.65l-.84-.54c-5.34 10.07-10.79 20.08-16 30.22-13.12 25.43-26.29 50.85-39 76.48a15.85 15.85 0 00-.68 11.12c2.48 7.05 6.12 13.71 9.54 20.4 7.73 15.13 15.7 30.15 23.35 45.33a10.6 10.6 0 01.62 6.68c-.65 2.81-2.31 5.37-3.5 8.06q-4.17 9.5-8.29 19a8.13 8.13 0 003.09-3.65c3.72-7.09 7.48-14.15 11.14-21.28 13-25.28 26-50.56 38.8-76 .94-1.87.66-4.75 0-6.91a54.69 54.69 0 00-4.13-9.92c-10-19.51-20.1-39-30.06-58.49a6 6 0 01-.31-4.11 60.23 60.23 0 013-7.19q6.63-14.58 13.27-29.2zM86.93 463.93h41c10.79 0 17.47 4.1 20.12 12.32 3.12 9.68 0 18.84-8.92 25.28 4.06 7.07 8.14 14.17 12.86 22.37-6.59 0-12 .09-17.35-.09-.8 0-1.79-1.19-2.29-2.06-2-3.53-4.4-7-5.75-10.78-1.87-5.27-5.16-6.8-10.42-6.12-3.44.44-7 .08-11 .08v18.67H88.93v-38c0-3.5.22-7-.09-10.49-.16-1.79-1.24-3.49-1.91-5.23zm18.24 29h19c4.78 0 8.26-3.56 8.6-8.58.23-3.4-3.14-8-6.94-8.23-6.89-.4-13.81-.11-20.7-.11zm306.76 32c-4.34-1-8.77-1.71-13-3-9.11-2.77-14-9.6-14-19 0-7.16.27-14.33-.1-21.47a58.84 58.84 0 00-2.36-12.34c-.9-3.25-.74-5.22 3.23-5.19h14.92c.11 1.59.29 3 .3 4.43 0 10.65.21 21.31-.07 31.95-.14 5.34 2.11 9.17 7 9.78 5.74.72 11.95.86 17.43-.66 4.68-1.29 5.69-6.65 5.69-11.49v-33.69h15c0 14.49.93 28.92-.31 43.17-.91 10.42-9.39 15.26-21.14 16.53a43.85 43.85 0 00-4.52 1zm155-49H544v47.75h-15.9V476h-22.93v-12.07h61.76zM280 500.59v-36.31h14.65v58.88c-9 2.52-14.82.49-21-7-4.73-5.7-9.74-11.17-14.68-16.71-3.8-4.25-7.67-8.43-12-13.13v37.21h-15.04v-14.8c0-11 .18-22-.1-33-.09-3.79-1.29-7.54-2.08-11.82 5.53 0 10.67-.78 15.4.28 3 .67 5.52 3.9 7.84 6.37 5.76 6.14 11.26 12.5 16.88 18.77 3.04 3.43 6.13 6.81 10.13 11.26zm97.63 23.2h-17.21c-1.32-3.5-2.64-7-4.12-10.86-9 0-18.31-.07-27.61.1-1.12 0-3.08 1.2-3.19 2.05-1.22 8.72-6.92 9.88-14.14 8.88a52.17 52.17 0 00-6 0c2.22-5.8 4-11.08 6.24-16.2 5.85-13.62 11.77-27.21 17.93-40.68.66-1.46 3-2.65 4.77-3 2.56-.5 5.38.29 7.95-.21 7.24-1.39 10.87 1.82 13.5 8.37 6.88 17.01 14.31 33.81 21.88 51.55zm-36.43-47.53c-3.6 8.73-6.8 16.48-10 24.35h20.29zm-128.5 11.48v11.06h-31.4v13.06h35.38v11.71h-51.44v-59.38h50.31v11.66h-34.37v11.89zm250.59-23.57h15.52v47.58h32.82v11.94h-48.34z" fill="#333"/></svg>