<svg id="Layer_1" data-name="Layer 1" xmlns="http://www.w3.org/2000/svg" viewBox="0 0 647.86 647.86"><path d="M88.65 267.14h18.65l35.36 79.08 34.07-79.08h16.08l-45.65 99.01h-11.57l-46.94-99.01zm120.87 99.01h16.07v-99.01h-16.07v99.01zm234.03.65h-16.08v-45.01H370.9v45.01h-16.72v-99.01h16.72v41.79h56.57v-41.79h16.08v99.01zm13.5-100.3h19.93l33.43 46.94 31.5-46.3h17.36l-40.5 59.15v39.86h-17.36v-39.86l-44.36-59.79zM336.82 280v-12.21a119.64 119.64 0 00-28.93-3.86c-26.36 0-52.08 10.93-63 35.36-6.43 12.86-3.85 32.15 4.5 44.36 21.22 27 59.8 27.65 90.66 19.29v-11.57c-1.29 0-1.29 0-1.93.64-22.51 7.72-48.22 11.57-70.08-11.57-8.36-10.29-10.93-25.08-7.07-37.93 7.07-19.29 24.43-29.58 45.64-27.65a85.7 85.7 0 0130.21 5.14zM136.87 406.66h5.14v1.93h-7.71v-19.93h2.57v18zm37.93-5.79h-6.42l3.21-8.36 3.21 8.36zm1.29 1.93l1.93 5.79h2.57l-9-21.22-9 21.22h2.57l1.93-5.79zm28.91-3.86h2c2.57 0 5.14.65 5.14 3.86s-2.57 3.86-4.5 3.86H205v-7.72zm-1.93 9.65h4.5c3.86 0 7.08-1.93 7.08-5.79a4.89 4.89 0 00-3.86-5.14c1.28-.65 1.93-1.93 1.93-3.86 0-3.86-3.22-5.14-6.43-5.14h-3.22v19.93zm1.93-18h.64c3.22 0 5.15 0 5.15 3.21s-2.57 3.21-5.15 3.21H205v-6.42zm42.45-.65c4.5 0 7.72 3.86 7.72 8.36s-3.22 8.36-7.72 8.36a8.51 8.51 0 01-8.35-8.36 8.1 8.1 0 018.35-8.36zm0-1.93c-5.78 0-10.93 4.5-10.93 10.29s5.15 10.29 10.93 10.29a10.29 10.29 0 100-20.58zm32.79 2.58h.65c2.57 0 5.14 0 5.14 3.85 0 2.57-2.57 3.22-5.14 3.22h-.65v-7.07zm0 9h.65l5.78 9h2.57l-6.42-9c3.18-.65 5.18-2.59 5.18-5.79 0-4.5-3.22-5.14-7.07-5.14h-3.22v19.93h2.57v-9zm40.51 1.28h-7.07l3.85-8.36 3.22 8.36zm.64 1.93l2.57 5.79h2.57l-9-21.22-9.64 21.22h2.57l2.54-5.79zm28.93 5.79h-2.57v-18h-4.5v-1.93h11.57v1.93h-4.5v18zm32.79-18.65a8.36 8.36 0 010 16.72c-4.5 0-7.71-3.86-7.71-8.36s3.21-8.36 7.71-8.36zm0-1.93a10.29 10.29 0 000 20.58c5.79 0 10.93-4.5 10.93-10.29S388.9 388 383.11 388zm32.79.65h2.57v19.93h-2.57v-19.93zm28.93 1.93h.65c3.21 0 5.14 0 5.14 3.85 0 2.57-2.57 3.22-4.5 3.22h-1.29v-7.07zm0 9h.65l6.42 9h2.58l-6.43-9c3.21-.65 5.14-2.58 5.14-5.79 0-4.5-3.86-5.14-7.71-5.14h-2.58v19.93h1.93v-9zm31.51-10.93h10.92v1.93h-8.35v5.78h7.71v1.93h-7.71v8.36h8.35v1.93h-10.92v-19.93zm40.5 3.85c-1.29-1.28-1.93-2.57-3.86-2.57a3 3 0 00-3.21 3.22c0 1.93 1.93 2.57 3.21 3.21l1.29.64c2.57 1.29 4.5 2.58 4.5 5.79a5.76 5.76 0 01-5.79 5.79 6.27 6.27 0 01-6.43-5.15l1.93-.64c.64 2.57 1.93 3.86 4.5 3.86a3.71 3.71 0 003.86-3.86c0-2.57-1.93-3.21-3.86-3.86l-1.28-.64c-1.93-1.29-3.86-1.93-3.86-5.14A5.07 5.07 0 01513 388c2.57 0 4.5 1.29 5.15 3.22l-1.29 1.28z" fill="#333" fill-rule="evenodd"/></svg>