<svg id="Layer_1" data-name="Layer 1" xmlns="http://www.w3.org/2000/svg" viewBox="0 0 647.86 647.86"><path d="M356.94 192.93h8.53c7.75 4.55 10.19 11 8.84 20-3.64 24.38-6.56 48.87-9.74 73.31-1.75 13.49-3.44 27-5.29 41.5 8.3-8 15.34-14.88 22.58-21.6a43.82 43.82 0 0013.55-23.9 67.16 67.16 0 017.83-19.58c10.64-18.11 32-25.79 50.61-18.92 18.31 6.74 27.36 23.43 24.57 45.16-2.19 17.11-4.28 34.22-6.51 52.1 9-2.15 13.7 3 18 8.78V360c-2 2-3.57 4.84-5.93 5.72-24.43 9.06-46.18 28.17-75.58 19.75-1.72 12.69-3.81 24.7-4.8 36.81-.67 8.14-3.76 14-10.87 17.86h-8.53c-8.29-5.73-9.72-13.57-7.94-23 1.84-9.74 2.83-19.66 4.09-29.51 2-15.35 3.83-30.71 6-48.11-4 3.63-6.51 5.83-9 8-11.77 10.63-22.4 23-35.55 31.55-29.49 19.07-70.7 7.22-70.64-31.7 0-.33-.69-.66-1.55-1.45-3 3.32-5.91 6.73-9 10-11.06 11.45-22 23-37.72 28.34-23.63 8-37.82 4.08-55.36-15.45a4.77 4.77 0 00-3.48-1.51c-7.38.77-11.37-3.88-15.14-9v-8.53c2.14-2.61 3.79-6.07 6.52-7.66 6.4-3.7 8.38-8.95 9.16-16 1.66-14.93 4-29.81 6.57-44.62 2.94-16.79 12.14-29.16 27.92-36.11 29.69-13.07 59.92 6.74 57.22 37.5-1.12 12.67-8.1 22.52-17.49 30.18-14.06 11.47-28.87 22-43.37 32.93-5.33 4-5.64 8.73.26 11.69 3.72 1.87 9.3 3 12.92 1.55 8-3.15 16.6-6.75 22.6-12.58 13.21-12.83 24.81-27.29 37.35-40.82a46.1 46.1 0 0011.74-24c3.81-20.67 16.37-34.23 36.77-39 7.92-1.85 16.64-.3 25.52-.3 1.28-9.75 3-20.1 3.9-30.52.69-8.09 3.04-14.83 10.44-19.08zm94.85 92.59c-.24-7.55-1.15-14.28-9.17-16.92-6.71-2.2-15.9 1.89-19.11 9.09a46.81 46.81 0 00-3.19 13.09c-2.27 17.4-4.69 34.79-6.07 52.27-.37 4.65 1.59 12.6 4.51 13.71 5 1.91 12.48 1.22 17.32-1.37 3.93-2.09 7-8.32 7.85-13.16 3.21-18.96 5.37-38.09 7.86-56.71zM337 284.44c.19-6.71.67-13.43-7.74-15.92-7.07-2.09-15.69 1.73-19.51 8.67a13.81 13.81 0 00-1.88 4.71c-2.86 21.9-5.92 43.78-8.22 65.74-.88 8.32 4 12.37 12.55 12.28 9-.09 16.11-6.18 17.56-16.46 2.76-19.62 4.86-39.34 7.24-59.02zm-144.36 28.49l1.92 1.38c6.41-5 13-9.74 19.16-15 4.7-4 9.76-8.22 12.81-13.42 2.06-3.51 2.57-9.88.66-13.16-1.65-2.84-7.71-4.34-11.79-4.28-9.05.14-16.79 7-18.57 16-1.83 9.38-2.83 18.97-4.19 28.48z" fill="#333"/></svg>