<svg id="Layer_1" data-name="Layer 1" xmlns="http://www.w3.org/2000/svg" viewBox="0 0 647.86 647.86"><defs><style>.cls-1{fill:#333}</style></defs><path class="cls-1" d="M499.72 278.54l-.61-2c-.07-.22-.11-.37-.18-.63-10.41-35.72-32.93-67.91-63.48-90.7a183.65 183.65 0 00-218.45.19c-30.57 22.87-53.09 55.24-63.41 91.14l-.57 2-2-.25c-12.74-1.58-20.73-2.85-31.66-5.85l-2.32-.64.63-2.32c25.09-91.78 110.93-155.87 208.75-155.87 97.39 0 183.12 63.74 208.5 155 .08.32.12.45.18.65l.82 2.73-2.4.64a228.34 228.34 0 01-31.72 5.71zM326.33 144.46a185.88 185.88 0 01112 36.89c31 23.1 54 55.71 64.85 91.94a226.44 226.44 0 0026.62-4.73c-25.22-88.46-108.7-150.15-203.47-150.15S148.21 180 122.89 268.4a192.25 192.25 0 0026.6 4.83 180.28 180.28 0 0164.58-91.69 185.88 185.88 0 01112.26-37.08zm0 388.91c-48.26 0-93.89-15.13-132-43.74-36.9-27.73-64-66.94-76.28-110.41l-.76-2.68 2.77-.36c11.47-1.53 16.4-2.41 26.21-4.16l7.34-1.3.62 2C165 408.1 187.59 439.89 218 462.29a183.63 183.63 0 00216.06.5c30.2-22.06 52.89-53.44 63.87-88.37l.29-.88.94-2.92 2.1.41c12.55 2.43 19.59 3.55 31.37 5l2.79.34-.76 2.7c-12.27 43.51-39.35 82.76-76.26 110.52-38.14 28.64-83.79 43.78-132.07 43.78zM123.5 380.58c12.34 41.4 38.46 78.67 73.76 105.2 37.24 28 81.87 42.76 129.07 42.76s91.87-14.8 129.12-42.81c35.3-26.55 61.41-63.84 73.73-105.27-9.66-1.22-16.37-2.3-26.79-4.29-11.33 35.78-34.59 67.92-65.54 90.52a188.48 188.48 0 01-221.77-.52 180.58 180.58 0 01-64.8-89.95l-3.13.55c-9.06 1.62-13.98 2.49-23.65 3.81z"/><path class="cls-1" d="M155.59 275.71c5.16-2.12 10.13-5.52 17.9-7.7 23.15-60.15 82.84-103 152.84-103 69.78 0 129.32 42.57 152.61 102.43.09.2.17.45.24.6 4 1.39 15.81 6.18 19.48 7.78l2.79.08c-.08-.23-.13-.42-.2-.64-21.6-74.09-91.74-128.37-174.92-128.37-83.41 0-153.7 54.57-175.09 129 1.24 0 3.59-.1 4.35-.16"/><path class="cls-1" d="M325 151.94c78.06 0 147.25 46.54 173.45 123.25l.21.65c.41 0 1.9.05 2.79.08-.08-.28-.14-.43-.2-.64-21.6-74.09-91.74-128.37-174.92-128.37-83.41 0-153.69 54.57-175.09 129 1.66 0 2.47 0 4.35-.16C179 202.89 247.53 151.94 325 151.94m171.32 221.67a105 105 0 01-18.16 7.91c-.08.18-.4 1-.47 1.15C453.56 440.88 394.88 482 326.33 482c-69 0-128-41.59-151.82-100.36-6.42-1.79-16-6.16-19.65-8l-2.92-.14c22.19 73.19 91.86 126.62 174.39 126.62 82.15 0 151.56-52.94 174.08-125.61 0-.14.29-.94.34-1.08-1.29.05-3.28.21-4.43.21"/><path class="cls-1" d="M326.33 502.5a186 186 0 01-111.25-36.33c-31.2-23-54.44-55.69-65.45-92l-1-3.28 6.85.34.46.23c3.58 1.8 13 6.09 19.21 7.82l1.14.32.45 1.09a156.64 156.64 0 0058.1 71.13 164.76 164.76 0 00182.48.32 156.92 156.92 0 0058.14-70.39v-.12c.13-.31.36-.9.42-1.05l.44-1 1.06-.33a102.12 102.12 0 0017.71-7.71l.55-.31h.63c.67 0 1.76-.06 2.72-.12l1.6-.09 3.47-.16-1.06 3.28c0 .14-.29.91-.33 1-11.17 36.07-34.46 68.49-65.56 91.3a186.06 186.06 0 01-110.78 36.06zM155.45 376.59a175.84 175.84 0 0062.49 85.69 183.65 183.65 0 00216.36.31A175.87 175.87 0 00497.39 376H497a108 108 0 01-17 7.45v.11a161.72 161.72 0 01-60 72.59 169.61 169.61 0 01-187.86-.33 161.58 161.58 0 01-59.43-72.23 145.4 145.4 0 01-17.26-7z"/><path d="M348.67 317.77c9.51 1 16.41 2.61 18.31 11.64 0 .71.24 3.09.24 5.71a23.86 23.86 0 01-.48 5.7c-1.66 8.56-8.08 10.22-18.07 10.22h-39.93c-1.43 0-1.66-.24-1.66-1.66v-8.56c0-1.42.23-1.66 1.66-1.66h40.41c1.66 0 2.14-.48 2.38-1.67v-3.56a3 3 0 00-2.62-2.61c-4.52-.24-17.83-1.43-26.86-2.38-11.65-1.19-14.26-6.18-15-10.46a33.19 33.19 0 01-.24-5 39.86 39.86 0 01.24-5.23c1.66-7.61 7.37-11.18 17.35-11.18h38.75c1.42 0 1.9.25 1.9 1.43v8.8c0 1.19-.48 1.66-1.9 1.42h-38c-1.66 0-2.38.72-2.61 2.38v2.14c0 1.19.47 2.14 2.38 2.37 4.51.48 18.54 1.67 23.76 2.15m-68.69 0c9.51 1 16.41 2.61 18.3 11.64 0 .71.24 3.09.24 5.71a23.86 23.86 0 01-.48 5.7C296.39 349.38 290 351 280 351h-39.95c-1.43 0-1.67-.24-1.67-1.66v-8.56c0-1.42.24-1.66 1.67-1.66h40.4c1.67 0 2.14-.48 2.38-1.67v-3.56c-.24-.95-.47-2.38-2.61-2.61-4.52-.24-17.83-1.43-26.86-2.38-11.65-1.19-14.5-6.18-15-10.46a34.61 34.61 0 01-.23-5 41.58 41.58 0 01.23-5.23c1.67-7.61 7.37-11.18 17.35-11.18h38.75c1.43 0 1.91.25 1.91 1.43v8.8c0 1.19-.48 1.66-1.91 1.42h-38c-1.66 0-2.38.72-2.61 2.38v2.14c0 1.19.71 2.14 2.37 2.37 4.52.48 18.54 1.67 23.77 2.15m236.51-20.69c1.42 0 1.66.48 1.66 1.67v50.63c0 1.42-.24 1.66-1.66 1.66H502c-8.56 0-9.27 0-12.12-4.75-5.95-9.27-23.77-36.61-23.77-36.61v39.7c0 1.42-.24 1.66-1.67 1.66h-10.7c-1.43 0-1.67-.24-1.67-1.66v-50.58c0-1.19.24-1.67 1.67-1.67h12.36c9.26 0 10.46-.23 13.78 4.52 2.85 4.28 24.25 37.56 24.25 37.56v-40.41c0-1.19.24-1.67 1.66-1.67zm-317.32 0c1.42 0 1.66.48 1.66 1.67v50.63c0 1.42-.24 1.66-1.66 1.66h-14.52c-8.55 0-9.27 0-12.12-4.75-5.94-9.27-23.77-36.61-23.77-36.61v39.7c0 1.42-.24 1.66-1.66 1.66h-10.7c-1.42 0-1.66-.24-1.66-1.66v-50.58c0-1.19.24-1.67 1.66-1.67h12.36c9.27 0 10.46-.23 13.79 4.52 2.61 4.28 24.24 37.56 24.24 37.56v-40.41c0-1.19.24-1.67 1.67-1.67zm26.37-.47c1.19 0 1.43.47 1.43 1.43v50.91c0 1.19-.24 1.67-1.66 1.67H213c-1.42 0-1.66-.24-1.66-1.67V298c0-1 .24-1.43 1.18-1.43zm171.15 32.33c4-9.51 8.08-18.78 8.08-19a1.45 1.45 0 011.43-.71c.24-.24.95-.24 1.66-.24.48 0 1.19 0 1.43.24a1.22 1.22 0 011.19 1c.95 2.61 4.51 10.7 7.84 18.78zm27.3-23.25c-4-9-2.61-8.08-11.4-8.31a25 25 0 00-5.23-.25 33.36 33.36 0 00-5.23.25c-8.32 0-6.9-.48-9.75 5.46 0 0-14.27 32.09-20.44 45.4l-.24.47c-1.19 2.38-.47 2.38 1.43 2.38H386a1.67 1.67 0 001.65-1s1.91-4 4.29-9.74h31.37c2.38 5.47 4 9.51 4 9.74a1.6 1.6 0 001.67 1h13.31c1.9 0 2.37.24 1.66-1.42-2.38-5.71-17.83-39-20-44" fill-rule="evenodd" fill="#333"/><path class="cls-1" d="M496.32 373.61c-24.13 71.58-92 121.45-168.64 121.45-77.44 0-146.15-45.81-172.82-121.45l-2.9-.14c22.19 73.19 91.87 126.62 174.4 126.62s152.25-53.47 174.41-126.7l-4.45.22"/><path class="cls-1" d="M150.98 372.82l9.6 1.42-4.16 2.5-5.27-2.67-.17-1.25zm344.08 3.92l6.61-3.61-.4-.4-8.48.6 2.27 3.41z"/><path class="cls-1" d="M567.67 287.4c-.83-7.34-4.69-11.38-16.48-14.16-4.48-1.26-9.47-1.85-20-3.14-43.48-1.79-150.91-6-205.66-6s-162.18 4.17-205.65 6c-10.5 1.29-15.5 1.88-20 3.14-11.73 2.76-15.58 6.81-16.42 14.15a12.18 12.18 0 00-1.4 5.74v62.21a12.15 12.15 0 001.52 5.8c1.8 8.18 10.91 13.63 17.41 14.83a195.46 195.46 0 0019.42 2.6c38.88 2.4 129.09 7.43 205.15 7.51 76.07-.08 166.28-5.11 205.16-7.51a195.46 195.46 0 0019.42-2.6c6.5-1.2 15.62-6.65 17.41-14.85a12.19 12.19 0 001.52-5.78v-62.21a12.26 12.26 0 00-1.4-5.73zm-20.37 80.36s-122.95 7.06-221.74 7.15c-98.78-.09-221.74-7.15-221.74-7.15-9.66 0-20.55-6.49-20.55-14.48v-58c0-8 9-12.69 20.55-14s19.37-1.17 47.42-2.07l3.88-.12c50.87-1.62 127.26-3.8 170.44-3.8s119.58 2.18 170.44 3.8l3.88.12c28.06.9 35.91.76 47.42 2.07s20.56 6 20.56 14v58c0 7.99-10.86 14.48-20.56 14.48z"/></svg>