<svg id="Layer_1" data-name="Layer 1" xmlns="http://www.w3.org/2000/svg" viewBox="0 0 647.86 647.86"><defs><style>.cls-1{fill:#333}</style></defs><path class="cls-1" d="M340.59 193.6s-29.88-4.78-59.16-2.39-61 8.37-74.7-16.13 7.77-52.59 28.09-53.19 32.27 1.8 42.43 8.37c0 0-5.38-25.7 13.14-28.68s70.52 9.56 50.2 92z"/><path class="cls-1" d="M348.36 205.56s-49.6-9.56-76.49-3.56-52.59 28.69-36.46 65.14 52 38.24 65.74 31.67 26.85-19.75 37.05-43.66c0 0 4.18-4.77 6 1.2s-3.58 20.32-3.58 29.28-2.39 28.68 24.5 34.66 48.4-20.91 54.38-46-1.79-49.6-28.69-59.16c0 0-9-4.19-6-6s22.11.6 27.49-17.33-18.53-41.23-28.69-46.61-26.89 0-28.68 17.93-4.18 38.24-6.57 42.43zM126.65 364.51h18.53v117.73s-1.79 21.51-23.31 29.28l-10.16-10.76s12-3.58 14.35-17.93l.59-118.32zm75.47 107.59c-26.78 0-42.67-23.77-42.67-54 0-31.8 17.5-55.57 44.16-55.57 27.86 0 43.07 24.4 43.07 53.68 0 35-17.9 55.89-44.42 55.89zm.95-19.05c13.86 0 21.81-15.27 21.81-36.05 0-19.05-7.68-35.42-21.81-35.42S181 397.64 181 417.47c0 20 8.21 35.58 21.94 35.58zm183.11 19.05c-26.79 0-42.67-23.77-42.67-54 0-31.8 17.5-55.57 44.15-55.57 27.87 0 43.08 24.4 43.08 53.68 0 35-17.9 55.89-44.43 55.89zm.94-19.05c13.87 0 21.81-15.27 21.81-36.05 0-19.05-7.67-35.42-21.81-35.42S365 397.64 365 417.47c0 20 8.22 35.58 21.95 35.58zM333 463.35c-6.16 2.52-16.61 8.68-28.28 8.68-16.11 0-27.77-4.87-35.9-14.15s-12.44-23.11-12.44-38.67c.13-35.21 21.48-55.33 50.44-55.33 11.4 0 20.18 2.67 24.5 5l-4.19 19.34c-4.85-2.68-10.74-4.56-20.44-4.56-16.69.03-29.38 11.34-29.38 34.34 0 22 11.53 34.74 27.91 34.74 4.45 0 8.12-.63 9.7-1.41V429l.27-10.66 19-.59-1.19 45.6zm177.9-88.08a52.07 52.07 0 00-32.9-11.36c-20.31 0-35.85 16.14-35.85 31.08s11.35 24.5 24.5 28.68 26.89 7.17 26.29 17.93-15.53 22.71-45.41 6L438 460.13s10.16 11.95 35.26 11.95 34.66-15.54 38.84-23.9 3-31.08-22.7-38.25-28.69-12.55-25.1-23.9 29.88-4.78 38.24 3l8.37-13.74zM180.44 501.06s.3-8.07-6.58-8.07-11.35 3.89-11.35 10.76 8.07 12 10.76 14.64 8.06 6.57 7.17 13.15-7.47 7.17-9.56 6.87-6.28-1.49-7.77-6l-3.59 4.78s5.08 5.38 11.36 5.38 14-4.48 14.93-14.94-15.81-18.2-17.32-21.79-.3-9 5.07-8.07 5.08 3.29 5.08 3.29zm283.25 0s.3-8.07-6.57-8.07-11.36 3.89-11.36 10.76 8.07 12 10.76 14.64 8.07 6.57 7.17 13.15-7.47 7.17-9.56 6.87-6.28-1.49-7.77-6l-3.59 4.78s5.08 5.38 11.36 5.38 14-4.48 14.94-14.94-15.84-18.22-17.33-21.81-.3-9 5.08-8.07 5.08 3.29 5.08 3.29zM189.4 542.59h4.78l13.75-36.92 1.19-1.55 1.2 1.86 13.44 35.68h5.38l-17.33-45.92s-1.2-1.55-2.39-1.55-1.49.31-2.09 2.17-17.93 46.23-17.93 46.23zm119.81 0H314l13.74-36.92 1.2-1.55 1.19 1.86 13.45 35.68H349l-17.33-45.92s-1.19-1.55-2.39-1.55-1.49.31-2.09 2.17-17.93 46.23-17.93 46.23zm-69.02-.59h-4.48v-48.41l32.27 35.56v-32.57h3.89v46.01l-31.68-35.85V542zm40.04-45.42v3.88h11.36v38.25s1.79 4.18 7.77 3.88-.6-4.18-2.1-4.18v-37.95h11.95v-4.18l-29 .3zm107.57 2.09s-8.67-5.38-15.84.9-9.86 12.55-8.07 23.3 14.34 24.21 27.79 10.76l.9-1.2.9 4.49s-4.49 5.67-15.54 5.67S357 530 357 522.87s-.3-17.93 8.37-24.2 18.82-6.57 24.5-2.69l-2.09 2.69zm45.71 42.99h5.38l-17.33-45.92s-1.19-1.55-2.39-1.55-1.49.31-2.09 2.17-17.93 46.23-17.93 46.23h4.78L408.6 530h20.54l4.37 11.62zM409.38 528l8.3-22.28 1.19-1.55 1.2 1.86 8.28 22zm97.04 13.66h5.37l-17.32-45.92s-1.2-1.55-2.39-1.55-1.49.31-2.09 2.17-17.93 46.23-17.93 46.23h4.78l4.67-12.59H502l4.38 11.62zM482.29 528l8.3-22.28 1.19-1.55L493 506l8.28 22z"/></svg>