<svg id="Layer_1" data-name="Layer 1" xmlns="http://www.w3.org/2000/svg" viewBox="0 0 647.86 647.86"><defs><style>.cls-1{fill:#333}</style></defs><path class="cls-1" d="M292.46 516.78c3.15 0 8.59-1 12.88-7.88-2.43-5.44-4.15-16.32-4.44-20.33-1.28-20.47 6.59-39.65 15.18-40.08 6.3-.43 11.31 5.58 11.88 15.32 1.58 25.48-6.87 36.07-11.16 45.24.71 3.58 6.72 9.59 12.45 9.59 2.15 0 4.58-1 5.3-1.86a20.25 20.25 0 01-.86-6.16c0-14.75 9.45-27.2 17.75-27.2 6.59 0 10.31 8.59 10.31 14.32 0 6.72-5.73 12.16-14 17.46a10.12 10.12 0 006.59 2.58c12 0 18.32-14.46 22.9-27.77.86-2.58 2.29-6.16 5.3-6.16 5 0 7.16 33.21 15.6 33.21 3.58 0 6.59-7.3 6.59-13 0-4.16-1.43-4.59-1.43-10.74 0-6.73 3.58-12.46 8.44-12.46 3 0 4 2.87 4 6.44 0 13.46-9.73 38.52-24.05 38.52-10.74 0-9.88-18.47-13.74-18.47-4.3 0-10.17 18.75-30.93 18.75-3.43 0-7-1.72-9.87-5-5 3.44-9.31 4.87-14.18 4.87-7.73 0-11.16-8-14.31-8-3.73 0-8 8.16-20.62 8.16-10.16 0-11.74-13.45-15.32-13.45-3.15 0-8 13.45-13.31 13.45-8.88 0-10.74-23.33-18.47-23.33-6.16 0-25.34 23.76-30.64 23.19-2.15-.29-3-1.86-2.72-3.87.29-2.86 2.86-10.73 3.87-14.46 1.71-6.44 3.29-13.45 4.15-15.6s3.15-3.87 5-3.72c1 .14 1.29 1.86 1.57 3.29 1 5.15 2.58 10.45 4.16 10.45 3 0 12.74-18.75 18.46-18.75 7 0 7.73 29.49 17.33 29.49 3.15 0 5.44-3.72 7.58-8.45.15-7.73 2.3-18.9 8.59-18.9 4.44 0 6.59 9.88 3.3 18.47-.3 10.26 6.41 12.84 10.87 12.84zm168.36-25.34c-2.58 10.88-10.45 26.77-22.33 26.77-2.72 0-7.59-1-7.59-3.87s18.47-3.29 18.47-17.46c0-5.3-4.87-12.6-12-12.6-9.45 0-18.75 10.31-18.75 24.62 0 12.89 8 17 15.89 17 13.88 0 22.33-11.31 26.77-20.9 2.15 6.3 3.29 20.9 8.59 20.9 2.15 0 3.58-1 6.16-6.73 6.3-14.17 12.45-30.35 20.9-30.35 3.15 0 1.29 5.73 8.87 5.73a6.24 6.24 0 006.16-6.3c0-4.87-4.44-8.59-11.17-8.59-19.75 0-24.05 29.63-27.2 29.63-5.3 0-3.58-23.76-7.3-23.76-3.47.04-5.04 4.05-5.47 5.91zm-139.73-22.05c-.43-5.87-1.72-8.59-5-8.3-4.15.28-6.16 13.45-5.3 27.34.58 9 1.86 10.45 3.15 10.31 2.43-.15 8.06-16.32 7.15-29.35zm-34.22-12.46c-.28-3.43-3-5.72-6.58-5.72-4 0-7.73 4.15-7.3 9.45.28 3.43 2.29 6.3 6.3 6.3 4.71.14 8.01-5.16 7.58-10.03zm65.57 42.95c0-3.58-1.86-6.58-4.15-6.58-1.86 0-6.3 2.15-6.3 8.87 0 5.3 1.86 7.73 2.72 8.88 6.02-1.86 7.73-6.87 7.73-11.17zm82.18-7.15c4.44 0 5.73 5.29 4.58 8.44-1 3.15-4.87 6.73-10.74 7.73-1.14-3.15-1.86-16.17 6.16-16.17zm-242.38-14.89c-.57-1.87-2.29-6.16-2.86-9.45-1-7 2.58-11.6 6-12.74 3.72-1 5.3.85 6.73 5.29 1.86 6.73 2.15 15.61 1.43 28.21-.86 17.32-9.45 38.08-30.92 37.65-18.47-.43-26.77-12.46-27.63-30.78a83.2 83.2 0 013.72-29.49c1.86-6.59 3.58-8.88 9.45-10.17 4.58-.86 4.15 4 3.15 9.74-2.29 12.59-3.44 18.75-2.58 33.07.86 15.17 7.73 21 15.32 21 11.31.29 16.46-9.3 18.47-22.9 2.16-10.84.87-16.14-.28-19.43zM440.49 204c1.43 10.6 17.47 24.91 21.91 24.63 2.86-.29 4-13.89 4-24.63 0-6.16.29-10.88-2.86-12-5.15 10.39-18.61 12.39-23.05 12zm1-4.58c11.6 0 22.19-9.31 22.19-17.47 0-3.86-1.86-6.87-6.44-7.44a5.08 5.08 0 011.15 3.58c0 6.15-9.31 13-19.47 13-3.73 0-4.87 2.57-4.87 3.86 0 3.05 3 4.43 7.44 4.43zm-2.43-12.74c-1.58 0-3.87 0-5-2.44-1-2-.72-5.29-2.58-6.72a18.64 18.64 0 005.44.57c5 0 9.88-3.44 13.6-3.44a2.85 2.85 0 013.15 3.15c-.01 4.83-10.03 8.84-14.61 8.84zm-249.82 87.58c3.72 0 3-23.2 9.16-23.2 1.43 0 1.86 1.43 1.86 3.3 0 5.29-2.58 13-2.58 17.17 0 2.15.58 2.87 1.58 2.87 2.72 0 7.3-25.63 11.88-25.63 1.43 0 2.15 1.43 2.15 2.86 0 5.3-6.87 20.76-6.87 25.06 0 .71.28 1.29.71 1.29 2.86 0 8.45-12 10.17-18 1-3.15 2.29-4.87 3.58-4.87s2.14 1.29 2.14 3.87c0 6-5.58 20.18-10.45 29.77-3.72 7.16-9.59 17.76-9.59 23.77 0 3 .57 6.16 4.87 9.88-7.16-.43-10-1.15-12.74-6.73-11.89 23.77 22 21.47 10.45 42.52-2.15-3.72-18.9-7.73-18.9-29.78 0-19 16.75-30.21 16.75-38.22a5.25 5.25 0 00-2-4.16c-3.72-3.15-3.86-5.72-6.72-5.72-2.15 0-4.73 4.87-2 9.3.86 1.44 1.72 2.29 1.72 3.73 0 3.15-4.87 11.45-8.3 11.45s-6.16-8.59-6.16-22.48c0-12.31 2.72-24.62 6.3-24.62 1 0 1.29.71 1.29 1.57 0 1.43-.43 4.3-.43 9.31-.11 5.26.98 5.69 2.13 5.69z"/><path class="cls-1" d="M217.58 307c4.73 0 8.59-3.44 8.59-11.17v-11.41c0-4.3.29-9.31 3.3-12.74a22.81 22.81 0 00-.29 4.44c0 9.59 5.3 16.17 5.3 25.48 0 3.44-1 5.3-3.73 5.3-2.57 0-2.29-2.29-2.86-2.29s-1.14 1.43-1.14 3a6.06 6.06 0 006.29 6c4 0 7.31-3.73 7.31-7.88 0-10-7.88-21.19-7.88-31.92a25 25 0 012.29-10.31c0 22.19 18.9 38.37 18.9 47.67a3.76 3.76 0 01-3.87 3.87 3.7 3.7 0 01-3.86-3.58c0-.72-.14-1-.43-1-.72 0-2.72 2.29-2.72 5.15a8.34 8.34 0 008.59 8.16 9.94 9.94 0 009.88-10.16c0-11.74-22.91-29.5-22.91-48.54 0-3.29.57-8.44 2.86-12.45-14.74 9.45-19.32 22-19.32 33.21 0 9.59-.29 14.46-5.3 14.46-2.58 0-3.29-2.29-4.15-2.29s-1 2-1 2.58a6.35 6.35 0 006.15 6.42zm193.56-111.63c4.87 0 8.59-2.29 8.59-3.58 0-.43-.71-.71-2.15-.71a68.17 68.17 0 01-9.87-1c-4.73-.71-8.31-2.57-9.6-2.57a.64.64 0 00-.71.57c.14 2.85 5.6 7.29 13.74 7.29zM386.8 181.2c1.44-1 7.73.57 15.9-3.44a5.64 5.64 0 012.86-.71c3.86 0 2.86 4.43 6.44 4.43 2.72 0 6.3-2.29 8.45-2.29 3.29 0 8.16 10.45 8.16 15.47 0 5.72-8.59 9.16-18.76 9.16-14.89 0-23.76-12.89-23.76-21.33a1.79 1.79 0 01.71-1.29zM220 349.13c-3.73.86-9.6 6.73-9.6 15.89 0 10.88 11.74 27.78 31.07 27.78 16.32 0 20.33-11.31 20.33-18.9 0-16.9-10.31-28.78-23.91-28.78-7.3 0-14 5.3-14 13.32 0 7.44 5.59 18.46 18.9 18.46 6.3 0 9.88-4.43 9.88-9.59 0-5-4.58-11.88-11.31-11.88a3.23 3.23 0 00-3.44 3.44c0 2.72 3.72 5.29 8.31 5.29a7.22 7.22 0 002.43-.43 1.91 1.91 0 01.29 1.29c0 2.58-2.44 4.15-6.3 4.15a11 11 0 01-11.17-11c0-4 3.44-6.87 8.45-6.87 9.87 0 15.89 8.87 15.89 17.61 0 7.87-4.3 12.45-13.32 12.45-17.76.13-26.35-15.91-22.5-32.23zm118.84 43.09a4.44 4.44 0 104.44-4.43 4.46 4.46 0 00-4.44 4.43zm8.59 22.34c5.3 0 5-.43 6.73-.43s1.72 1 1.72 1.72c0 2.43-5.44 5.44-15.18 5.44-5.72 0-9.16-3-10.16-6.45-5.58 3.58-14 6.88-22.48 6.88-22.9 0-28.63-9.88-35.79-13.18-5.44-2.43-13.89 2.29-25.62-10.73a33.7 33.7 0 005.29.43c10.31 0 15.75-5 15.75-13a22.36 22.36 0 00-.29-3.15c3.15 1.29 10.31 6.58 12 16 .29 1.15 4.87 2.15 7.73 2.15 4 0 9.16-1.72 9.88-8.3 13.46-1.15 22.48-9 24.34-19 4.72 1.57 10.31 5.87 11.59 8.16a19 19 0 016.73-1 44.65 44.65 0 0112.46 2.15c.28-1.43.43-3.29 2.72-3.29 3.29 0 2.43 3.72 3.58 5.87.57 1.14 3.29 1.72 3.29 4a2.83 2.83 0 01-2.86 2.86 3.27 3.27 0 01-1.29-.29c-2.29.72-2.29 16.9-11.74 16.9-6.87 0-13.32-5.73-16-12.89a4.61 4.61 0 00-4-3.43c-1.72 0-2.72.28-4.87 2.72a38.77 38.77 0 01-28.5 12.3c-3.87 0-6.87-.29-7.59-.29-.43 0-.43.15-.43.29 0 .72 3.87 3.86 12 3.86 19.61 0 24.48-11 27.63-11a2.67 2.67 0 012.57 1.72c4.62 10.54 14.64 12.98 20.79 12.98zm67.72-71.16c-2.29 0-15.32 17.33-23.62 17.33-2 0-3.72-3.87-3.72-6.73 0-1.58 1-2.72 4.58-3.44 19.18-4.29 14.89-18.75 31.35-18.75 9 0 19 6.15 19 20 0 14.75-21 33.07-24 33.07-2.58 0-5.3-3.72-5.3-6.15 0-.72.29-1.72 2.58-2.72 10.74-4.3 16.89-14 16.89-19.05a2 2 0 00-2-2.29c-1.86 0-10 18.47-19 18.47-6.3 0-12.6-5.72-12.6-8.3 0-4.44 18-12.74 18-19-.16-2.29-1.16-2.44-2.16-2.44zm12.17-6.87c-1.58 0-3.29 1.29-3.29 4.3a7.24 7.24 0 004 6.15 6.89 6.89 0 003.29.86c3.29 0 5.87-.86 5.87-3.58-.14-3.58-5.19-7.73-9.87-7.73zM218.58 207.11a4.44 4.44 0 104.44-4.44 4.56 4.56 0 00-4.44 4.44zm-5.72-10a4.44 4.44 0 104.44-4.44 4.46 4.46 0 00-4.44 4.42zm-4 30.64c-2.58.71-7.87 3.86-7.87 9.45 0 4 3.15 6.58 7 6.58a6.77 6.77 0 004.3-1.14 12.9 12.9 0 01-4.3-9.74 14.59 14.59 0 01.86-5.17zm-27.36 1.55a7.14 7.14 0 00-.14 1.72c0 5.3 2.72 8.16 6.44 8.16 2.72 0 6-1.72 8.88-5.3a18.68 18.68 0 01-4 .29c-4.02-.17-8.6-1.29-11.18-4.87zm-4 9.88c0 8.45 2.57 12.45 7.15 12.45 3.58 0 8.31-2.57 14-7.44a49.92 49.92 0 01-10.65 1.72c-3.92 0-7.07-1.58-10.5-6.73zm28.92-44.67a21.08 21.08 0 001-6.44c0-5.3-2.44-13.46-10-13.46a7.43 7.43 0 00-7.42 7.59c0 8.73 8.83 12.31 16.42 12.31zM197 222.72c-3.73 0-7.73-4.59-7.73-8.74 0-2.29 1.71-5 2.86-5 .43 0 .72.29.72 1.15a13 13 0 007.58 10.16c.29.29.58.29.58.57.11.71-2.01 1.86-4.01 1.86zM207.27 209c.72 1 2.87 2.29 2.87 3.15 0 1.58-.86 3.58-2.72 3.58-3.87 0-7-5.87-7-9.31 0-2.14 1.29-2.29 2.87-2.29a3.44 3.44 0 011.71.43c1 .55 1 2.84 2.27 4.44zm-26.19 13.89a2.76 2.76 0 00-.29 1.29 2.42 2.42 0 002.15 2.14 17.91 17.91 0 001.86-.28c2.72 0 5.72 1.86 10 1.86 2.58 0 5.58-.72 9.45-2.72 8-4 11.17-14 11.17-15.61 0-2.14-1.72-1.86-3.15-3.86s-.86-3.72-1.72-4.58c-.58-.57-2.15-.57-4.15-.72a13.48 13.48 0 00-2.44-.14 22.09 22.09 0 00-12.88 3.58c-9.86 6.27-8.57 16.43-10 19.01zm37.08-4.44a21.36 21.36 0 00-5 12.89c0 6 3.73 11 9.45 11 5.44 0 8-4.73 8-9.45-.14-7.6-6.87-12.75-12.45-14.47zM194.25 197a13.79 13.79 0 01-7.3 2.43 8.35 8.35 0 01-8.59-8.59 9.48 9.48 0 015.87-8.88 8.43 8.43 0 00-.15 1.86c0 6.4 3.58 11.26 10.17 13.18zm196.85 37a4.73 4.73 0 104.72-4.73 4.77 4.77 0 00-4.72 4.73zm.29 14a5.3 5.3 0 105.29-5.3 5.47 5.47 0 00-5.29 5.36zm-16 9.59a7.73 7.73 0 107.73-7.73 7.7 7.7 0 00-7.77 7.79zm4.15-15.75a4.44 4.44 0 104.44-4.44 4.47 4.47 0 00-4.48 4.5zm-14.6 8.88a4.44 4.44 0 104.44-4.44 4.45 4.45 0 00-4.48 4.5zm11.45-26.06a7.16 7.16 0 107.16-7.16 7.18 7.18 0 00-7.2 7.22zm8.27-13.66a4.3 4.3 0 104.29-4.3 4.3 4.3 0 00-4.29 4.3zm-20.19 10.73a4.23 4.23 0 104.15-4.29 4.28 4.28 0 00-4.15 4.27zm-.57 14.46a6.8 6.8 0 106.73-6.87 6.75 6.75 0 00-6.73 6.85zm-14 7.16a6.3 6.3 0 106.3-6.3 6.27 6.27 0 00-6.33 6.28zm3.86-15.75a4.44 4.44 0 104.44-4.43 4.46 4.46 0 00-4.47 4.41zm39.09 34.36a4.25 4.25 0 014.15-4.15 4.18 4.18 0 014.29 4.15 4.14 4.14 0 01-4.29 4.3 4.18 4.18 0 01-4.18-4.32zm2.97 128.4c.58 0 1.29.29 1.29 2.29 0 2.44-1.14 5.73-5.15 8.31a22.42 22.42 0 01-12.17 3.58 27.41 27.41 0 001.57-8.17 18.1 18.1 0 00-.28-2.57h1.43c8.88.14 12.6-3.44 13.31-3.44zm.86-11a4.24 4.24 0 001.15-3.29v-2.58c0-3.29-4.87-5.16-11.6-5.16-8.16 0-12.45 3.73-12.45 5.3v5.16c0 2.14 4.86 4.29 11 4.29 4.6-.02 9.04-1.31 11.9-3.74zm5.73 1.29a32.6 32.6 0 01-21.05 7.3c-6 0-8.73-1.86-9.59-1.86-1.14 0-2.29 1.14-3.58 2.57-2.72 3.15-6.15 8.88-6.15 15.32 0 4.44 3.43 8.88 9.87 8.88 20.91 0 36.51-13 36.51-23.62.14-6.18-3.42-8.61-6.01-8.61zm4.01-93.94c0 2.72.86 6 3.72 6 2.29 0 4.29-3.58 4.29-7.44 0-4.44-.71-7.88-.71-9.74 0-.71.29-1.14.71-1.14 1.72.14 3.3 4.72 5 4.72 2 0 5-3.72 6.29-3.72.29 0 .43.43.43.57 0 1.72-2.57 5.44-2.57 6.87s6.44 1.44 6.44 2.58c0 1.72-6.73 1.72-10 3.15s-5 3-5 5.3 2.29 2.72 5.44 2.72c7.44 0 12.74-4 14.31-4a.62.62 0 01.58.57c0 1.15-3.87 4.87-3.87 6.45 0 1.86 6.87 4.15 6.87 5.29-.14.29-.57.43-1.29.43-1.28 0-3.14-.28-4.58-.28-.86 0-1.71.14-2 .57-.72.86.29 6.87-1.29 6.87s-5.3-13.17-13.89-13.17c-1.28 0-2.14 1-2.14 2.72 0 4.44 4.29 9.59 8.44 12 1.86 1.28 5 2.43 5 3.14 0 1.29-7.15.15-7.15 2.3s.85 5 .85 6.87c0 .57-.14 1.29-.71 1.29-1.29 0-4.58-6.16-6.16-6.16-1.29 0-4.29 3.72-5.44 3.72a.65.65 0 01-.57-.71c0-2.58 4.15-8.45 4.15-14 0-2.72-.28-8.45-3.58-8.45-2.72 0-5.72 4.29-7 8.45-.72 2.43-.29 11.88-2 11.88s-1.29-6.3-3.43-6.3c-1.72 0-5.16 3-6.45 3-.28 0-.43-.15-.43-.29 0-1.29 3.3-5.73 3.3-6.59 0-1.71-7.45-1.86-7.45-3.29 0-.71 2.87-1.29 5.59-1.72 5.72-1 14-5.15 14-10.88 0-6.44-6.3-9.3-10.31-11.88-2.15-1.29-4.44-2.43-4.44-3.29s2.72-.86 3.87-.86c1.71 0 3.29-.15 3.29-1.43 0-1-.29-3-.29-4.58 0-1.15.15-2 .58-2 1.71 0 4 5.44 5.15 5.44 1.72 0 4.29-4.44 5.87-4.44.57 0 .71.29.71 1.29.01 3.46-2.13 8.02-2.13 12.17zm-53.26-32.78c1.29 9.44 14 4.72 14 16.17 0 1.72-.43 4.16-.43 6.3 0 2.44.29 4.58 2.15 4.58s2.29-1.28 2.29-3.15c0-1.71-.43-4-.43-5.29 0-3.87 2.86-4.87 4.44-4.87 4.29 0 7.44 4.29 13.88 4.29-1.43 7.16-16.17 5.3-16.17 13 0 3.87 3.86 4.87 6.44 4.87 2.29 0 3.15-.29 3.15-2.29 0-1.15-.29-2.29-.29-3.15a.83.83 0 01.86-.86c2.44 0 14.46 9.16 14.46 12 0 2.57-12.74 5.15-16.46 5.15-1.15 0-1.29-.72-1.29-1.29s1.86-3.15 1.86-4.44c0-1-1.72-1.71-6.16-1.71-2.14 0-3.72.28-3.72 1.86 0 3 4.87 6.73 4.87 9.45 0 2.29-1.29 3.58-4.87 3.58-3 0-7.59-2.3-7.59-6.3 0-3.15 3.15-6.3 3.15-8.16a1.51 1.51 0 00-1.71-1.44c-4.16 0-5.3 10.88-19.9 12.17 2.29-2.14 4.29-4.44 4.29-9.3 0-2.29-.57-4.3-.57-6.87 0-3.3 1.57-5 3.86-5 4.16 0 6.16 5.87 8.88 5.87a3.19 3.19 0 003-3.29c0-8.45-16.32-7.3-16.32-19.18.17-3.11 1.32-7.12 4.33-12.7z"/><path class="cls-1" d="M374.35 326.51a2.63 2.63 0 002.72 2.72 3.06 3.06 0 002.86-3.29c0-2.29-2.15-5.59-4.15-5.59-.86 0-.57 1.29-.72 2.87-.14 1-.71 2.43-.71 3.29zm-5.87-14.89c11.74 2.29 18 11 18 19.33 0 5.73-3.58 10.88-9.88 10.88-5.73 0-9.88-3.87-9.88-10.17 0-4.72 3.72-9.59 3.72-14.46a7.92 7.92 0 00-1.96-5.58zm-14.75 19a4.44 4.44 0 011.43 3.29c0 1.72-.71 3.44-.71 5.3a4.86 4.86 0 004.87 5 5.19 5.19 0 005.29-5.29c-.14-4.11-4.43-8.26-10.88-8.26zm36.94-7.16a7.43 7.43 0 011.14 3.58c0 3.15-2.14 6-2.14 9.31a6.7 6.7 0 007 6.73 7.76 7.76 0 007.73-8c.01-5.99-5.4-11-13.73-11.58zm-34.36-5.87c5.15.72 6.44 2.44 6.44 3.87 0 2.43-2.29 3.29-4.44 3.29-1.57 0-3.29-.28-5.29-.28a8.53 8.53 0 00-6.88 2.86c1.44.29 3.58 1.29 3.58 3.44 0 6.44-18 1.14-18 17.75 0 8.87 9.16 18.47 23 18.47 7.16 0 11.74-2.29 11.74-5 0-2.15-3.86-.72-3.86-2.44 0-.71 1.29-2.29 1.29-3.43 0-.58-.43-1.58-1.29-1.58-2 0-5.87 3.29-13.46 3.29-6 0-11.88-3.43-11.88-8.16 0-1 .43-1.57 1.14-1.57s1.58.43 2.29.43.72-.43.72-1.72 0-4.72 2.15-4.72 6.15 7.87 21.62 7.87c5.15 0 15-1 18.75-4.3-.14 12.32-9.73 28.49-29.78 28.49-20.9 0-32.07-16.75-32.07-32.21a32.9 32.9 0 0133.07-32.64c4.87 0 9 1.72 9 3.72.03 2.9-7.27 1.04-7.84 4.61zm-72.16-127.52c7.31 0 10.74 6.3 10.74 13.46 0 3.15-.86 7.73-2.29 7.73s-1.29-2.57-1.43-4.87c-.29-3-.72-3.72-1.72-3.72-1.86 0-3.15 4.44-3.15 8.59 0 2.58.43 5.44 2.44 5.44a4.11 4.11 0 002.86-1.29c-.43 5.16-4.3 9.6-9.59 9.6-9.88 0-13.46-11.46-14.61-18.19-5.87 6.3-11.45 10.88-21.18 10.88-9.17 0-13.32-6.72-13.32-13 0-1.86.72-6.88 3-6.88 2.72 0 .28 9.17 5.87 9.17 1.29 0 3.86-1.15 5.15-4.87a23.1 23.1 0 001.29-6.59c0-3-.72-4.86-2.86-4.86a8.2 8.2 0 00-5 2.29c2.72-8 9.16-12.17 16.32-12.17 8.87 0 13.45 7.87 13.45 16.46a36 36 0 01-.28 3.87c3.29-6.32 8.59-11.05 14.31-11.05zm-8.59 13.18c0-1.87-.43-2.3-.85-2.3-1.15 0-2.3 1.29-4.16 4.3.29 4 .86 5.87 2 5.87s3.01-4.01 3.01-7.87zm-15.31 4.58c1.28 0 2.86-1.29 5.72-4.58a22.2 22.2 0 00.29-4.44c0-2.29-.86-4.73-2.29-4.73-3.29 0-5 8.88-5 11.31-.16 1.29.56 2.44 1.28 2.44zm18.18 9.87c2.72 0 5.87-10.73 5.87-17.46 0-1.43-.29-3-.86-3-2.29 0-6.3 11-6.3 17 0 2.46.57 3.46 1.29 3.46zm-27.35-6.15c3.87 0 8.16-20.62 8.16-24.05 0-.86-.28-1.58-1.14-1.58-3.44 0-8.31 19.62-8.31 23.91 0 .86.29 1.72 1.29 1.72z"/><path class="cls-1" d="M263.25 220.14c-4.87 0-5 5.87-5 17.46-3.58-7.73-9.45-16-16.46-16-4.73 0-6.44 3.15-6.44 8.59a33.52 33.52 0 00.28 3.87c.57-1.87 2.29-2.72 4.58-2.72 4.87 0 10.6 3.72 14.46 8.73-4.29-.72-8.59-1.58-12.17-1.58a14.33 14.33 0 00-5.87 1c-3.29 1.43-7.58 6.3-7.58 13.45 0 1.15.14 2.29.28 3.73 3.87-8.74 14.32-12.6 21.05-12.6a18.63 18.63 0 013.15.28c-3.44 3.15-4.3 8.59-4.44 12.32-.14 1.71-.72 1.86-2 1.86 0 3.72 2.87 9.16 2.87 11.88a2.48 2.48 0 01-1.15 2.15c0 4.86 4.87 8.44 4.87 11.59a2.74 2.74 0 01-.57 1.72c.28 2 5.72 5.44 6.44 7 .86 2 1.86 2.43 2.43 2.43 1.86 0 4.87-2.29 4.87-4.29a2.33 2.33 0 00-1-1.72c-2.15-1.58-3.29-4.87-4.15-7.16a2.06 2.06 0 01-2.15-1.58c-.57-2.29-.57-6.58-1.57-9.16-1.44-.28-2.15-.86-2.15-3.86 0-1.44.86-7.16.86-9.17a1.54 1.54 0 01-1.58-1.71c0-3.58 3.58-6.3 4.58-10.88 6.3 4.72 7.88 9.44 7.88 13.74a29.26 29.26 0 01-.72 6.3c4.73-2.29 11.74-5.87 11.74-12.89 0-4.15-1.86-8.73-14.46-10.45a40.15 40.15 0 0112.87-2.29c7.15 0 11.31 2.29 12.17 7.3 1.43-2.29 2.57-4.86 2.57-7.16 0-5.44-4.58-9-10.45-9-6.87 0-12.88 3.57-19.33 7.87 2.87-6 4.87-9.59 8.45-9.59a7.35 7.35 0 011.72.28c-1.13-5.02-6.3-9.74-8.88-9.74zm188.12 80.46c5.58 0 10 7.3 10 15.75A35.31 35.31 0 01449.51 342c-.14-15-18.61-10.31-18.61-21.19 0-4.72 3.29-7.87 7.44-7.87a11.71 11.71 0 018.45 3 9.89 9.89 0 01-3-7.16c-.01-4.32 2.71-8.18 7.58-8.18zm-82.89-114.25c-.86-1.43-4.3-2.29-5.73-2.29-4.87 0-8.3 3.44-8.87 6.59a11 11 0 01-.72-3.87c0-4.87 3.29-10.88 11.45-10.88 7.16 0 9.88 3.72 10.88 3.72s2.29-1.14 3.15-1.14c1.29 0 1.29 1.86 1.29 3.29 0 4.44-2 12.17-7 15a11.18 11.18 0 00-5.59-5.29 1.88 1.88 0 01-1.14-1.72c-.2-1.12.99-2.69 2.28-3.41zm-16.75 8.16c2.86 2.87 5.44 4 8.59 4 1.29 0 2.72-.29 3.43-.29 1 0 1.72.43 1.72 1.29a6.64 6.64 0 01-2.43 4.3 10.88 10.88 0 004.29.71c6.3 0 13.6-4 13.6-14a15.29 15.29 0 012.15 7.16c0 12.17-8.87 16.9-17.18 16.9-5.44 0-8-1.72-8.73-1.72-2.15 0-2 4.29-3.44 4.15-2.57-.43-4.86-6.16-4.86-12.17a17 17 0 012.86-10.33zm-95.64-71.01c0-.71-3.29-1.29-7.87-1.29-7.3 0-6.3 6-11.88 6-5.87 0-4.3-6.3-11.74-6.3-4.44 0-8.59.71-8.59 1.72 0 1.28 5.29.71 5.29 4.43s-11.31 5-11.31 7.3c0 .72.86 1.15 2 1.15 2.43 0 6.3-1.15 9.16-1.15 1.58 0 3 .29 3 1.72 0 2.87-6 7.88-6 10 0 .72.57.86 1.14.86 2.29 0 6-5.72 9.59-5.72 5.87 0 2 12.6 5.3 12.6s1.86-12.46 6.73-12.46c3.86 0 6.87 8.59 9.45 8.59a1.29 1.29 0 001.29-1.29c0-2.29-3.3-7.16-3.3-10.31 0-1.86 1.29-2.86 3.15-2.86 2.58 0 6 1.57 7.88 1.57.71 0 1.29-.28 1.29-1 0-2.72-9.88-5.58-9.88-9-.14-2.98 5.3-2.98 5.3-4.56zm26.2 11.31c0 2 7 6.3 10.31 6.3 1.86 0 2.43-2.58 2.43-5.3 0-3.29-1.43-3.43-4.29-3.43-3.74.14-8.45 1.14-8.45 2.43zm11.6 22.19c0-6.73-18.18-18.89-18.33-24.05a2.28 2.28 0 01.72-1.43c3.15-3.29 16-5.73 16-8.45 0-1.43-2.72-1.43-4-1.43-10.45 0-25.63 3.87-25.63 7.45 0 3.86 13.6 13 13.6 17.6 0 1.29-.72 1.72-2 1.72-3.73 0-12-4.58-16-4.58-1.72 0-2.43 1.29-2.43 3 0 5.3 6.3 15.46 6.3 18.47 0 .28-.15.71-.58.71-2 0-11.45-11.16-14.88-11.16-1.29 0-1.29 1.71-1.29 4.15v3.86c0 2.58-.15 4.15-1.29 4.15-2.87 0-4.3-8.16-7-8.16s-3.43 14.46-6.3 14.46c-3.29 0-.43-16-3.58-16-3.43 0-7.3 10.59-9.87 10.59-.86 0-1.15-.86-1.15-1.71 0-3.3 1.86-8.45 1.86-11.6 0-1.58-.43-2.43-1.72-2.43-3.43 0-11 5.58-14 5.58-.43 0-1-.29-1-.72 0-2.72 12.17-11.16 12.17-15 0-3.72-16.75-1.29-16.75-5.44 0-3.58 12-7.3 12-10.88 0-3.29-14.18-4.72-19.62-4.72-6.58 0-10.16.71-10.16 2.72 0 2.86 15 3.86 15 6.29s-15.46 9-15.46 12.89c0 3.29 21.9.29 21.9 3.72 0 3.87-19 20.19-19 25.63 0 1.29.86 1.72 2.15 1.72 5.87 0 20.9-11 25.05-11 1.43 0 1.58 1.72 1.58 3.3 0 2.86-1 7.3-1 10.59 0 2.58.71 4.29 2.86 4.29 4.15 0 7.87-7 10.74-7 3.58 0 1.43 20.62 6.87 20.62 4.58 0 6.44-22.34 9.3-22.34s5.3 6.44 7.88 6.44c3.29 0 1.72-11.31 5.3-11.31 3.86 0 15 13.46 20 13.46 1.57 0 2.15-1.29 2.15-2.86 0-5.87-8.31-19.33-8.31-23.62 0-1.15.29-1.44 1.58-1.44 4.29 0 17 6 23.05 6 2.14.5 3.29-.65 3.29-2.08zM192 150.56c0 2.29-8.45 9.74-11.46 9.74-1.14 0-1.43-1.29-1.43-2.58 0-2.29 1-5.3 2.29-6.3 1.43-1.29 4.87-2 7.3-2 1.54-.15 3.3.14 3.3 1.14zM274 162c0 3.87 14 23.05 16.61 23.05 2.29 0 3.86-3.86 3.86-7.3a4.78 4.78 0 00-.71-2.43c-2-2.87-16.18-14-19.33-14-.15-.02-.43.41-.43.68zm179.38-33.77a2.75 2.75 0 002.86 2.72 2.8 2.8 0 10-2.86-2.72zm-18.19 24.62c0-7.87-19-9.88-19-11.74 0-1.43 10.6-3.86 16-4-8.45-10.73-20.33-9.59-20.33-11.45 0-1.15 8.87-3.29 17.18-3.29 6.87 0 13.46 1.57 13.46 6.87 0 2.86-2.3 5.87-2.3 10.45 0 2.43 1.29 4.58 4.44 4.58 3.44 0 4.3-3.72 4.3-7.59 0-3.29-.58-5.72-.58-7.3 0-4.72 3.15-7.87 7.74-7.87 3.86 0 4.72 1.72 10.3 1.72a8.67 8.67 0 00-4.15 6.58c0 4.73 3 7.88 3 17.47 0 17.61-16.47 23.91-36.8 23.91a120.39 120.39 0 01-17.32-1.29c-.86-.15-1.14-.29-1.14-.86 0-1.43 7.87-2.29 7.87-9.45 0-2.86-.86-5.44-.86-6.44a.82.82 0 01.86-.86c1.72 0 5 6.44 11.31 6.44 1.83-.15 6.02-.73 6.02-5.88zm18.9-11.31c0 9.88-7.3 17.47-20.33 19.61a39.78 39.78 0 004.15.15c15.32 0 20.91-6.87 20.91-12.74a7.35 7.35 0 00-4.73-7.02zm-7.73 144.03c1.72-5.59 4-9.45 7.73-15.47-3.72-1.86-13.46-5.87-13.46-12.45 0-7.73 9.6-13.75 11.6-13.75.86 0 1.15.72 1.15 2.29 0 4-1.87 10.46-1.87 14 0 3.15 2 6.16 3.87 6.16s7.16-6.73 7.16-13.31a15.12 15.12 0 00-13.6-15.47c-3 0-8.45 4.87-21.33 4.87-24.06 0-29.5-23.76-29.5-34.21 0-.43.15-.58.29-.58.57 0 2.86 2.87 10.45 2.87 3.87 0 7.45-1 13.17-1 13.32 0 19.33 9.31 27.63 21.05 5 3.15 17 8.16 17 22.33 0 12.46-13.31 19.47-16.46 32.79 5.15-.57 8.16-9.74 13.45-9.74 2.72 0 3.87 2.15 3.87 5.44 0 4.87-2.86 12.32-8.16 16.9a6.07 6.07 0 00.14-1.72c0-3.15-1.29-7.59-4.87-7.59-5.58 0-7.3 6-10.45 11-3.29-11.45-7.58-21.61-15.46-27.91s-21.62-2.87-21.62-14.46c0-3.15 2-7.59 2-11.17a6.28 6.28 0 00-.86-3.29c10.74 4 6.87 11.17 13.6 18.47 4.15 4.72 15.46 9.16 22.05 28.49a17 17 0 00.28-3c0-16.46-21.9-32.78-23.76-39.37 12.74 1.43 14.89 4.58 21 21.33.95 3.61 4.96 12.2 4.96 16.5zm-2.86-54.26c0-2.3-5.87-2.58-6.45-9.17-.14-1-.42-2.72-1.71-2.72-2 0-.43 6.16-2.72 6.16-5.16 0-6.88-10-8.74-10-.43 0-1 .28-1 1.72 0 1.28.29 2 .29 3.43s-.29 2.44-1.72 2.44c-3 0-5.73-7-8.3-7-.58 0-1.15.29-1.15.86 0 1.29 2.29 3.86 2.29 5 0 2.72-7.3 1.29-7.3 3.44 0 1 1 1.28 2.29 1.28 2.29 0 6-1 7.87-1 1.15 0 2.87.29 2.87 1.72s-4 3.58-4 5c0 .72.72 1 1.29 1 3 0 8.3-5.29 12.17-5.29.71 0 2.29.28 2.29 1.28 0 1.44-3.72 4-3.72 6.16 0 .57.28 1.29 1 1.29 2 0 4.72-5.3 8.44-5.3 1.44 0 3.58.57 4.73.57a1 1 0 001.28-.87z"/><path class="cls-1" d="M360.32 164.45c1.86 0 2.15 4.29 2.43 6.87.29 1.29.43 1.43 1 1.43 1.29 0 3.44-5.15 4.87-5.15 2.15 0 7.88 5.87 17.32 5.87 13.46 0 26.2-9.45 26.2-26.2 0-16.18-11.45-25.63-27.2-25.63-7.44 0-13 3.72-15.89 3.72-1.72.15-4.44-4.29-5.73-4.29-.57 0-1.14 1.14-1.14 3 0 1.29 0 5.16-1.29 5.16-2.72 0-13-7.73-13-4.87 0 2.58 6.87 10.45 6.87 12.46s-6.87 3.86-6.87 5.29c0 2.44 7.3 2.87 7.3 6s-7.58 5.58-7.58 7.87c0 1.86 7.58.57 7.58 2.86s-5.58 10.17-5.58 12.46c0 .57.14.57.57.57 2.12-.12 8.56-7.42 10.14-7.42zm3.15-18.33c0-1.29-4.3-3.58-4.3-4.87 0-.28.29-.28.58-.28 1.28 0 3.29.43 5 .43 1.43 0 1.71-6.3 2.72-6.3.71 0 2.14 5.87 3.29 5.87 1.43 0 4.15-1.72 5.3-1.72.28 0 .43.14.43.29 0 .71-2.87 3.72-2.87 4.72s6.3 2.29 6.3 3.15c0 1.15-6.44 1-6.44 2 0 .71 2.29 3.86 2.29 4.86 0 .29-.14.29-.29.29-.86 0-4.29-1.58-5.29-1.58-1.29 0-3.15 4.59-4.3 4.59-.28 0-.57-.43-.57-1l-.29-4.43a.8.8 0 00-.71-.86c-1.29 0-3.87-.15-4.73-.15-.57 0-.71-.14-.71-.28.12-.72 4.59-3.85 4.59-4.73zm21.76 21.19c-7.88 0-13-3.86-13-5.87a1.63 1.63 0 011.58-1.72c2.43 0 7.87 3.73 9.59 3.73.43 0 .71-.29.71-.86 0-2-1.86-5.3-1.86-7 0-.43.29-.71 1-.71 3 0 7.45 1.28 9.88 1.28.72 0 1-.43 1-.86 0-2.43-7.31-7.3-7.31-8.73s9-3.29 9-5.44-12.31-.71-12.31-2.86c0-1.58 2.29-4.3 2.29-5.44 0-.57-.43-.72-1.29-.72s-6.44 2.15-8.59 2.15c-1.14 0-2.43-.29-2.43-1.72 0-2.58 4.29-5.3 11.17-5.3 11 0 17.61 7.59 17.61 20.33.28 15.73-10.88 19.74-17.04 19.74zm-75.59 193.27a4.87 4.87 0 01-1.29 3.3c-1.29-2.29-4.73-3.3-6.3-3.3-11.45 0-7.16 16.61-19.47 16.61-5.15 0-5.58-.71-7.45-.71-.71 0-1.28.28-1.28 1 0 2.86 4.15 10 15.6 10s22.62-7 22.62-15.75a11 11 0 00-1-4.58 3.13 3.13 0 012.58-1.15c1.71 0 2.72 2 4.43 2a3.09 3.09 0 003.15-3.15 3.34 3.34 0 00-2.14-3.15 3.93 3.93 0 001.57-3 3.57 3.57 0 00-3.58-3.72 2.84 2.84 0 00-2.43 1.15c-.29-2-1.29-3.87-3.44-3.87a2.86 2.86 0 00-2.86 3.15c.14 1.88 1.29 3.31 1.29 5.17z"/><path class="cls-1" d="M279.57 364.88c-3.29 0-8.44-3.58-8.44-5.58a2.67 2.67 0 012.72-2.58c2.86 0 7.87 3.43 7.87 6.3.14.86-.43 1.86-2.15 1.86zm-31.06-25.06c8.87 2.3 13.45 7 14.31 12.75.86 5.44 2 9.87 4.15 12.17a19.42 19.42 0 0013 5.87c4 0 7.3-1.29 7.3-5 0-4-5.44-13-13.45-13-.72 0-1.72.14-2.87.14a5.61 5.61 0 01-3.29-1c-1.72-1.58-2.29-9.88-5.73-15-3.72-5.59-7.73-7.16-13.17-7.16-3.86 0-8.3 2.14-8.3 5.29-.11 1.8.89 3.12 8.05 4.94z"/><path class="cls-1" d="M304.48 326.22c0-5-10.45-5.15-10.45-12.74 0-1.86 1.29-5.15 3.73-8.59 1 5.87 3.29 8.88 8.44 10.74 9.88 3.72 11.31 9.31 11.31 15.18 0 10-7 22.62-25.2 22.62-14.45 0-24.91-12.89-24.91-23.91 0-3 .72-6.3 2.72-6.3 1.72 0 2.29 1.29 3.58 2.72 5 5 10.45 6.3 18.47 6.3 7.16-.15 12.31-3.01 12.31-6.02zm.43 8c-3.86 1.72-5.29 1.43-5.29 5.3 0 1.43-.29 3.29-.29 4.29 0 1.29.29 2.15 1.72 2.15 4 0 10.45-6.87 10.45-12.6 0-1.57-.86-2.29-1.86-2.29s-2.01 1.93-4.73 3.17zm-35.5-56.41c0-7.15 17-10.88 17-19.75a14.49 14.49 0 00-1.58-5.87c5.87 3.29 10.31 8.73 10.31 13.17 0 7.73-8 11.31-8 16 0 5.59 8.59 6.45 8.59 13.46 0 5.73-8.16 12.31-8.16 19.61a11.07 11.07 0 0010.17 11.17 27.31 27.31 0 01-5.73.72c-11.31 0-22.91-9.31-22.91-20.33a19 19 0 015.9-13.7c3.15 2.72 6.3 4.44 8.31 4.44 1.71 0 2.57-.86 2.57-2.29-.15-4.01-16.47-7.73-16.47-16.61zM204.55 333a7.25 7.25 0 008 6.3 8.74 8.74 0 003.72-1.14 6.74 6.74 0 007.88 5.29c4.15-.57 6.87-3.72 6.44-7.87a6.74 6.74 0 00-.72-2.58 3.9 3.9 0 001-.14 7.48 7.48 0 006.44-7.87 7.31 7.31 0 00-7.87-6.59 6.36 6.36 0 00-3.73 1.57 7.58 7.58 0 00-8.44-5.58 7.18 7.18 0 00-6 8.16 7.55 7.55 0 00.58 2.29 7.46 7.46 0 01-1.15.15 7.4 7.4 0 00-6.15 8.01zm20.91-4.29a4.25 4.25 0 11-4.73-3.72 4.2 4.2 0 014.73 3.67z"/></svg>