<svg id="Layer_1" data-name="Layer 1" xmlns="http://www.w3.org/2000/svg" viewBox="0 0 647.86 647.86"><path d="M505 267.16q-62.79.1-125.57.06a11.43 11.43 0 01-1.31 0c-.95-.12-1.31.42-1.48 1.21-.46 2.21-25 111-25.42 113.51a46 46 0 00-1 7 21.05 21.05 0 00-.82 5.23c-.95.95-1.46.66-1.67-.58-.32-2-.67-4-1-5.95-.48-2.64-27.73-116.27-27.97-118.13s-1.17-2.34-3-2.34c-29.54.07-59.07 0-88.61.09-1.79 0-2.31-.41-2.3-2.26.09-16.78.07-33.55.05-50.32 0-.73.45-1.59-.37-2.2a2 2 0 00-.64 0c-10 2.77-63.77 17.56-67.73 18.66-.77.64-.38 1.5-.39 2.25v31.72c0 1.7-.4 2.21-2.14 2.18-6.57-.11-13.13 0-19.7-.08-1.54 0-2 .42-1.93 1.95.14 2 .08 3.94.11 5.9v12.24c0 10.13 0 20.27-.11 30.4 0 1.59.84 1.51 1.92 1.51 6.56 0 13.12.05 19.68 0 1.71 0 2.18.43 2.17 2.16-.07 9.4 0 56.53 0 62.81v2.63a44.14 44.14 0 00.3 8.9.2.2 0 000 .3 23 23 0 00.3 5.43 1.6 1.6 0 00.11.43 13.27 13.27 0 00.48 4.65 8.22 8.22 0 00.47 3.51 14.69 14.69 0 00.85 4.82 34.09 34.09 0 002.12 8.49 12.18 12.18 0 001.38 4.22 19.77 19.77 0 001.92 4.86h-.05l1.08 2.34a37 37 0 004.39 7.48 29.08 29.08 0 005.58 6.59 27 27 0 005.25 4.39 42.52 42.52 0 008.18 5.17 29.15 29.15 0 006.1 3 44.4 44.4 0 0013.14 4 126.67 126.67 0 0020.1 1.62c3.24 0 6.47-.13 9.67-.39a100.15 100.15 0 0024.06-4.75 3.89 3.89 0 003.11-4.15c-.13-3.22-.09-27.41-.08-36.51v-4.64h-.41v-11.12A66.32 66.32 0 01239 406a20.33 20.33 0 01-8.92-5.66c-.82-1.47-1.65-2.94-2.47-4.42-.49-1.6-1-3.19-1.45-4.79-.3-1.75-.59-3.51-.89-5.26-.14-2.19-.29-4.37-.43-6.56 0-.73.05-1.45.05-2.18q0-27.93-.09-55.86c0-1.53.23-2.15 2-2.14q15.54.14 31.1 0a2.16 2.16 0 012.44 1.57c.74 3 29.43 83.67 30.29 85.32.57 2.18 1.06 4.4 2.45 6.26a3.43 3.43 0 00.88 0l-1.56.34.79 2c.67 1.75 14.26 39.13 16.25 45.22a4.13 4.13 0 004.46 3.16h.1c13.87-.09 56.78-.12 63.81 0h.14a4 4 0 004.19-3.1c.93-2.92 21-59.63 22.2-63l1.16-3.16-.39.06a.32.32 0 00.13-.08l1.64-4.77c1.12-2.37 27.8-76.4 29.44-80.69l.35.08v79.14h-.1l.06 1.81c.06 1.51.32 57 .26 70.19a3.6 3.6 0 00.86 2.54 3.46 3.46 0 002.66.9h63.67a3.51 3.51 0 002.57-.94 4.08 4.08 0 00.9-3c0-10.31-.11-78.3-.11-81.25v-.7h.08v-102c0-1.75-.09-3.51.11-5.24.21-2.11-.49-2.63-2.63-2.63zm-348.8 124zm-.06-11.65v-.18h.07a1.42 1.42 0 00-.06.17zM260.59 458a5 5 0 01-.52.21 96.65 96.65 0 01-23.17 4.56 120.28 120.28 0 01-28.85-1.2 40.56 40.56 0 01-12.13-3.65l-.21-.09a26 26 0 01-5.51-2.68l-.12-.08-.08-.07a38.48 38.48 0 01-7.64-4.82l-.13-.1a23.22 23.22 0 01-4.68-3.9l-.19-.19a25.21 25.21 0 01-5-5.9l-.1-.13a30 30 0 01-2.87-4.53c9.76-1.53 45.07-7.21 79.56-12.76l11.59-1.86v.32c0 9.13-.05 33.37.09 36.67a1 1 0 01-.04.2zm117.92.78a4.2 4.2 0 01-.17.45 2.52 2.52 0 01-.48 0c-3.46-.07-15-.09-27.61-.09-13.77 0-28.86 0-36.3.08a2.65 2.65 0 01-.67-.05 1.84 1.84 0 01-.21-.46c-1.76-5.39-12.54-35.1-15.56-43.34a5 5 0 011.26-.07h.48l.45-.19a.74.74 0 01.18-.07h.33c2.26-.56 94.87-15.62 98.11-16l1.32-.26c-4.51 12.7-20.25 57.22-21.13 59.99zm91.79.3h-29.65c0-13.23-.16-58.58-.25-68.16 9.11-1.5 52.58-8.77 63.33-10.73 0 12.55.07 69.51.1 78.91zm37.44-250.89a2.78 2.78 0 00-.15-.69 17.4 17.4 0 00-1.61-6.13 22.14 22.14 0 00-3.93-7.45 24.12 24.12 0 00-7.6-7.48c-.58-.42-1.14-.89-1.75-1.25-7.57-4.47-15.82-5.69-24.43-5-6.71.53-13 2.31-18.52 6.39a22.76 22.76 0 00-7.08 6.87 19.85 19.85 0 00-3.91 7.06 21.55 21.55 0 00-2.17 8.81c0 .25 0 .49-.08.73a29.8 29.8 0 001 13.3 20.59 20.59 0 003 7 21.31 21.31 0 005.32 7 25.09 25.09 0 006.92 5.25c9 5 18.67 5.39 28.49 3.66a30.8 30.8 0 0017.2-8.87 18.58 18.58 0 005.14-6.61 17.36 17.36 0 003.16-7 16.35 16.35 0 001.28-7.47 24.13 24.13 0 00-.28-8.12z" fill="#333"/></svg>